0
SECTION
2
HEADER
999
*** POWERPCB  HEADER ***
9
$EXTMIN
10
-4.0576006667
20
-1.76258
9
$EXTMAX
10
31.877
20
29.73742
9
$FILLMODE
70
0
9
$GRIDMODE
70
1
9
$GRIDUNIT
10
2.54
20
2.54
9
$INSBASE
10
7.78
20
4.69
9
$LIMCHECK
70
0
9
$PLINEWID
40
0
9
$SNAPMODE
70
1
9
$SNAPUNIT
10
0.01
20
0.01
9
$TEXTSIZE
40
2.54
9
$TEXTSTYLE
7
W0$254
9
$USERI1
70
101
9
$USERI2
70
1
9
$USERI5
70
150
9
$VIEWCTR
10
15.664896
20
20.9058006667
0
ENDSEC
0
SECTION
2
TABLES
999
*** POWERPCB  LAYER ***
0
TABLE
2
LAYER
70
22
0
LAYER
2
DBLAYERS
70
1
62
-254
6
CONTINUOUS
0
LAYER
2
BOARD_OUTLINE_00
70
0
62
254
6
CONTINUOUS
0
LAYER
2
PART_ATTR
70
1
62
-254
6
CONTINUOUS
0
LAYER
2
PART_NAME_TOP
70
1
62
-250
6
CONTINUOUS
0
LAYER
2
PART_TYPE_TOP
70
1
62
-250
6
CONTINUOUS
0
LAYER
2
PART_INFO
70
1
62
-254
6
CONTINUOUS
0
LAYER
2
PART_PTS
70
1
62
-254
6
CONTINUOUS
0
LAYER
2
SYM_NAME
70
1
62
-254
6
CONTINUOUS
0
LAYER
2
SYM_ATTRIBUTE_126
70
1
62
-254
6
CONTINUOUS
0
LAYER
2
SYM_PART_NAME_126
70
1
62
-254
6
CONTINUOUS
0
LAYER
2
SYM_TERMINAL
70
1
62
-254
6
CONTINUOUS
0
LAYER
2
PKG_INFO
70
1
62
-254
6
CONTINUOUS
0
LAYER
2
PART_TOP_2DLINE_126
70
0
62
254
6
CONTINUOUS
0
LAYER
2
DRIL_PLTE_THRU_01
70
0
62
16
6
CONTINUOUS
0
LAYER
2
DRIL_PLTE_THRU_02
70
0
62
176
6
CONTINUOUS
0
LAYER
2
PADS_INNER
70
0
62
1
6
CONTINUOUS
0
LAYER
2
PADS_BOT
70
0
62
5
6
CONTINUOUS
0
LAYER
2
PADS_XR_121
70
0
62
176
6
CONTINUOUS
0
LAYER
2
PADS_XR_128
70
0
62
130
6
CONTINUOUS
0
LAYER
2
PADS_TOP
70
0
62
1
6
CONTINUOUS
0
LAYER
2
PCB_PARAMS
70
1
62
-254
6
CONTINUOUS
0
LAYER
2
DRIL_SYMBOL
70
0
62
254
6
CONTINUOUS
0
ENDTAB
999
*** POWERPCB  TEXT STYLE ***
0
TABLE
2
STYLE
70
2
0
STYLE
2
W0$254
70
64
40
0
41
0.75
42
0
50
0
71
0
3
simplex
0
STYLE
2
W0$127R0
70
64
40
0
41
0.75
42
0
50
0
71
0
3
simplex
0
ENDTAB
0
ENDSEC
0
SECTION
2
BLOCKS
999
*** POWERPCB  DBLAYER ***
0
BLOCK
2
DBLAYERS
8
0
10
0
20
0
3
DBLAYERS
70
64
0
TEXT
8
DBLAYERS
10
0
20
-3.048
40
1.778
1
__It__Is__Job__Name__:=T-DISPLAY-S3-2.33-¸±°å.pcb
999
 *  1.Number             2.Type                  3.RouteColor
999
 *  4.ViaColor           5.PadColor              6.CopperColor
999
 *  7.2DLineColor        8.TextColor             9.ErrorColor
999
 * 10.TopComponentColor 11.BottomComponentColor 12.RoutingDirection
999
 * 13.LayerThickness    14.CopperThickness      15.Dielectric
999
 * 16.IsRouteable       17.IsVisible            18.IsSelectable
999
 * 19.IsPrepreg         20.AssSilkScreen        21.AssPasteMask
999
 * 22.AssSolderMask     23.AssAssembly
0
TEXT
8
DBLAYERS
10
0
20
-6.096
40
1.778
1
<ËùÓÐ²ã>:=0 0 0 8 12 28 14 9 15 8 27 2 0 0 3.2999999523 0 1 1 0 -1 -1 -1 -1 0 0 0 8 0 9 27 
0
TEXT
8
DBLAYERS
10
0
20
-9.144
40
1.778
1
Top:=1 1 12 8 12 28 14 9 15 8 0 0 381000 51435 4.3000001907 1 1 1 0 126 123 121 127 0 0 1 8 0 9 27 
0
TEXT
8
DBLAYERS
10
0
20
-12.192
40
1.778
1
Bottom:=2 1 9 8 9 25 13 12 15 0 27 1 0 51435 3.2999999523 1 1 1 0 129 122 128 130 0 0 1 27 0 12 20 
0
TEXT
8
DBLAYERS
10
0
20
-15.24
40
1.778
1
Layer_3:=3 0 0 0 0 0 0 0 0 0 0 2 0 0 0 0 0 1 0 -1 -1 -1 -1 0 0 0 0 0 0 0 
0
TEXT
8
DBLAYERS
10
0
20
-18.288
40
1.778
1
Layer_4:=4 0 0 0 0 0 0 0 0 0 0 2 0 0 0 0 0 1 0 -1 -1 -1 -1 0 0 0 0 0 0 0 
0
TEXT
8
DBLAYERS
10
0
20
-21.336
40
1.778
1
Layer_5:=5 0 0 0 0 0 0 0 0 0 0 2 0 0 0 0 0 1 0 -1 -1 -1 -1 0 0 0 0 0 0 0 
0
TEXT
8
DBLAYERS
10
0
20
-24.384
40
1.778
1
Layer_6:=6 0 0 0 0 0 0 0 0 0 0 2 0 0 0 0 0 1 0 -1 -1 -1 -1 0 0 0 0 0 0 0 
0
TEXT
8
DBLAYERS
10
0
20
-27.432
40
1.778
1
Layer_7:=7 0 0 0 0 0 0 0 0 0 0 2 0 0 0 0 0 1 0 -1 -1 -1 -1 0 0 0 0 0 0 0 
0
TEXT
8
DBLAYERS
10
0
20
-30.48
40
1.778
1
Layer_8:=8 0 0 0 0 0 0 0 0 0 0 2 0 0 0 0 0 1 0 -1 -1 -1 -1 0 0 0 0 0 0 0 
0
TEXT
8
DBLAYERS
10
0
20
-33.528
40
1.778
1
Layer_9:=9 0 0 0 0 0 0 0 0 0 0 2 0 0 0 0 0 1 0 -1 -1 -1 -1 0 0 0 0 0 0 0 
0
TEXT
8
DBLAYERS
10
0
20
-36.576
40
1.778
1
Layer_10:=10 0 0 0 0 0 0 0 0 0 0 2 0 0 0 0 0 1 0 -1 -1 -1 -1 0 0 0 0 0 0 0 
0
TEXT
8
DBLAYERS
10
0
20
-39.624
40
1.778
1
Layer_11:=11 0 0 0 0 0 0 0 0 0 0 2 0 0 0 0 0 1 0 -1 -1 -1 -1 0 0 0 0 0 0 0 
0
TEXT
8
DBLAYERS
10
0
20
-42.672
40
1.778
1
Layer_12:=12 0 0 0 0 0 0 0 0 0 0 2 0 0 0 0 0 1 0 -1 -1 -1 -1 0 0 0 0 0 0 0 
0
TEXT
8
DBLAYERS
10
0
20
-45.72
40
1.778
1
Layer_13:=13 0 0 0 0 0 0 0 0 0 0 2 0 0 0 0 0 1 0 -1 -1 -1 -1 0 0 0 0 0 0 0 
0
TEXT
8
DBLAYERS
10
0
20
-48.768
40
1.778
1
Layer_14:=14 0 0 0 0 0 0 0 0 0 0 2 0 0 0 0 0 1 0 -1 -1 -1 -1 0 0 0 0 0 0 0 
0
TEXT
8
DBLAYERS
10
0
20
-51.816
40
1.778
1
Layer_15:=15 0 0 0 0 0 0 0 0 0 0 2 0 0 0 0 0 1 0 -1 -1 -1 -1 0 0 0 0 0 0 0 
0
TEXT
8
DBLAYERS
10
0
20
-54.864
40
1.778
1
Layer_16:=16 0 0 0 0 0 0 0 0 0 0 2 0 0 0 0 0 1 0 -1 -1 -1 -1 0 0 0 0 0 0 0 
0
TEXT
8
DBLAYERS
10
0
20
-57.912
40
1.778
1
Layer_17:=17 0 0 0 0 0 0 0 0 0 0 2 0 0 0 0 0 1 0 -1 -1 -1 -1 0 0 0 0 0 0 0 
0
TEXT
8
DBLAYERS
10
0
20
-60.96
40
1.778
1
Layer_18:=18 0 0 0 0 0 0 0 0 0 0 2 0 0 0 0 0 1 0 -1 -1 -1 -1 0 0 0 0 0 0 0 
0
TEXT
8
DBLAYERS
10
0
20
-64.008
40
1.778
1
Layer_19:=19 0 0 0 0 0 0 0 0 0 0 2 0 0 0 0 0 1 0 -1 -1 -1 -1 0 0 0 0 0 0 0 
0
TEXT
8
DBLAYERS
10
0
20
-67.056
40
1.778
1
Layer_20:=20 0 0 0 0 0 0 0 0 0 0 2 0 0 0 0 0 1 0 -1 -1 -1 -1 0 0 0 0 0 0 0 
0
TEXT
8
DBLAYERS
10
0
20
-70.104
40
1.778
1
Layer_21:=21 0 0 0 0 0 0 0 0 0 0 2 0 0 0 0 0 1 0 -1 -1 -1 -1 0 0 0 0 0 0 0 
0
TEXT
8
DBLAYERS
10
0
20
-73.152
40
1.778
1
Layer_22:=22 0 0 0 0 0 0 0 0 0 0 2 0 0 0 0 0 1 0 -1 -1 -1 -1 0 0 0 0 0 0 0 
0
TEXT
8
DBLAYERS
10
0
20
-76.2
40
1.778
1
Layer_23:=23 0 0 0 0 0 0 0 0 0 0 2 0 0 0 0 0 1 0 -1 -1 -1 -1 0 0 0 0 0 0 0 
0
TEXT
8
DBLAYERS
10
0
20
-79.248
40
1.778
1
Layer_24:=24 0 0 0 0 0 0 0 0 0 0 2 0 0 0 0 0 1 0 -1 -1 -1 -1 0 0 0 0 0 0 0 
0
TEXT
8
DBLAYERS
10
0
20
-82.296
40
1.778
1
Layer_25:=25 0 0 0 0 0 0 0 0 0 0 2 0 0 0 0 0 1 0 -1 -1 -1 -1 0 0 0 0 0 0 0 
0
TEXT
8
DBLAYERS
10
0
20
-85.344
40
1.778
1
Layer_26:=26 0 0 0 0 0 0 0 0 0 0 2 0 0 0 0 0 1 0 -1 -1 -1 -1 0 0 0 0 0 0 0 
0
TEXT
8
DBLAYERS
10
0
20
-88.392
40
1.778
1
Layer_27:=27 0 0 0 0 0 0 0 0 0 0 2 0 0 0 0 0 1 0 -1 -1 -1 -1 0 0 0 0 0 0 0 
0
TEXT
8
DBLAYERS
10
0
20
-91.44
40
1.778
1
Layer_28:=28 0 0 0 0 0 0 0 0 0 0 2 0 0 0 0 0 1 0 -1 -1 -1 -1 0 0 0 0 0 0 0 
0
TEXT
8
DBLAYERS
10
0
20
-94.488
40
1.778
1
Layer_29:=29 0 0 0 0 0 0 0 0 0 0 2 0 0 0 0 0 1 0 -1 -1 -1 -1 0 0 0 0 0 0 0 
0
TEXT
8
DBLAYERS
10
0
20
-97.536
40
1.778
1
Layer_30:=30 0 0 0 0 0 0 0 0 0 0 2 0 0 0 0 0 1 0 -1 -1 -1 -1 0 0 0 0 0 0 0 
0
TEXT
8
DBLAYERS
10
0
20
-100.584
40
1.778
1
Layer_31:=31 0 0 0 0 0 0 0 0 0 0 2 0 0 0 0 0 1 0 -1 -1 -1 -1 0 0 0 0 0 0 0 
0
TEXT
8
DBLAYERS
10
0
20
-103.632
40
1.778
1
Layer_32:=32 0 0 0 0 0 0 0 0 0 0 2 0 0 0 0 0 1 0 -1 -1 -1 -1 0 0 0 0 0 0 0 
0
TEXT
8
DBLAYERS
10
0
20
-106.68
40
1.778
1
Layer_33:=33 0 0 0 0 0 0 0 0 0 0 2 0 0 0 0 0 1 0 -1 -1 -1 -1 0 0 0 0 0 0 0 
0
TEXT
8
DBLAYERS
10
0
20
-109.728
40
1.778
1
Layer_34:=34 0 0 0 0 0 0 0 0 0 0 2 0 0 0 0 0 1 0 -1 -1 -1 -1 0 0 0 0 0 0 0 
0
TEXT
8
DBLAYERS
10
0
20
-112.776
40
1.778
1
Layer_35:=35 0 0 0 0 0 0 0 0 0 0 2 0 0 0 0 0 1 0 -1 -1 -1 -1 0 0 0 0 0 0 0 
0
TEXT
8
DBLAYERS
10
0
20
-115.824
40
1.778
1
Layer_36:=36 0 0 0 0 0 0 0 0 0 0 2 0 0 0 0 0 1 0 -1 -1 -1 -1 0 0 0 0 0 0 0 
0
TEXT
8
DBLAYERS
10
0
20
-118.872
40
1.778
1
Layer_37:=37 0 0 0 0 0 0 0 0 0 0 2 0 0 0 0 0 1 0 -1 -1 -1 -1 0 0 0 0 0 0 0 
0
TEXT
8
DBLAYERS
10
0
20
-121.92
40
1.778
1
Layer_38:=38 0 0 0 0 0 0 0 0 0 0 2 0 0 0 0 0 1 0 -1 -1 -1 -1 0 0 0 0 0 0 0 
0
TEXT
8
DBLAYERS
10
0
20
-124.968
40
1.778
1
Layer_39:=39 0 0 0 0 0 0 0 0 0 0 2 0 0 0 0 0 1 0 -1 -1 -1 -1 0 0 0 0 0 0 0 
0
TEXT
8
DBLAYERS
10
0
20
-128.016
40
1.778
1
Layer_40:=40 0 0 0 0 0 0 0 0 0 0 2 0 0 0 0 0 1 0 -1 -1 -1 -1 0 0 0 0 0 0 0 
0
TEXT
8
DBLAYERS
10
0
20
-131.064
40
1.778
1
Layer_41:=41 0 0 0 0 0 0 0 0 0 0 2 0 0 0 0 0 1 0 -1 -1 -1 -1 0 0 0 0 0 0 0 
0
TEXT
8
DBLAYERS
10
0
20
-134.112
40
1.778
1
Layer_42:=42 0 0 0 0 0 0 0 0 0 0 2 0 0 0 0 0 1 0 -1 -1 -1 -1 0 0 0 0 0 0 0 
0
TEXT
8
DBLAYERS
10
0
20
-137.16
40
1.778
1
Layer_43:=43 0 0 0 0 0 0 0 0 0 0 2 0 0 0 0 0 1 0 -1 -1 -1 -1 0 0 0 0 0 0 0 
0
TEXT
8
DBLAYERS
10
0
20
-140.208
40
1.778
1
Layer_44:=44 0 0 0 0 0 0 0 0 0 0 2 0 0 0 0 0 1 0 -1 -1 -1 -1 0 0 0 0 0 0 0 
0
TEXT
8
DBLAYERS
10
0
20
-143.256
40
1.778
1
Layer_45:=45 0 0 0 0 0 0 0 0 0 0 2 0 0 0 0 0 1 0 -1 -1 -1 -1 0 0 0 0 0 0 0 
0
TEXT
8
DBLAYERS
10
0
20
-146.304
40
1.778
1
Layer_46:=46 0 0 0 0 0 0 0 0 0 0 2 0 0 0 0 0 1 0 -1 -1 -1 -1 0 0 0 0 0 0 0 
0
TEXT
8
DBLAYERS
10
0
20
-149.352
40
1.778
1
Layer_47:=47 0 0 0 0 0 0 0 0 0 0 2 0 0 0 0 0 1 0 -1 -1 -1 -1 0 0 0 0 0 0 0 
0
TEXT
8
DBLAYERS
10
0
20
-152.4
40
1.778
1
Layer_48:=48 0 0 0 0 0 0 0 0 0 0 2 0 0 0 0 0 1 0 -1 -1 -1 -1 0 0 0 0 0 0 0 
0
TEXT
8
DBLAYERS
10
0
20
-155.448
40
1.778
1
Layer_49:=49 0 0 0 0 0 0 0 0 0 0 2 0 0 0 0 0 1 0 -1 -1 -1 -1 0 0 0 0 0 0 0 
0
TEXT
8
DBLAYERS
10
0
20
-158.496
40
1.778
1
Layer_50:=50 0 0 0 0 0 0 0 0 0 0 2 0 0 0 0 0 1 0 -1 -1 -1 -1 0 0 0 0 0 0 0 
0
TEXT
8
DBLAYERS
10
0
20
-161.544
40
1.778
1
Layer_51:=51 0 0 0 0 0 0 0 0 0 0 2 0 0 0 0 0 1 0 -1 -1 -1 -1 0 0 0 0 0 0 0 
0
TEXT
8
DBLAYERS
10
0
20
-164.592
40
1.778
1
Layer_52:=52 0 0 0 0 0 0 0 0 0 0 2 0 0 0 0 0 1 0 -1 -1 -1 -1 0 0 0 0 0 0 0 
0
TEXT
8
DBLAYERS
10
0
20
-167.64
40
1.778
1
Layer_53:=53 0 0 0 0 0 0 0 0 0 0 2 0 0 0 0 0 1 0 -1 -1 -1 -1 0 0 0 0 0 0 0 
0
TEXT
8
DBLAYERS
10
0
20
-170.688
40
1.778
1
Layer_54:=54 0 0 0 0 0 0 0 0 0 0 2 0 0 0 0 0 1 0 -1 -1 -1 -1 0 0 0 0 0 0 0 
0
TEXT
8
DBLAYERS
10
0
20
-173.736
40
1.778
1
Layer_55:=55 0 0 0 0 0 0 0 0 0 0 2 0 0 0 0 0 1 0 -1 -1 -1 -1 0 0 0 0 0 0 0 
0
TEXT
8
DBLAYERS
10
0
20
-176.784
40
1.778
1
Layer_56:=56 0 0 0 0 0 0 0 0 0 0 2 0 0 0 0 0 1 0 -1 -1 -1 -1 0 0 0 0 0 0 0 
0
TEXT
8
DBLAYERS
10
0
20
-179.832
40
1.778
1
Layer_57:=57 0 0 0 0 0 0 0 0 0 0 2 0 0 0 0 0 1 0 -1 -1 -1 -1 0 0 0 0 0 0 0 
0
TEXT
8
DBLAYERS
10
0
20
-182.88
40
1.778
1
Layer_58:=58 0 0 0 0 0 0 0 0 0 0 2 0 0 0 0 0 1 0 -1 -1 -1 -1 0 0 0 0 0 0 0 
0
TEXT
8
DBLAYERS
10
0
20
-185.928
40
1.778
1
Layer_59:=59 0 0 0 0 0 0 0 0 0 0 2 0 0 0 0 0 1 0 -1 -1 -1 -1 0 0 0 0 0 0 0 
0
TEXT
8
DBLAYERS
10
0
20
-188.976
40
1.778
1
Layer_60:=60 0 0 0 0 0 0 0 0 0 0 2 0 0 0 0 0 1 0 -1 -1 -1 -1 0 0 0 0 0 0 0 
0
TEXT
8
DBLAYERS
10
0
20
-192.024
40
1.778
1
Layer_61:=61 0 0 0 0 0 0 0 0 0 0 2 0 0 0 0 0 1 0 -1 -1 -1 -1 0 0 0 0 0 0 0 
0
TEXT
8
DBLAYERS
10
0
20
-195.072
40
1.778
1
Layer_62:=62 0 0 0 0 0 0 0 0 0 0 2 0 0 0 0 0 1 0 -1 -1 -1 -1 0 0 0 0 0 0 0 
0
TEXT
8
DBLAYERS
10
0
20
-198.12
40
1.778
1
Layer_63:=63 0 0 0 0 0 0 0 0 0 0 2 0 0 0 0 0 1 0 -1 -1 -1 -1 0 0 0 0 0 0 0 
0
TEXT
8
DBLAYERS
10
0
20
-201.168
40
1.778
1
Layer_64:=64 0 0 0 0 0 0 0 0 0 0 2 0 0 0 0 0 1 0 -1 -1 -1 -1 0 0 0 0 0 0 0 
0
TEXT
8
DBLAYERS
10
0
20
-204.216
40
1.778
1
Layer_65:=65 0 0 0 0 0 0 0 0 0 0 2 0 0 0 0 0 1 0 -1 -1 -1 -1 0 0 0 0 0 0 0 
0
TEXT
8
DBLAYERS
10
0
20
-207.264
40
1.778
1
Layer_66:=66 0 0 0 0 0 0 0 0 0 0 2 0 0 0 0 0 1 0 -1 -1 -1 -1 0 0 0 0 0 0 0 
0
TEXT
8
DBLAYERS
10
0
20
-210.312
40
1.778
1
Layer_67:=67 0 0 0 0 0 0 0 0 0 0 2 0 0 0 0 0 1 0 -1 -1 -1 -1 0 0 0 0 0 0 0 
0
TEXT
8
DBLAYERS
10
0
20
-213.36
40
1.778
1
Layer_68:=68 0 0 0 0 0 0 0 0 0 0 2 0 0 0 0 0 1 0 -1 -1 -1 -1 0 0 0 0 0 0 0 
0
TEXT
8
DBLAYERS
10
0
20
-216.408
40
1.778
1
Layer_69:=69 0 0 0 0 0 0 0 0 0 0 2 0 0 0 0 0 1 0 -1 -1 -1 -1 0 0 0 0 0 0 0 
0
TEXT
8
DBLAYERS
10
0
20
-219.456
40
1.778
1
Layer_70:=70 0 0 0 0 0 0 0 0 0 0 2 0 0 0 0 0 1 0 -1 -1 -1 -1 0 0 0 0 0 0 0 
0
TEXT
8
DBLAYERS
10
0
20
-222.504
40
1.778
1
Layer_71:=71 0 0 0 0 0 0 0 0 0 0 2 0 0 0 0 0 1 0 -1 -1 -1 -1 0 0 0 0 0 0 0 
0
TEXT
8
DBLAYERS
10
0
20
-225.552
40
1.778
1
Layer_72:=72 0 0 0 0 0 0 0 0 0 0 2 0 0 0 0 0 1 0 -1 -1 -1 -1 0 0 0 0 0 0 0 
0
TEXT
8
DBLAYERS
10
0
20
-228.6
40
1.778
1
Layer_73:=73 0 0 0 0 0 0 0 0 0 0 2 0 0 0 0 0 1 0 -1 -1 -1 -1 0 0 0 0 0 0 0 
0
TEXT
8
DBLAYERS
10
0
20
-231.648
40
1.778
1
Layer_74:=74 0 0 0 0 0 0 0 0 0 0 2 0 0 0 0 0 1 0 -1 -1 -1 -1 0 0 0 0 0 0 0 
0
TEXT
8
DBLAYERS
10
0
20
-234.696
40
1.778
1
Layer_75:=75 0 0 0 0 0 0 0 0 0 0 2 0 0 0 0 0 1 0 -1 -1 -1 -1 0 0 0 0 0 0 0 
0
TEXT
8
DBLAYERS
10
0
20
-237.744
40
1.778
1
Layer_76:=76 0 0 0 0 0 0 0 0 0 0 2 0 0 0 0 0 1 0 -1 -1 -1 -1 0 0 0 0 0 0 0 
0
TEXT
8
DBLAYERS
10
0
20
-240.792
40
1.778
1
Layer_77:=77 0 0 0 0 0 0 0 0 0 0 2 0 0 0 0 0 1 0 -1 -1 -1 -1 0 0 0 0 0 0 0 
0
TEXT
8
DBLAYERS
10
0
20
-243.84
40
1.778
1
Layer_78:=78 0 0 0 0 0 0 0 0 0 0 2 0 0 0 0 0 1 0 -1 -1 -1 -1 0 0 0 0 0 0 0 
0
TEXT
8
DBLAYERS
10
0
20
-246.888
40
1.778
1
Layer_79:=79 0 0 0 0 0 0 0 0 0 0 2 0 0 0 0 0 1 0 -1 -1 -1 -1 0 0 0 0 0 0 0 
0
TEXT
8
DBLAYERS
10
0
20
-249.936
40
1.778
1
Layer_80:=80 0 0 0 0 0 0 0 0 0 0 2 0 0 0 0 0 1 0 -1 -1 -1 -1 0 0 0 0 0 0 0 
0
TEXT
8
DBLAYERS
10
0
20
-252.984
40
1.778
1
Layer_81:=81 0 0 0 0 0 0 0 0 0 0 2 0 0 0 0 0 1 0 -1 -1 -1 -1 0 0 0 0 0 0 0 
0
TEXT
8
DBLAYERS
10
0
20
-256.032
40
1.778
1
Layer_82:=82 0 0 0 0 0 0 0 0 0 0 2 0 0 0 0 0 1 0 -1 -1 -1 -1 0 0 0 0 0 0 0 
0
TEXT
8
DBLAYERS
10
0
20
-259.08
40
1.778
1
Layer_83:=83 0 0 0 0 0 0 0 0 0 0 2 0 0 0 0 0 1 0 -1 -1 -1 -1 0 0 0 0 0 0 0 
0
TEXT
8
DBLAYERS
10
0
20
-262.128
40
1.778
1
Layer_84:=84 0 0 0 0 0 0 0 0 0 0 2 0 0 0 0 0 1 0 -1 -1 -1 -1 0 0 0 0 0 0 0 
0
TEXT
8
DBLAYERS
10
0
20
-265.176
40
1.778
1
Layer_85:=85 0 0 0 0 0 0 0 0 0 0 2 0 0 0 0 0 1 0 -1 -1 -1 -1 0 0 0 0 0 0 0 
0
TEXT
8
DBLAYERS
10
0
20
-268.224
40
1.778
1
Layer_86:=86 0 0 0 0 0 0 0 0 0 0 2 0 0 0 0 0 1 0 -1 -1 -1 -1 0 0 0 0 0 0 0 
0
TEXT
8
DBLAYERS
10
0
20
-271.272
40
1.778
1
Layer_87:=87 0 0 0 0 0 0 0 0 0 0 2 0 0 0 0 0 1 0 -1 -1 -1 -1 0 0 0 0 0 0 0 
0
TEXT
8
DBLAYERS
10
0
20
-274.32
40
1.778
1
Layer_88:=88 0 0 0 0 0 0 0 0 0 0 2 0 0 0 0 0 1 0 -1 -1 -1 -1 0 0 0 0 0 0 0 
0
TEXT
8
DBLAYERS
10
0
20
-277.368
40
1.778
1
Layer_89:=89 0 0 0 0 0 0 0 0 0 0 2 0 0 0 0 0 1 0 -1 -1 -1 -1 0 0 0 0 0 0 0 
0
TEXT
8
DBLAYERS
10
0
20
-280.416
40
1.778
1
Layer_90:=90 0 0 0 0 0 0 0 0 0 0 2 0 0 0 0 0 1 0 -1 -1 -1 -1 0 0 0 0 0 0 0 
0
TEXT
8
DBLAYERS
10
0
20
-283.464
40
1.778
1
Layer_91:=91 0 0 0 0 0 0 0 0 0 0 2 0 0 0 0 0 1 0 -1 -1 -1 -1 0 0 0 0 0 0 0 
0
TEXT
8
DBLAYERS
10
0
20
-286.512
40
1.778
1
Layer_92:=92 0 0 0 0 0 0 0 0 0 0 2 0 0 0 0 0 1 0 -1 -1 -1 -1 0 0 0 0 0 0 0 
0
TEXT
8
DBLAYERS
10
0
20
-289.56
40
1.778
1
Layer_93:=93 0 0 0 0 0 0 0 0 0 0 2 0 0 0 0 0 1 0 -1 -1 -1 -1 0 0 0 0 0 0 0 
0
TEXT
8
DBLAYERS
10
0
20
-292.608
40
1.778
1
Layer_94:=94 0 0 0 0 0 0 0 0 0 0 2 0 0 0 0 0 1 0 -1 -1 -1 -1 0 0 0 0 0 0 0 
0
TEXT
8
DBLAYERS
10
0
20
-295.656
40
1.778
1
Layer_95:=95 0 0 0 0 0 0 0 0 0 0 2 0 0 0 0 0 1 0 -1 -1 -1 -1 0 0 0 0 0 0 0 
0
TEXT
8
DBLAYERS
10
0
20
-298.704
40
1.778
1
Layer_96:=96 0 0 0 0 0 0 0 0 0 0 2 0 0 0 0 0 1 0 -1 -1 -1 -1 0 0 0 0 0 0 0 
0
TEXT
8
DBLAYERS
10
0
20
-301.752
40
1.778
1
Layer_97:=97 0 0 0 0 0 0 0 0 0 0 2 0 0 0 0 0 1 0 -1 -1 -1 -1 0 0 0 0 0 0 0 
0
TEXT
8
DBLAYERS
10
0
20
-304.8
40
1.778
1
Layer_98:=98 0 0 0 0 0 0 0 0 0 0 2 0 0 0 0 0 1 0 -1 -1 -1 -1 0 0 0 0 0 0 0 
0
TEXT
8
DBLAYERS
10
0
20
-307.848
40
1.778
1
Layer_99:=99 0 0 0 0 0 0 0 0 0 0 2 0 0 0 0 0 1 0 -1 -1 -1 -1 0 0 0 0 0 0 0 
0
TEXT
8
DBLAYERS
10
0
20
-310.896
40
1.778
1
Layer_100:=100 0 0 0 0 0 0 0 0 0 0 2 0 0 0 0 0 1 0 -1 -1 -1 -1 0 0 0 0 0 0 0 
0
TEXT
8
DBLAYERS
10
0
20
-313.944
40
1.778
1
Layer_101:=101 0 0 0 0 0 0 0 0 0 0 2 0 0 0 0 0 1 0 -1 -1 -1 -1 0 0 0 0 0 0 0 
0
TEXT
8
DBLAYERS
10
0
20
-316.992
40
1.778
1
Layer_102:=102 0 0 0 0 0 0 0 0 0 0 2 0 0 0 0 0 1 0 -1 -1 -1 -1 0 0 0 0 0 0 0 
0
TEXT
8
DBLAYERS
10
0
20
-320.04
40
1.778
1
Layer_103:=103 0 0 0 0 0 0 0 0 0 0 2 0 0 0 0 1 1 0 -1 -1 -1 -1 0 0 0 0 0 0 0 
0
TEXT
8
DBLAYERS
10
0
20
-323.088
40
1.778
1
Layer_104:=104 0 0 0 0 0 0 0 0 0 0 2 0 0 0 0 1 1 0 -1 -1 -1 -1 0 0 0 0 0 0 0 
0
TEXT
8
DBLAYERS
10
0
20
-326.136
40
1.778
1
Layer_105:=105 0 0 0 0 0 14 14 0 0 0 2 0 0 0 0 1 1 0 -1 -1 -1 -1 0 0 0 0 0 0 0 
0
TEXT
8
DBLAYERS
10
0
20
-329.184
40
1.778
1
Layer_106:=106 0 0 0 0 0 13 13 0 0 0 2 0 0 0 0 1 1 0 -1 -1 -1 -1 0 0 0 0 0 0 0 
0
TEXT
8
DBLAYERS
10
0
20
-332.232
40
1.778
1
Layer_107:=107 0 0 0 0 0 14 0 0 0 0 2 0 0 0 0 1 1 0 -1 -1 -1 -1 0 0 0 0 0 0 0 
0
TEXT
8
DBLAYERS
10
0
20
-335.28
40
1.778
1
Layer_108:=108 0 0 0 0 0 0 0 0 0 0 2 0 0 0 0 1 1 0 -1 -1 -1 -1 0 0 0 0 0 0 0 
0
TEXT
8
DBLAYERS
10
0
20
-338.328
40
1.778
1
Layer_109:=109 0 0 0 0 0 0 0 0 0 0 2 0 0 0 0 1 1 0 -1 -1 -1 -1 0 0 0 0 0 0 0 
0
TEXT
8
DBLAYERS
10
0
20
-341.376
40
1.778
1
Layer_110:=110 0 0 0 0 0 0 0 0 0 0 2 0 0 0 0 1 1 0 -1 -1 -1 -1 0 0 0 0 0 0 0 
0
TEXT
8
DBLAYERS
10
0
20
-344.424
40
1.778
1
Layer_111:=111 0 0 0 0 0 0 0 0 0 0 2 0 0 0 0 1 1 0 -1 -1 -1 -1 0 0 0 0 0 0 0 
0
TEXT
8
DBLAYERS
10
0
20
-347.472
40
1.778
1
Layer_112:=112 0 0 0 0 0 0 0 0 0 0 2 0 0 0 0 1 1 0 -1 -1 -1 -1 0 0 0 0 0 0 0 
0
TEXT
8
DBLAYERS
10
0
20
-350.52
40
1.778
1
Layer_113:=113 0 0 0 0 0 0 0 0 0 0 2 0 0 0 0 1 1 0 -1 -1 -1 -1 0 0 0 0 0 0 0 
0
TEXT
8
DBLAYERS
10
0
20
-353.568
40
1.778
1
Layer_114:=114 0 0 0 0 0 0 0 0 0 0 2 0 0 0 0 1 1 0 -1 -1 -1 -1 0 0 0 0 0 0 0 
0
TEXT
8
DBLAYERS
10
0
20
-356.616
40
1.778
1
Layer_115:=115 0 0 0 0 0 0 0 0 0 0 2 0 0 0 0 1 1 0 -1 -1 -1 -1 0 0 0 0 0 0 0 
0
TEXT
8
DBLAYERS
10
0
20
-359.664
40
1.778
1
Layer_116:=116 0 0 0 0 0 0 0 0 0 0 2 0 0 0 0 1 1 0 -1 -1 -1 -1 0 0 0 0 0 0 0 
0
TEXT
8
DBLAYERS
10
0
20
-362.712
40
1.778
1
Layer_117:=117 0 0 0 0 0 0 0 0 0 0 2 0 0 0 0 1 1 0 -1 -1 -1 -1 0 0 0 0 0 0 0 
0
TEXT
8
DBLAYERS
10
0
20
-365.76
40
1.778
1
Layer_118:=118 0 0 0 0 0 0 0 0 0 0 2 0 0 0 0 1 1 0 -1 -1 -1 -1 0 0 0 0 0 0 0 
0
TEXT
8
DBLAYERS
10
0
20
-368.808
40
1.778
1
Layer_119:=119 0 0 0 0 25 14 8 0 0 0 2 0 0 0 0 1 1 0 -1 -1 -1 -1 0 0 0 0 0 0 0 
0
TEXT
8
DBLAYERS
10
0
20
-371.856
40
1.778
1
Layer_120:=120 0 0 0 0 0 0 0 0 13 14 2 0 0 0 0 1 1 0 -1 -1 -1 -1 0 0 0 0 0 0 0 
0
TEXT
8
DBLAYERS
10
0
20
-374.904
40
1.778
1
Solder Mask Top:=121 5 0 1 1 1 1 1 0 0 0 2 0 0 0 0 1 1 0 -1 -1 -1 -1 0 0 0 0 0 1 1 
0
TEXT
8
DBLAYERS
10
0
20
-377.952
40
1.778
1
Paste Mask Bottom:=122 4 0 16 16 16 16 16 0 0 0 2 0 0 0 0 1 1 0 -1 -1 -1 -1 0 0 0 0 0 16 16 
0
TEXT
8
DBLAYERS
10
0
20
-381
40
1.778
1
Paste Mask Top:=123 4 0 29 29 29 29 29 0 0 0 2 0 0 0 0 1 1 0 -1 -1 -1 -1 0 0 0 0 0 29 29 
0
TEXT
8
DBLAYERS
10
0
20
-384.048
40
1.778
1
Drill Drawing:=124 2 0 0 0 11 11 11 0 11 11 2 0 0 0 0 1 1 0 -1 -1 -1 -1 0 0 0 0 0 11 11 
0
TEXT
8
DBLAYERS
10
0
20
-387.096
40
1.778
1
Layer_125:=125 0 0 7 7 7 7 7 0 0 0 2 0 0 0 0 1 1 0 -1 -1 -1 -1 0 0 0 0 0 7 7 
0
TEXT
8
DBLAYERS
10
0
20
-390.144
40
1.778
1
Silkscreen Top:=126 3 0 0 0 8 8 8 0 8 0 2 0 0 0 0 1 1 0 -1 -1 -1 -1 0 0 0 8 0 8 8 
0
TEXT
8
DBLAYERS
10
0
20
-393.192
40
1.778
1
Assembly Drawing Top:=127 6 0 0 30 30 30 30 0 30 0 2 0 0 0 0 1 1 0 -1 -1 -1 -1 0 0 0 30 0 30 30 
0
TEXT
8
DBLAYERS
10
0
20
-396.24
40
1.778
1
Solder Mask Bottom:=128 5 0 27 27 27 27 27 0 0 0 2 0 0 0 0 1 1 0 -1 -1 -1 -1 0 0 0 0 0 27 27 
0
TEXT
8
DBLAYERS
10
0
20
-399.288
40
1.778
1
Silkscreen Bottom:=129 3 0 0 0 19 19 19 0 0 19 2 0 0 0 0 1 1 0 -1 -1 -1 -1 0 0 0 19 0 19 19 
0
TEXT
8
DBLAYERS
10
0
20
-402.336
40
1.778
1
Assembly Drawing Bottom:=130 6 0 0 17 17 17 17 0 0 17 2 0 0 0 0 1 1 0 -1 -1 -1 -1 0 0 0 17 0 17 17 
0
TEXT
8
DBLAYERS
10
0
20
-405.384
40
1.778
1
Layer_131:=131 0 0 0 0 0 0 0 0 0 0 2 0 0 0 0 0 1 0 -1 -1 -1 -1 0 0 0 0 0 0 0 
0
TEXT
8
DBLAYERS
10
0
20
-408.432
40
1.778
1
Layer_132:=132 0 0 0 0 0 0 0 0 0 0 2 0 0 0 0 0 1 0 -1 -1 -1 -1 0 0 0 0 0 0 0 
0
TEXT
8
DBLAYERS
10
0
20
-411.48
40
1.778
1
Layer_133:=133 0 0 0 0 0 0 0 0 0 0 2 0 0 0 0 0 1 0 -1 -1 -1 -1 0 0 0 0 0 0 0 
0
TEXT
8
DBLAYERS
10
0
20
-414.528
40
1.778
1
Layer_134:=134 0 0 0 0 0 0 0 0 0 0 2 0 0 0 0 0 1 0 -1 -1 -1 -1 0 0 0 0 0 0 0 
0
TEXT
8
DBLAYERS
10
0
20
-417.576
40
1.778
1
Layer_135:=135 0 0 0 0 0 0 0 0 0 0 2 0 0 0 0 0 1 0 -1 -1 -1 -1 0 0 0 0 0 0 0 
0
TEXT
8
DBLAYERS
10
0
20
-420.624
40
1.778
1
Layer_136:=136 0 0 0 0 0 0 0 0 0 0 2 0 0 0 0 0 1 0 -1 -1 -1 -1 0 0 0 0 0 0 0 
0
TEXT
8
DBLAYERS
10
0
20
-423.672
40
1.778
1
Layer_137:=137 0 0 0 0 0 0 0 0 0 0 2 0 0 0 0 0 1 0 -1 -1 -1 -1 0 0 0 0 0 0 0 
0
TEXT
8
DBLAYERS
10
0
20
-426.72
40
1.778
1
Layer_138:=138 0 0 0 0 0 0 0 0 0 0 2 0 0 0 0 0 1 0 -1 -1 -1 -1 0 0 0 0 0 0 0 
0
TEXT
8
DBLAYERS
10
0
20
-429.768
40
1.778
1
Layer_139:=139 0 0 0 0 0 0 0 0 0 0 2 0 0 0 0 0 1 0 -1 -1 -1 -1 0 0 0 0 0 0 0 
0
TEXT
8
DBLAYERS
10
0
20
-432.816
40
1.778
1
Layer_140:=140 0 0 0 0 0 0 0 0 0 0 2 0 0 0 0 0 1 0 -1 -1 -1 -1 0 0 0 0 0 0 0 
0
TEXT
8
DBLAYERS
10
0
20
-435.864
40
1.778
1
Layer_141:=141 0 0 0 0 0 0 0 0 0 0 2 0 0 0 0 0 1 0 -1 -1 -1 -1 0 0 0 0 0 0 0 
0
TEXT
8
DBLAYERS
10
0
20
-438.912
40
1.778
1
Layer_142:=142 0 0 0 0 0 0 0 0 0 0 2 0 0 0 0 0 1 0 -1 -1 -1 -1 0 0 0 0 0 0 0 
0
TEXT
8
DBLAYERS
10
0
20
-441.96
40
1.778
1
Layer_143:=143 0 0 0 0 0 0 0 0 0 0 2 0 0 0 0 0 1 0 -1 -1 -1 -1 0 0 0 0 0 0 0 
0
TEXT
8
DBLAYERS
10
0
20
-445.008
40
1.778
1
Layer_144:=144 0 0 0 0 0 0 0 0 0 0 2 0 0 0 0 0 1 0 -1 -1 -1 -1 0 0 0 0 0 0 0 
0
TEXT
8
DBLAYERS
10
0
20
-448.056
40
1.778
1
Layer_145:=145 0 0 0 0 0 0 0 0 0 0 2 0 0 0 0 0 1 0 -1 -1 -1 -1 0 0 0 0 0 0 0 
0
TEXT
8
DBLAYERS
10
0
20
-451.104
40
1.778
1
Layer_146:=146 0 0 0 0 0 0 0 0 0 0 2 0 0 0 0 0 1 0 -1 -1 -1 -1 0 0 0 0 0 0 0 
0
TEXT
8
DBLAYERS
10
0
20
-454.152
40
1.778
1
Layer_147:=147 0 0 0 0 0 0 0 0 0 0 2 0 0 0 0 0 1 0 -1 -1 -1 -1 0 0 0 0 0 0 0 
0
TEXT
8
DBLAYERS
10
0
20
-457.2
40
1.778
1
Layer_148:=148 0 0 0 0 0 0 0 0 0 0 2 0 0 0 0 0 1 0 -1 -1 -1 -1 0 0 0 0 0 0 0 
0
TEXT
8
DBLAYERS
10
0
20
-460.248
40
1.778
1
Layer_149:=149 0 0 0 0 0 0 0 0 0 0 2 0 0 0 0 0 1 0 -1 -1 -1 -1 0 0 0 0 0 0 0 
0
TEXT
8
DBLAYERS
10
0
20
-463.296
40
1.778
1
Layer_150:=150 0 0 0 0 0 0 0 0 0 0 2 0 0 0 0 0 1 0 -1 -1 -1 -1 0 0 0 0 0 0 0 
0
TEXT
8
DBLAYERS
10
0
20
-466.344
40
1.778
1
Layer_151:=151 0 0 0 0 0 0 0 0 0 0 2 0 0 0 0 0 1 0 -1 -1 -1 -1 0 0 0 0 0 0 0 
0
TEXT
8
DBLAYERS
10
0
20
-469.392
40
1.778
1
Layer_152:=152 0 0 0 0 0 0 0 0 0 0 2 0 0 0 0 0 1 0 -1 -1 -1 -1 0 0 0 0 0 0 0 
0
TEXT
8
DBLAYERS
10
0
20
-472.44
40
1.778
1
Layer_153:=153 0 0 0 0 0 0 0 0 0 0 2 0 0 0 0 0 1 0 -1 -1 -1 -1 0 0 0 0 0 0 0 
0
TEXT
8
DBLAYERS
10
0
20
-475.488
40
1.778
1
Layer_154:=154 0 0 0 0 0 0 0 0 0 0 2 0 0 0 0 0 1 0 -1 -1 -1 -1 0 0 0 0 0 0 0 
0
TEXT
8
DBLAYERS
10
0
20
-478.536
40
1.778
1
Layer_155:=155 0 0 0 0 0 0 0 0 0 0 2 0 0 0 0 0 1 0 -1 -1 -1 -1 0 0 0 0 0 0 0 
0
TEXT
8
DBLAYERS
10
0
20
-481.584
40
1.778
1
Layer_156:=156 0 0 0 0 0 0 0 0 0 0 2 0 0 0 0 0 1 0 -1 -1 -1 -1 0 0 0 0 0 0 0 
0
TEXT
8
DBLAYERS
10
0
20
-484.632
40
1.778
1
Layer_157:=157 0 0 0 0 0 0 0 0 0 0 2 0 0 0 0 0 1 0 -1 -1 -1 -1 0 0 0 0 0 0 0 
0
TEXT
8
DBLAYERS
10
0
20
-487.68
40
1.778
1
Layer_158:=158 0 0 0 0 0 0 0 0 0 0 2 0 0 0 0 0 1 0 -1 -1 -1 -1 0 0 0 0 0 0 0 
0
TEXT
8
DBLAYERS
10
0
20
-490.728
40
1.778
1
Layer_159:=159 0 0 0 0 0 0 0 0 0 0 2 0 0 0 0 0 1 0 -1 -1 -1 -1 0 0 0 0 0 0 0 
0
TEXT
8
DBLAYERS
10
0
20
-493.776
40
1.778
1
Layer_160:=160 0 0 0 0 0 0 0 0 0 0 2 0 0 0 0 0 1 0 -1 -1 -1 -1 0 0 0 0 0 0 0 
0
TEXT
8
DBLAYERS
10
0
20
-496.824
40
1.778
1
Layer_161:=161 0 0 0 0 0 0 0 0 0 0 2 0 0 0 0 0 1 0 -1 -1 -1 -1 0 0 0 0 0 0 0 
0
TEXT
8
DBLAYERS
10
0
20
-499.872
40
1.778
1
Layer_162:=162 0 0 0 0 0 0 0 0 0 0 2 0 0 0 0 0 1 0 -1 -1 -1 -1 0 0 0 0 0 0 0 
0
TEXT
8
DBLAYERS
10
0
20
-502.92
40
1.778
1
Layer_163:=163 0 0 0 0 0 0 0 0 0 0 2 0 0 0 0 0 1 0 -1 -1 -1 -1 0 0 0 0 0 0 0 
0
TEXT
8
DBLAYERS
10
0
20
-505.968
40
1.778
1
Layer_164:=164 0 0 0 0 0 0 0 0 0 0 2 0 0 0 0 0 1 0 -1 -1 -1 -1 0 0 0 0 0 0 0 
0
TEXT
8
DBLAYERS
10
0
20
-509.016
40
1.778
1
Layer_165:=165 0 0 0 0 0 0 0 0 0 0 2 0 0 0 0 0 1 0 -1 -1 -1 -1 0 0 0 0 0 0 0 
0
TEXT
8
DBLAYERS
10
0
20
-512.064
40
1.778
1
Layer_166:=166 0 0 0 0 0 0 0 0 0 0 2 0 0 0 0 0 1 0 -1 -1 -1 -1 0 0 0 0 0 0 0 
0
TEXT
8
DBLAYERS
10
0
20
-515.112
40
1.778
1
Layer_167:=167 0 0 0 0 0 0 0 0 0 0 2 0 0 0 0 0 1 0 -1 -1 -1 -1 0 0 0 0 0 0 0 
0
TEXT
8
DBLAYERS
10
0
20
-518.16
40
1.778
1
Layer_168:=168 0 0 0 0 0 0 0 0 0 0 2 0 0 0 0 0 1 0 -1 -1 -1 -1 0 0 0 0 0 0 0 
0
TEXT
8
DBLAYERS
10
0
20
-521.208
40
1.778
1
Layer_169:=169 0 0 0 0 0 0 0 0 0 0 2 0 0 0 0 0 1 0 -1 -1 -1 -1 0 0 0 0 0 0 0 
0
TEXT
8
DBLAYERS
10
0
20
-524.256
40
1.778
1
Layer_170:=170 0 0 0 0 0 0 0 0 0 0 2 0 0 0 0 0 1 0 -1 -1 -1 -1 0 0 0 0 0 0 0 
0
TEXT
8
DBLAYERS
10
0
20
-527.304
40
1.778
1
Layer_171:=171 0 0 0 0 0 0 0 0 0 0 2 0 0 0 0 0 1 0 -1 -1 -1 -1 0 0 0 0 0 0 0 
0
TEXT
8
DBLAYERS
10
0
20
-530.352
40
1.778
1
Layer_172:=172 0 0 0 0 0 0 0 0 0 0 2 0 0 0 0 0 1 0 -1 -1 -1 -1 0 0 0 0 0 0 0 
0
TEXT
8
DBLAYERS
10
0
20
-533.4
40
1.778
1
Layer_173:=173 0 0 0 0 0 0 0 0 0 0 2 0 0 0 0 0 1 0 -1 -1 -1 -1 0 0 0 0 0 0 0 
0
TEXT
8
DBLAYERS
10
0
20
-536.448
40
1.778
1
Layer_174:=174 0 0 0 0 0 0 0 0 0 0 2 0 0 0 0 0 1 0 -1 -1 -1 -1 0 0 0 0 0 0 0 
0
TEXT
8
DBLAYERS
10
0
20
-539.496
40
1.778
1
Layer_175:=175 0 0 0 0 0 0 0 0 0 0 2 0 0 0 0 0 1 0 -1 -1 -1 -1 0 0 0 0 0 0 0 
0
TEXT
8
DBLAYERS
10
0
20
-542.544
40
1.778
1
Layer_176:=176 0 0 0 0 0 0 0 0 0 0 2 0 0 0 0 0 1 0 -1 -1 -1 -1 0 0 0 0 0 0 0 
0
TEXT
8
DBLAYERS
10
0
20
-545.592
40
1.778
1
Layer_177:=177 0 0 0 0 0 0 0 0 0 0 2 0 0 0 0 0 1 0 -1 -1 -1 -1 0 0 0 0 0 0 0 
0
TEXT
8
DBLAYERS
10
0
20
-548.64
40
1.778
1
Layer_178:=178 0 0 0 0 0 0 0 0 0 0 2 0 0 0 0 0 1 0 -1 -1 -1 -1 0 0 0 0 0 0 0 
0
TEXT
8
DBLAYERS
10
0
20
-551.688
40
1.778
1
Layer_179:=179 0 0 0 0 0 0 0 0 0 0 2 0 0 0 0 0 1 0 -1 -1 -1 -1 0 0 0 0 0 0 0 
0
TEXT
8
DBLAYERS
10
0
20
-554.736
40
1.778
1
Layer_180:=180 0 0 0 0 0 0 0 0 0 0 2 0 0 0 0 0 1 0 -1 -1 -1 -1 0 0 0 0 0 0 0 
0
TEXT
8
DBLAYERS
10
0
20
-557.784
40
1.778
1
Layer_181:=181 0 0 0 0 0 0 0 0 0 0 2 0 0 0 0 0 1 0 -1 -1 -1 -1 0 0 0 0 0 0 0 
0
TEXT
8
DBLAYERS
10
0
20
-560.832
40
1.778
1
Layer_182:=182 0 0 0 0 0 0 0 0 0 0 2 0 0 0 0 0 1 0 -1 -1 -1 -1 0 0 0 0 0 0 0 
0
TEXT
8
DBLAYERS
10
0
20
-563.88
40
1.778
1
Layer_183:=183 0 0 0 0 0 0 0 0 0 0 2 0 0 0 0 0 1 0 -1 -1 -1 -1 0 0 0 0 0 0 0 
0
TEXT
8
DBLAYERS
10
0
20
-566.928
40
1.778
1
Layer_184:=184 0 0 0 0 0 0 0 0 0 0 2 0 0 0 0 0 1 0 -1 -1 -1 -1 0 0 0 0 0 0 0 
0
TEXT
8
DBLAYERS
10
0
20
-569.976
40
1.778
1
Layer_185:=185 0 0 0 0 0 0 0 0 0 0 2 0 0 0 0 0 1 0 -1 -1 -1 -1 0 0 0 0 0 0 0 
0
TEXT
8
DBLAYERS
10
0
20
-573.024
40
1.778
1
Layer_186:=186 0 0 0 0 0 0 0 0 0 0 2 0 0 0 0 0 1 0 -1 -1 -1 -1 0 0 0 0 0 0 0 
0
TEXT
8
DBLAYERS
10
0
20
-576.072
40
1.778
1
Layer_187:=187 0 0 0 0 0 0 0 0 0 0 2 0 0 0 0 0 1 0 -1 -1 -1 -1 0 0 0 0 0 0 0 
0
TEXT
8
DBLAYERS
10
0
20
-579.12
40
1.778
1
Layer_188:=188 0 0 0 0 0 0 0 0 0 0 2 0 0 0 0 0 1 0 -1 -1 -1 -1 0 0 0 0 0 0 0 
0
TEXT
8
DBLAYERS
10
0
20
-582.168
40
1.778
1
Layer_189:=189 0 0 0 0 0 0 0 0 0 0 2 0 0 0 0 0 1 0 -1 -1 -1 -1 0 0 0 0 0 0 0 
0
TEXT
8
DBLAYERS
10
0
20
-585.216
40
1.778
1
Layer_190:=190 0 0 0 0 0 0 0 0 0 0 2 0 0 0 0 0 1 0 -1 -1 -1 -1 0 0 0 0 0 0 0 
0
TEXT
8
DBLAYERS
10
0
20
-588.264
40
1.778
1
Layer_191:=191 0 0 0 0 0 0 0 0 0 0 2 0 0 0 0 0 1 0 -1 -1 -1 -1 0 0 0 0 0 0 0 
0
TEXT
8
DBLAYERS
10
0
20
-591.312
40
1.778
1
Layer_192:=192 0 0 0 0 0 0 0 0 0 0 2 0 0 0 0 0 1 0 -1 -1 -1 -1 0 0 0 0 0 0 0 
0
TEXT
8
DBLAYERS
10
0
20
-594.36
40
1.778
1
Layer_193:=193 0 0 0 0 0 0 0 0 0 0 2 0 0 0 0 0 1 0 -1 -1 -1 -1 0 0 0 0 0 0 0 
0
TEXT
8
DBLAYERS
10
0
20
-597.408
40
1.778
1
Layer_194:=194 0 0 0 0 0 0 0 0 0 0 2 0 0 0 0 0 1 0 -1 -1 -1 -1 0 0 0 0 0 0 0 
0
TEXT
8
DBLAYERS
10
0
20
-600.456
40
1.778
1
Layer_195:=195 0 0 0 0 0 0 0 0 0 0 2 0 0 0 0 0 1 0 -1 -1 -1 -1 0 0 0 0 0 0 0 
0
TEXT
8
DBLAYERS
10
0
20
-603.504
40
1.778
1
Layer_196:=196 0 0 0 0 0 0 0 0 0 0 2 0 0 0 0 0 1 0 -1 -1 -1 -1 0 0 0 0 0 0 0 
0
TEXT
8
DBLAYERS
10
0
20
-606.552
40
1.778
1
Layer_197:=197 0 0 0 0 0 0 0 0 0 0 2 0 0 0 0 0 1 0 -1 -1 -1 -1 0 0 0 0 0 0 0 
0
TEXT
8
DBLAYERS
10
0
20
-609.6
40
1.778
1
Layer_198:=198 0 0 0 0 0 0 0 0 0 0 2 0 0 0 0 0 1 0 -1 -1 -1 -1 0 0 0 0 0 0 0 
0
TEXT
8
DBLAYERS
10
0
20
-612.648
40
1.778
1
Layer_199:=199 0 0 0 0 0 0 0 0 0 0 2 0 0 0 0 0 1 0 -1 -1 -1 -1 0 0 0 0 0 0 0 
0
TEXT
8
DBLAYERS
10
0
20
-615.696
40
1.778
1
Layer_200:=200 0 0 0 0 0 0 0 0 0 0 2 0 0 0 0 0 1 0 -1 -1 -1 -1 0 0 0 0 0 0 0 
0
TEXT
8
DBLAYERS
10
0
20
-618.744
40
1.778
1
Layer_201:=201 0 0 0 0 0 0 0 0 0 0 2 0 0 0 0 0 1 0 -1 -1 -1 -1 0 0 0 0 0 0 0 
0
TEXT
8
DBLAYERS
10
0
20
-621.792
40
1.778
1
Layer_202:=202 0 0 0 0 0 0 0 0 0 0 2 0 0 0 0 0 1 0 -1 -1 -1 -1 0 0 0 0 0 0 0 
0
TEXT
8
DBLAYERS
10
0
20
-624.84
40
1.778
1
Layer_203:=203 0 0 0 0 0 0 0 0 0 0 2 0 0 0 0 0 1 0 -1 -1 -1 -1 0 0 0 0 0 0 0 
0
TEXT
8
DBLAYERS
10
0
20
-627.888
40
1.778
1
Layer_204:=204 0 0 0 0 0 0 0 0 0 0 2 0 0 0 0 0 1 0 -1 -1 -1 -1 0 0 0 0 0 0 0 
0
TEXT
8
DBLAYERS
10
0
20
-630.936
40
1.778
1
Layer_205:=205 0 0 0 0 0 0 0 0 0 0 2 0 0 0 0 0 1 0 -1 -1 -1 -1 0 0 0 0 0 0 0 
0
TEXT
8
DBLAYERS
10
0
20
-633.984
40
1.778
1
Layer_206:=206 0 0 0 0 0 0 0 0 0 0 2 0 0 0 0 0 1 0 -1 -1 -1 -1 0 0 0 0 0 0 0 
0
TEXT
8
DBLAYERS
10
0
20
-637.032
40
1.778
1
Layer_207:=207 0 0 0 0 0 0 0 0 0 0 2 0 0 0 0 0 1 0 -1 -1 -1 -1 0 0 0 0 0 0 0 
0
TEXT
8
DBLAYERS
10
0
20
-640.08
40
1.778
1
Layer_208:=208 0 0 0 0 0 0 0 0 0 0 2 0 0 0 0 0 1 0 -1 -1 -1 -1 0 0 0 0 0 0 0 
0
TEXT
8
DBLAYERS
10
0
20
-643.128
40
1.778
1
Layer_209:=209 0 0 0 0 0 0 0 0 0 0 2 0 0 0 0 0 1 0 -1 -1 -1 -1 0 0 0 0 0 0 0 
0
TEXT
8
DBLAYERS
10
0
20
-646.176
40
1.778
1
Layer_210:=210 0 0 0 0 0 0 0 0 0 0 2 0 0 0 0 0 1 0 -1 -1 -1 -1 0 0 0 0 0 0 0 
0
TEXT
8
DBLAYERS
10
0
20
-649.224
40
1.778
1
Layer_211:=211 0 0 0 0 0 0 0 0 0 0 2 0 0 0 0 0 1 0 -1 -1 -1 -1 0 0 0 0 0 0 0 
0
TEXT
8
DBLAYERS
10
0
20
-652.272
40
1.778
1
Layer_212:=212 0 0 0 0 0 0 0 0 0 0 2 0 0 0 0 0 1 0 -1 -1 -1 -1 0 0 0 0 0 0 0 
0
TEXT
8
DBLAYERS
10
0
20
-655.32
40
1.778
1
Layer_213:=213 0 0 0 0 0 0 0 0 0 0 2 0 0 0 0 0 1 0 -1 -1 -1 -1 0 0 0 0 0 0 0 
0
TEXT
8
DBLAYERS
10
0
20
-658.368
40
1.778
1
Layer_214:=214 0 0 0 0 0 0 0 0 0 0 2 0 0 0 0 0 1 0 -1 -1 -1 -1 0 0 0 0 0 0 0 
0
TEXT
8
DBLAYERS
10
0
20
-661.416
40
1.778
1
Layer_215:=215 0 0 0 0 0 0 0 0 0 0 2 0 0 0 0 0 1 0 -1 -1 -1 -1 0 0 0 0 0 0 0 
0
TEXT
8
DBLAYERS
10
0
20
-664.464
40
1.778
1
Layer_216:=216 0 0 0 0 0 0 0 0 0 0 2 0 0 0 0 0 1 0 -1 -1 -1 -1 0 0 0 0 0 0 0 
0
TEXT
8
DBLAYERS
10
0
20
-667.512
40
1.778
1
Layer_217:=217 0 0 0 0 0 0 0 0 0 0 2 0 0 0 0 0 1 0 -1 -1 -1 -1 0 0 0 0 0 0 0 
0
TEXT
8
DBLAYERS
10
0
20
-670.56
40
1.778
1
Layer_218:=218 0 0 0 0 0 0 0 0 0 0 2 0 0 0 0 0 1 0 -1 -1 -1 -1 0 0 0 0 0 0 0 
0
TEXT
8
DBLAYERS
10
0
20
-673.608
40
1.778
1
Layer_219:=219 0 0 0 0 0 0 0 0 0 0 2 0 0 0 0 0 1 0 -1 -1 -1 -1 0 0 0 0 0 0 0 
0
TEXT
8
DBLAYERS
10
0
20
-676.656
40
1.778
1
Layer_220:=220 0 0 0 0 0 0 0 0 0 0 2 0 0 0 0 0 1 0 -1 -1 -1 -1 0 0 0 0 0 0 0 
0
TEXT
8
DBLAYERS
10
0
20
-679.704
40
1.778
1
Layer_221:=221 0 0 0 0 0 0 0 0 0 0 2 0 0 0 0 0 1 0 -1 -1 -1 -1 0 0 0 0 0 0 0 
0
TEXT
8
DBLAYERS
10
0
20
-682.752
40
1.778
1
Layer_222:=222 0 0 0 0 0 0 0 0 0 0 2 0 0 0 0 0 1 0 -1 -1 -1 -1 0 0 0 0 0 0 0 
0
TEXT
8
DBLAYERS
10
0
20
-685.8
40
1.778
1
Layer_223:=223 0 0 0 0 0 0 0 0 0 0 2 0 0 0 0 0 1 0 -1 -1 -1 -1 0 0 0 0 0 0 0 
0
TEXT
8
DBLAYERS
10
0
20
-688.848
40
1.778
1
Layer_224:=224 0 0 0 0 0 0 0 0 0 0 2 0 0 0 0 0 1 0 -1 -1 -1 -1 0 0 0 0 0 0 0 
0
TEXT
8
DBLAYERS
10
0
20
-691.896
40
1.778
1
Layer_225:=225 0 0 0 0 0 0 0 0 0 0 2 0 0 0 0 0 1 0 -1 -1 -1 -1 0 0 0 0 0 0 0 
0
TEXT
8
DBLAYERS
10
0
20
-694.944
40
1.778
1
Layer_226:=226 0 0 0 0 0 0 0 0 0 0 2 0 0 0 0 0 1 0 -1 -1 -1 -1 0 0 0 0 0 0 0 
0
TEXT
8
DBLAYERS
10
0
20
-697.992
40
1.778
1
Layer_227:=227 0 0 0 0 0 0 0 0 0 0 2 0 0 0 0 0 1 0 -1 -1 -1 -1 0 0 0 0 0 0 0 
0
TEXT
8
DBLAYERS
10
0
20
-701.04
40
1.778
1
Layer_228:=228 0 0 0 0 0 0 0 0 0 0 2 0 0 0 0 0 1 0 -1 -1 -1 -1 0 0 0 0 0 0 0 
0
TEXT
8
DBLAYERS
10
0
20
-704.088
40
1.778
1
Layer_229:=229 0 0 0 0 0 0 0 0 0 0 2 0 0 0 0 0 1 0 -1 -1 -1 -1 0 0 0 0 0 0 0 
0
TEXT
8
DBLAYERS
10
0
20
-707.136
40
1.778
1
Layer_230:=230 0 0 0 0 0 0 0 0 0 0 2 0 0 0 0 0 1 0 -1 -1 -1 -1 0 0 0 0 0 0 0 
0
TEXT
8
DBLAYERS
10
0
20
-710.184
40
1.778
1
Layer_231:=231 0 0 0 0 0 0 0 0 0 0 2 0 0 0 0 0 1 0 -1 -1 -1 -1 0 0 0 0 0 0 0 
0
TEXT
8
DBLAYERS
10
0
20
-713.232
40
1.778
1
Layer_232:=232 0 0 0 0 0 0 0 0 0 0 2 0 0 0 0 0 1 0 -1 -1 -1 -1 0 0 0 0 0 0 0 
0
TEXT
8
DBLAYERS
10
0
20
-716.28
40
1.778
1
Layer_233:=233 0 0 0 0 0 0 0 0 0 0 2 0 0 0 0 0 1 0 -1 -1 -1 -1 0 0 0 0 0 0 0 
0
TEXT
8
DBLAYERS
10
0
20
-719.328
40
1.778
1
Layer_234:=234 0 0 0 0 0 0 0 0 0 0 2 0 0 0 0 0 1 0 -1 -1 -1 -1 0 0 0 0 0 0 0 
0
TEXT
8
DBLAYERS
10
0
20
-722.376
40
1.778
1
Layer_235:=235 0 0 0 0 0 0 0 0 0 0 2 0 0 0 0 0 1 0 -1 -1 -1 -1 0 0 0 0 0 0 0 
0
TEXT
8
DBLAYERS
10
0
20
-725.424
40
1.778
1
Layer_236:=236 0 0 0 0 0 0 0 0 0 0 2 0 0 0 0 0 1 0 -1 -1 -1 -1 0 0 0 0 0 0 0 
0
TEXT
8
DBLAYERS
10
0
20
-728.472
40
1.778
1
Layer_237:=237 0 0 0 0 0 0 0 0 0 0 2 0 0 0 0 0 1 0 -1 -1 -1 -1 0 0 0 0 0 0 0 
0
TEXT
8
DBLAYERS
10
0
20
-731.52
40
1.778
1
Layer_238:=238 0 0 0 0 0 0 0 0 0 0 2 0 0 0 0 0 1 0 -1 -1 -1 -1 0 0 0 0 0 0 0 
0
TEXT
8
DBLAYERS
10
0
20
-734.568
40
1.778
1
Layer_239:=239 0 0 0 0 0 0 0 0 0 0 2 0 0 0 0 0 1 0 -1 -1 -1 -1 0 0 0 0 0 0 0 
0
TEXT
8
DBLAYERS
10
0
20
-737.616
40
1.778
1
Layer_240:=240 0 0 0 0 0 0 0 0 0 0 2 0 0 0 0 0 1 0 -1 -1 -1 -1 0 0 0 0 0 0 0 
0
TEXT
8
DBLAYERS
10
0
20
-740.664
40
1.778
1
Layer_241:=241 0 0 0 0 0 0 0 0 0 0 2 0 0 0 0 0 1 0 -1 -1 -1 -1 0 0 0 0 0 0 0 
0
TEXT
8
DBLAYERS
10
0
20
-743.712
40
1.778
1
Layer_242:=242 0 0 0 0 0 0 0 0 0 0 2 0 0 0 0 0 1 0 -1 -1 -1 -1 0 0 0 0 0 0 0 
0
TEXT
8
DBLAYERS
10
0
20
-746.76
40
1.778
1
Layer_243:=243 0 0 0 0 0 0 0 0 0 0 2 0 0 0 0 0 1 0 -1 -1 -1 -1 0 0 0 0 0 0 0 
0
TEXT
8
DBLAYERS
10
0
20
-749.808
40
1.778
1
Layer_244:=244 0 0 0 0 0 0 0 0 0 0 2 0 0 0 0 0 1 0 -1 -1 -1 -1 0 0 0 0 0 0 0 
0
TEXT
8
DBLAYERS
10
0
20
-752.856
40
1.778
1
Layer_245:=245 0 0 0 0 0 0 0 0 0 0 2 0 0 0 0 0 1 0 -1 -1 -1 -1 0 0 0 0 0 0 0 
0
TEXT
8
DBLAYERS
10
0
20
-755.904
40
1.778
1
Layer_246:=246 0 0 0 0 0 0 0 0 0 0 2 0 0 0 0 0 1 0 -1 -1 -1 -1 0 0 0 0 0 0 0 
0
TEXT
8
DBLAYERS
10
0
20
-758.952
40
1.778
1
Layer_247:=247 0 0 0 0 0 0 0 0 0 0 2 0 0 0 0 0 1 0 -1 -1 -1 -1 0 0 0 0 0 0 0 
0
TEXT
8
DBLAYERS
10
0
20
-762
40
1.778
1
Layer_248:=248 0 0 0 0 0 0 0 0 0 0 2 0 0 0 0 0 1 0 -1 -1 -1 -1 0 0 0 0 0 0 0 
0
TEXT
8
DBLAYERS
10
0
20
-765.048
40
1.778
1
Layer_249:=249 0 0 0 0 0 0 0 0 0 0 2 0 0 0 0 0 1 0 -1 -1 -1 -1 0 0 0 0 0 0 0 
0
TEXT
8
DBLAYERS
10
0
20
-768.096
40
1.778
1
Layer_250:=250 0 0 0 0 0 0 0 0 0 0 2 0 0 0 0 0 1 0 -1 -1 -1 -1 0 0 0 0 0 0 0 
0
ENDBLK
999
*** POWERPCB  BOARD ***
0
BLOCK
2
BOARD_2
8
0
10
0
20
0
3
BOARD_2
70
64
0
POLYLINE
8
BOARD_OUTLINE_00
66
1
40
0.2
41
0.2
70
1
0
VERTEX
8
BOARD_OUTLINE_00
10
-62.65
20
92.93742
0
VERTEX
8
BOARD_OUTLINE_00
10
-62.65
20
124.23742
0
VERTEX
8
BOARD_OUTLINE_00
10
-98.3576
20
124.23742
0
VERTEX
8
BOARD_OUTLINE_00
10
-98.3576
20
116.68742
0
VERTEX
8
BOARD_OUTLINE_00
10
-96.2576
20
116.68742
0
VERTEX
8
BOARD_OUTLINE_00
10
-96.2576
20
100.487426
0
VERTEX
8
BOARD_OUTLINE_00
10
-98.3576006667
20
100.487426
0
VERTEX
8
BOARD_OUTLINE_00
10
-98.3576006667
20
92.9374233333
0
SEQEND
0
INSERT
2
SMOOTH_0$2
8
BOARD_OUTLINE_00
10
-62.65
20
92.93742
0
INSERT
2
SMOOTH_0$2
8
BOARD_OUTLINE_00
10
-62.65
20
124.23742
0
INSERT
2
SMOOTH_0$2
8
BOARD_OUTLINE_00
10
-98.3576
20
124.23742
0
INSERT
2
SMOOTH_0$2
8
BOARD_OUTLINE_00
10
-98.3576
20
116.68742
0
INSERT
2
SMOOTH_0$2
8
BOARD_OUTLINE_00
10
-96.2576
20
116.68742
0
INSERT
2
SMOOTH_0$2
8
BOARD_OUTLINE_00
10
-96.2576
20
100.487426
0
INSERT
2
SMOOTH_0$2
8
BOARD_OUTLINE_00
10
-98.3576006667
20
100.487426
0
INSERT
2
SMOOTH_0$2
8
BOARD_OUTLINE_00
10
-98.3576006667
20
92.9374233333
0
ENDBLK
0
BLOCK
2
ATTRIBUTES
8
0
10
0
20
0
3
ATTRIBUTES
70
64
0
TEXT
8
PART_ATTR
10
0
20
-3.048
40
1.778
1
ATTRIBUTES DICTIONARY
0
TEXT
8
PART_ATTR
10
0
20
-6.096
40
1.778
1
ATTRIBUTE Rules.Fanout.Alignment
0
TEXT
8
PART_ATTR
10
0
20
-9.144
40
1.778
1
TYPE LIST N
0
TEXT
8
PART_ATTR
10
0
20
-12.192
40
1.778
1
LIST Aligned
0
TEXT
8
PART_ATTR
10
0
20
-15.24
40
1.778
1
LIST Alternate
0
TEXT
8
PART_ATTR
10
0
20
-18.288
40
1.778
1
INHERITANCE  PCB
0
TEXT
8
PART_ATTR
10
0
20
-21.336
40
1.778
1
INHERITANCE  PART DECAL
0
TEXT
8
PART_ATTR
10
0
20
-24.384
40
1.778
1
ECO_REGISTRATION N
0
TEXT
8
PART_ATTR
10
0
20
-27.432
40
1.778
1
READONLY Y
0
TEXT
8
PART_ATTR
10
0
20
-30.48
40
1.778
1
SYSTEM Y
0
TEXT
8
PART_ATTR
10
0
20
-33.528
40
1.778
1
HIDDEN Y
0
TEXT
8
PART_ATTR
10
0
20
-36.576
40
1.778
1
ATTRIBUTE Rules.Fanout.Alignment.Multi-Row
0
TEXT
8
PART_ATTR
10
0
20
-39.624
40
1.778
1
TYPE BOOLEAN
0
TEXT
8
PART_ATTR
10
0
20
-42.672
40
1.778
1
INHERITANCE  PCB
0
TEXT
8
PART_ATTR
10
0
20
-45.72
40
1.778
1
INHERITANCE  PART DECAL
0
TEXT
8
PART_ATTR
10
0
20
-48.768
40
1.778
1
ECO_REGISTRATION N
0
TEXT
8
PART_ATTR
10
0
20
-51.816
40
1.778
1
READONLY Y
0
TEXT
8
PART_ATTR
10
0
20
-54.864
40
1.778
1
SYSTEM Y
0
TEXT
8
PART_ATTR
10
0
20
-57.912
40
1.778
1
HIDDEN Y
0
TEXT
8
PART_ATTR
10
0
20
-60.96
40
1.778
1
ATTRIBUTE Rules.Fanout.Direction
0
TEXT
8
PART_ATTR
10
0
20
-64.008
40
1.778
1
TYPE LIST N
0
TEXT
8
PART_ATTR
10
0
20
-67.056
40
1.778
1
LIST Inside
0
TEXT
8
PART_ATTR
10
0
20
-70.104
40
1.778
1
LIST Outside
0
TEXT
8
PART_ATTR
10
0
20
-73.152
40
1.778
1
LIST Both Sides
0
TEXT
8
PART_ATTR
10
0
20
-76.2
40
1.778
1
INHERITANCE  PCB
0
TEXT
8
PART_ATTR
10
0
20
-79.248
40
1.778
1
INHERITANCE  PART DECAL
0
TEXT
8
PART_ATTR
10
0
20
-82.296
40
1.778
1
ECO_REGISTRATION N
0
TEXT
8
PART_ATTR
10
0
20
-85.344
40
1.778
1
READONLY Y
0
TEXT
8
PART_ATTR
10
0
20
-88.392
40
1.778
1
SYSTEM Y
0
TEXT
8
PART_ATTR
10
0
20
-91.44
40
1.778
1
HIDDEN Y
0
TEXT
8
PART_ATTR
10
0
20
-94.488
40
1.778
1
ATTRIBUTE Rules.Fanout.ViaSpacing
0
TEXT
8
PART_ATTR
10
0
20
-97.536
40
1.778
1
TYPE LIST N
0
TEXT
8
PART_ATTR
10
0
20
-100.584
40
1.778
1
LIST Use Grid
0
TEXT
8
PART_ATTR
10
0
20
-103.632
40
1.778
1
LIST 1 Trace
0
TEXT
8
PART_ATTR
10
0
20
-106.68
40
1.778
1
LIST 2 Trace
0
TEXT
8
PART_ATTR
10
0
20
-109.728
40
1.778
1
INHERITANCE  PCB
0
TEXT
8
PART_ATTR
10
0
20
-112.776
40
1.778
1
INHERITANCE  PART DECAL
0
TEXT
8
PART_ATTR
10
0
20
-115.824
40
1.778
1
ECO_REGISTRATION N
0
TEXT
8
PART_ATTR
10
0
20
-118.872
40
1.778
1
READONLY Y
0
TEXT
8
PART_ATTR
10
0
20
-121.92
40
1.778
1
SYSTEM Y
0
TEXT
8
PART_ATTR
10
0
20
-124.968
40
1.778
1
HIDDEN Y
0
TEXT
8
PART_ATTR
10
0
20
-128.016
40
1.778
1
ATTRIBUTE Rules.Fanout.Sharing.Pin
0
TEXT
8
PART_ATTR
10
0
20
-131.064
40
1.778
1
TYPE BOOLEAN
0
TEXT
8
PART_ATTR
10
0
20
-134.112
40
1.778
1
INHERITANCE  PCB
0
TEXT
8
PART_ATTR
10
0
20
-137.16
40
1.778
1
INHERITANCE  PART DECAL
0
TEXT
8
PART_ATTR
10
0
20
-140.208
40
1.778
1
ECO_REGISTRATION N
0
TEXT
8
PART_ATTR
10
0
20
-143.256
40
1.778
1
READONLY Y
0
TEXT
8
PART_ATTR
10
0
20
-146.304
40
1.778
1
SYSTEM Y
0
TEXT
8
PART_ATTR
10
0
20
-149.352
40
1.778
1
HIDDEN Y
0
TEXT
8
PART_ATTR
10
0
20
-152.4
40
1.778
1
ATTRIBUTE Rules.Fanout.Sharing.SMD
0
TEXT
8
PART_ATTR
10
0
20
-155.448
40
1.778
1
TYPE BOOLEAN
0
TEXT
8
PART_ATTR
10
0
20
-158.496
40
1.778
1
INHERITANCE  PCB
0
TEXT
8
PART_ATTR
10
0
20
-161.544
40
1.778
1
INHERITANCE  PART DECAL
0
TEXT
8
PART_ATTR
10
0
20
-164.592
40
1.778
1
ECO_REGISTRATION N
0
TEXT
8
PART_ATTR
10
0
20
-167.64
40
1.778
1
READONLY Y
0
TEXT
8
PART_ATTR
10
0
20
-170.688
40
1.778
1
SYSTEM Y
0
TEXT
8
PART_ATTR
10
0
20
-173.736
40
1.778
1
HIDDEN Y
0
TEXT
8
PART_ATTR
10
0
20
-176.784
40
1.778
1
ATTRIBUTE Rules.Fanout.Sharing.Via
0
TEXT
8
PART_ATTR
10
0
20
-179.832
40
1.778
1
TYPE BOOLEAN
0
TEXT
8
PART_ATTR
10
0
20
-182.88
40
1.778
1
INHERITANCE  PCB
0
TEXT
8
PART_ATTR
10
0
20
-185.928
40
1.778
1
INHERITANCE  PART DECAL
0
TEXT
8
PART_ATTR
10
0
20
-188.976
40
1.778
1
ECO_REGISTRATION N
0
TEXT
8
PART_ATTR
10
0
20
-192.024
40
1.778
1
READONLY Y
0
TEXT
8
PART_ATTR
10
0
20
-195.072
40
1.778
1
SYSTEM Y
0
TEXT
8
PART_ATTR
10
0
20
-198.12
40
1.778
1
HIDDEN Y
0
TEXT
8
PART_ATTR
10
0
20
-201.168
40
1.778
1
ATTRIBUTE Rules.Fanout.Sharing.Trace
0
TEXT
8
PART_ATTR
10
0
20
-204.216
40
1.778
1
TYPE BOOLEAN
0
TEXT
8
PART_ATTR
10
0
20
-207.264
40
1.778
1
INHERITANCE  PCB
0
TEXT
8
PART_ATTR
10
0
20
-210.312
40
1.778
1
INHERITANCE  PART DECAL
0
TEXT
8
PART_ATTR
10
0
20
-213.36
40
1.778
1
ECO_REGISTRATION N
0
TEXT
8
PART_ATTR
10
0
20
-216.408
40
1.778
1
READONLY Y
0
TEXT
8
PART_ATTR
10
0
20
-219.456
40
1.778
1
SYSTEM Y
0
TEXT
8
PART_ATTR
10
0
20
-222.504
40
1.778
1
HIDDEN Y
0
TEXT
8
PART_ATTR
10
0
20
-225.552
40
1.778
1
ATTRIBUTE Rules.Fanout.Nets.Plane
0
TEXT
8
PART_ATTR
10
0
20
-228.6
40
1.778
1
TYPE BOOLEAN
0
TEXT
8
PART_ATTR
10
0
20
-231.648
40
1.778
1
INHERITANCE  PCB
0
TEXT
8
PART_ATTR
10
0
20
-234.696
40
1.778
1
INHERITANCE  PART DECAL
0
TEXT
8
PART_ATTR
10
0
20
-237.744
40
1.778
1
ECO_REGISTRATION N
0
TEXT
8
PART_ATTR
10
0
20
-240.792
40
1.778
1
READONLY Y
0
TEXT
8
PART_ATTR
10
0
20
-243.84
40
1.778
1
SYSTEM Y
0
TEXT
8
PART_ATTR
10
0
20
-246.888
40
1.778
1
HIDDEN Y
0
TEXT
8
PART_ATTR
10
0
20
-249.936
40
1.778
1
ATTRIBUTE Rules.Fanout.Nets.Signal
0
TEXT
8
PART_ATTR
10
0
20
-252.984
40
1.778
1
TYPE BOOLEAN
0
TEXT
8
PART_ATTR
10
0
20
-256.032
40
1.778
1
INHERITANCE  PCB
0
TEXT
8
PART_ATTR
10
0
20
-259.08
40
1.778
1
INHERITANCE  PART DECAL
0
TEXT
8
PART_ATTR
10
0
20
-262.128
40
1.778
1
ECO_REGISTRATION N
0
TEXT
8
PART_ATTR
10
0
20
-265.176
40
1.778
1
READONLY Y
0
TEXT
8
PART_ATTR
10
0
20
-268.224
40
1.778
1
SYSTEM Y
0
TEXT
8
PART_ATTR
10
0
20
-271.272
40
1.778
1
HIDDEN Y
0
TEXT
8
PART_ATTR
10
0
20
-274.32
40
1.778
1
ATTRIBUTE Rules.Fanout.Nets.UnusedPins
0
TEXT
8
PART_ATTR
10
0
20
-277.368
40
1.778
1
TYPE BOOLEAN
0
TEXT
8
PART_ATTR
10
0
20
-280.416
40
1.778
1
INHERITANCE  PCB
0
TEXT
8
PART_ATTR
10
0
20
-283.464
40
1.778
1
INHERITANCE  PART DECAL
0
TEXT
8
PART_ATTR
10
0
20
-286.512
40
1.778
1
ECO_REGISTRATION N
0
TEXT
8
PART_ATTR
10
0
20
-289.56
40
1.778
1
READONLY Y
0
TEXT
8
PART_ATTR
10
0
20
-292.608
40
1.778
1
SYSTEM Y
0
TEXT
8
PART_ATTR
10
0
20
-295.656
40
1.778
1
HIDDEN Y
0
TEXT
8
PART_ATTR
10
0
20
-298.704
40
1.778
1
ATTRIBUTE Rules.Fanout.Length.Unlimited
0
TEXT
8
PART_ATTR
10
0
20
-301.752
40
1.778
1
TYPE BOOLEAN
0
TEXT
8
PART_ATTR
10
0
20
-304.8
40
1.778
1
INHERITANCE  PCB
0
TEXT
8
PART_ATTR
10
0
20
-307.848
40
1.778
1
INHERITANCE  PART DECAL
0
TEXT
8
PART_ATTR
10
0
20
-310.896
40
1.778
1
ECO_REGISTRATION N
0
TEXT
8
PART_ATTR
10
0
20
-313.944
40
1.778
1
READONLY Y
0
TEXT
8
PART_ATTR
10
0
20
-316.992
40
1.778
1
SYSTEM Y
0
TEXT
8
PART_ATTR
10
0
20
-320.04
40
1.778
1
HIDDEN Y
0
TEXT
8
PART_ATTR
10
0
20
-323.088
40
1.778
1
ATTRIBUTE Rules.Fanout.Length.Maximum
0
TEXT
8
PART_ATTR
10
0
20
-326.136
40
1.778
1
TYPE QUANTITY
0
TEXT
8
PART_ATTR
10
0
20
-329.184
40
1.778
1
QUANTITY Size/Dimension
0
TEXT
8
PART_ATTR
10
0
20
-332.232
40
1.778
1
ABBR 
0
TEXT
8
PART_ATTR
10
0
20
-335.28
40
1.778
1
UNIT 
0
TEXT
8
PART_ATTR
10
0
20
-338.328
40
1.778
1
MIN 
0
TEXT
8
PART_ATTR
10
0
20
-341.376
40
1.778
1
MAX 50.80000mm
0
TEXT
8
PART_ATTR
10
0
20
-344.424
40
1.778
1
INHERITANCE  PCB
0
TEXT
8
PART_ATTR
10
0
20
-347.472
40
1.778
1
INHERITANCE  PART DECAL
0
TEXT
8
PART_ATTR
10
0
20
-350.52
40
1.778
1
ECO_REGISTRATION N
0
TEXT
8
PART_ATTR
10
0
20
-353.568
40
1.778
1
READONLY Y
0
TEXT
8
PART_ATTR
10
0
20
-356.616
40
1.778
1
SYSTEM Y
0
TEXT
8
PART_ATTR
10
0
20
-359.664
40
1.778
1
HIDDEN Y
0
TEXT
8
PART_ATTR
10
0
20
-362.712
40
1.778
1
ATTRIBUTE Rules.Fanout.AlignmentBGA
0
TEXT
8
PART_ATTR
10
0
20
-365.76
40
1.778
1
TYPE LIST N
0
TEXT
8
PART_ATTR
10
0
20
-368.808
40
1.778
1
LIST Diagonal
0
TEXT
8
PART_ATTR
10
0
20
-371.856
40
1.778
1
LIST Quadrant
0
TEXT
8
PART_ATTR
10
0
20
-374.904
40
1.778
1
LIST X-pattern
0
TEXT
8
PART_ATTR
10
0
20
-377.952
40
1.778
1
INHERITANCE  PCB
0
TEXT
8
PART_ATTR
10
0
20
-381
40
1.778
1
INHERITANCE  PART DECAL
0
TEXT
8
PART_ATTR
10
0
20
-384.048
40
1.778
1
ECO_REGISTRATION N
0
TEXT
8
PART_ATTR
10
0
20
-387.096
40
1.778
1
READONLY Y
0
TEXT
8
PART_ATTR
10
0
20
-390.144
40
1.778
1
SYSTEM Y
0
TEXT
8
PART_ATTR
10
0
20
-393.192
40
1.778
1
HIDDEN Y
0
TEXT
8
PART_ATTR
10
0
20
-396.24
40
1.778
1
ATTRIBUTE Rules.Fanout.DirectionBGA
0
TEXT
8
PART_ATTR
10
0
20
-399.288
40
1.778
1
TYPE LIST N
0
TEXT
8
PART_ATTR
10
0
20
-402.336
40
1.778
1
LIST 45
0
TEXT
8
PART_ATTR
10
0
20
-405.384
40
1.778
1
LIST 135
0
TEXT
8
PART_ATTR
10
0
20
-408.432
40
1.778
1
LIST 225
0
TEXT
8
PART_ATTR
10
0
20
-411.48
40
1.778
1
LIST 315
0
TEXT
8
PART_ATTR
10
0
20
-414.528
40
1.778
1
LIST Clockwise
0
TEXT
8
PART_ATTR
10
0
20
-417.576
40
1.778
1
LIST Counterclockwise
0
TEXT
8
PART_ATTR
10
0
20
-420.624
40
1.778
1
INHERITANCE  PCB
0
TEXT
8
PART_ATTR
10
0
20
-423.672
40
1.778
1
INHERITANCE  PART DECAL
0
TEXT
8
PART_ATTR
10
0
20
-426.72
40
1.778
1
ECO_REGISTRATION N
0
TEXT
8
PART_ATTR
10
0
20
-429.768
40
1.778
1
READONLY Y
0
TEXT
8
PART_ATTR
10
0
20
-432.816
40
1.778
1
SYSTEM Y
0
TEXT
8
PART_ATTR
10
0
20
-435.864
40
1.778
1
HIDDEN Y
0
TEXT
8
PART_ATTR
10
0
20
-438.912
40
1.778
1
ATTRIBUTE Rules.Fanout.DirectionBGAstaggered
0
TEXT
8
PART_ATTR
10
0
20
-441.96
40
1.778
1
TYPE LIST N
0
TEXT
8
PART_ATTR
10
0
20
-445.008
40
1.778
1
LIST Horizontal
0
TEXT
8
PART_ATTR
10
0
20
-448.056
40
1.778
1
LIST Vertical
0
TEXT
8
PART_ATTR
10
0
20
-451.104
40
1.778
1
INHERITANCE  PCB
0
TEXT
8
PART_ATTR
10
0
20
-454.152
40
1.778
1
INHERITANCE  PART DECAL
0
TEXT
8
PART_ATTR
10
0
20
-457.2
40
1.778
1
ECO_REGISTRATION N
0
TEXT
8
PART_ATTR
10
0
20
-460.248
40
1.778
1
READONLY Y
0
TEXT
8
PART_ATTR
10
0
20
-463.296
40
1.778
1
SYSTEM Y
0
TEXT
8
PART_ATTR
10
0
20
-466.344
40
1.778
1
HIDDEN Y
0
TEXT
8
PART_ATTR
10
0
20
-469.392
40
1.778
1
ATTRIBUTE Rules.PadEntry.Side
0
TEXT
8
PART_ATTR
10
0
20
-472.44
40
1.778
1
TYPE BOOLEAN
0
TEXT
8
PART_ATTR
10
0
20
-475.488
40
1.778
1
INHERITANCE  PCB
0
TEXT
8
PART_ATTR
10
0
20
-478.536
40
1.778
1
INHERITANCE  PART DECAL
0
TEXT
8
PART_ATTR
10
0
20
-481.584
40
1.778
1
ECO_REGISTRATION N
0
TEXT
8
PART_ATTR
10
0
20
-484.632
40
1.778
1
READONLY Y
0
TEXT
8
PART_ATTR
10
0
20
-487.68
40
1.778
1
SYSTEM Y
0
TEXT
8
PART_ATTR
10
0
20
-490.728
40
1.778
1
HIDDEN Y
0
TEXT
8
PART_ATTR
10
0
20
-493.776
40
1.778
1
ATTRIBUTE Rules.PadEntry.Corner
0
TEXT
8
PART_ATTR
10
0
20
-496.824
40
1.778
1
TYPE BOOLEAN
0
TEXT
8
PART_ATTR
10
0
20
-499.872
40
1.778
1
INHERITANCE  PCB
0
TEXT
8
PART_ATTR
10
0
20
-502.92
40
1.778
1
INHERITANCE  PART DECAL
0
TEXT
8
PART_ATTR
10
0
20
-505.968
40
1.778
1
ECO_REGISTRATION N
0
TEXT
8
PART_ATTR
10
0
20
-509.016
40
1.778
1
READONLY Y
0
TEXT
8
PART_ATTR
10
0
20
-512.064
40
1.778
1
SYSTEM Y
0
TEXT
8
PART_ATTR
10
0
20
-515.112
40
1.778
1
HIDDEN Y
0
TEXT
8
PART_ATTR
10
0
20
-518.16
40
1.778
1
ATTRIBUTE Rules.PadEntry.AnyAngle
0
TEXT
8
PART_ATTR
10
0
20
-521.208
40
1.778
1
TYPE BOOLEAN
0
TEXT
8
PART_ATTR
10
0
20
-524.256
40
1.778
1
INHERITANCE  PCB
0
TEXT
8
PART_ATTR
10
0
20
-527.304
40
1.778
1
INHERITANCE  PART DECAL
0
TEXT
8
PART_ATTR
10
0
20
-530.352
40
1.778
1
ECO_REGISTRATION N
0
TEXT
8
PART_ATTR
10
0
20
-533.4
40
1.778
1
READONLY Y
0
TEXT
8
PART_ATTR
10
0
20
-536.448
40
1.778
1
SYSTEM Y
0
TEXT
8
PART_ATTR
10
0
20
-539.496
40
1.778
1
HIDDEN Y
0
TEXT
8
PART_ATTR
10
0
20
-542.544
40
1.778
1
ATTRIBUTE Rules.PadEntry.Soft
0
TEXT
8
PART_ATTR
10
0
20
-545.592
40
1.778
1
TYPE BOOLEAN
0
TEXT
8
PART_ATTR
10
0
20
-548.64
40
1.778
1
INHERITANCE  PCB
0
TEXT
8
PART_ATTR
10
0
20
-551.688
40
1.778
1
INHERITANCE  PART DECAL
0
TEXT
8
PART_ATTR
10
0
20
-554.736
40
1.778
1
ECO_REGISTRATION N
0
TEXT
8
PART_ATTR
10
0
20
-557.784
40
1.778
1
READONLY Y
0
TEXT
8
PART_ATTR
10
0
20
-560.832
40
1.778
1
SYSTEM Y
0
TEXT
8
PART_ATTR
10
0
20
-563.88
40
1.778
1
HIDDEN Y
0
TEXT
8
PART_ATTR
10
0
20
-566.928
40
1.778
1
ATTRIBUTE Rules.ViaAtSMD
0
TEXT
8
PART_ATTR
10
0
20
-569.976
40
1.778
1
TYPE BOOLEAN
0
TEXT
8
PART_ATTR
10
0
20
-573.024
40
1.778
1
INHERITANCE  PCB
0
TEXT
8
PART_ATTR
10
0
20
-576.072
40
1.778
1
INHERITANCE  PART DECAL
0
TEXT
8
PART_ATTR
10
0
20
-579.12
40
1.778
1
ECO_REGISTRATION N
0
TEXT
8
PART_ATTR
10
0
20
-582.168
40
1.778
1
READONLY Y
0
TEXT
8
PART_ATTR
10
0
20
-585.216
40
1.778
1
SYSTEM Y
0
TEXT
8
PART_ATTR
10
0
20
-588.264
40
1.778
1
HIDDEN Y
0
TEXT
8
PART_ATTR
10
0
20
-591.312
40
1.778
1
ATTRIBUTE Rules.ViaAtSMD.FitInside
0
TEXT
8
PART_ATTR
10
0
20
-594.36
40
1.778
1
TYPE BOOLEAN
0
TEXT
8
PART_ATTR
10
0
20
-597.408
40
1.778
1
INHERITANCE  PCB
0
TEXT
8
PART_ATTR
10
0
20
-600.456
40
1.778
1
INHERITANCE  PART DECAL
0
TEXT
8
PART_ATTR
10
0
20
-603.504
40
1.778
1
ECO_REGISTRATION N
0
TEXT
8
PART_ATTR
10
0
20
-606.552
40
1.778
1
READONLY Y
0
TEXT
8
PART_ATTR
10
0
20
-609.6
40
1.778
1
SYSTEM Y
0
TEXT
8
PART_ATTR
10
0
20
-612.648
40
1.778
1
HIDDEN Y
0
TEXT
8
PART_ATTR
10
0
20
-615.696
40
1.778
1
ATTRIBUTE Rules.ViaAtSMD.Center
0
TEXT
8
PART_ATTR
10
0
20
-618.744
40
1.778
1
TYPE BOOLEAN
0
TEXT
8
PART_ATTR
10
0
20
-621.792
40
1.778
1
INHERITANCE  PCB
0
TEXT
8
PART_ATTR
10
0
20
-624.84
40
1.778
1
INHERITANCE  PART DECAL
0
TEXT
8
PART_ATTR
10
0
20
-627.888
40
1.778
1
ECO_REGISTRATION N
0
TEXT
8
PART_ATTR
10
0
20
-630.936
40
1.778
1
READONLY Y
0
TEXT
8
PART_ATTR
10
0
20
-633.984
40
1.778
1
SYSTEM Y
0
TEXT
8
PART_ATTR
10
0
20
-637.032
40
1.778
1
HIDDEN Y
0
TEXT
8
PART_ATTR
10
0
20
-640.08
40
1.778
1
ATTRIBUTE Rules.ViaAtSMD.Ends
0
TEXT
8
PART_ATTR
10
0
20
-643.128
40
1.778
1
TYPE BOOLEAN
0
TEXT
8
PART_ATTR
10
0
20
-646.176
40
1.778
1
INHERITANCE  PCB
0
TEXT
8
PART_ATTR
10
0
20
-649.224
40
1.778
1
INHERITANCE  PART DECAL
0
TEXT
8
PART_ATTR
10
0
20
-652.272
40
1.778
1
ECO_REGISTRATION N
0
TEXT
8
PART_ATTR
10
0
20
-655.32
40
1.778
1
READONLY Y
0
TEXT
8
PART_ATTR
10
0
20
-658.368
40
1.778
1
SYSTEM Y
0
TEXT
8
PART_ATTR
10
0
20
-661.416
40
1.778
1
HIDDEN Y
0
TEXT
8
PART_ATTR
10
0
20
-664.464
40
1.778
1
ATTRIBUTE Rules.Clearance.Trace.Trace
0
TEXT
8
PART_ATTR
10
0
20
-667.512
40
1.778
1
TYPE QUANTITY
0
TEXT
8
PART_ATTR
10
0
20
-670.56
40
1.778
1
QUANTITY Size/Dimension
0
TEXT
8
PART_ATTR
10
0
20
-673.608
40
1.778
1
ABBR 
0
TEXT
8
PART_ATTR
10
0
20
-676.656
40
1.778
1
UNIT 
0
TEXT
8
PART_ATTR
10
0
20
-679.704
40
1.778
1
MIN 
0
TEXT
8
PART_ATTR
10
0
20
-682.752
40
1.778
1
MAX 25.40000mm
0
TEXT
8
PART_ATTR
10
0
20
-685.8
40
1.778
1
INHERITANCE  PCB
0
TEXT
8
PART_ATTR
10
0
20
-688.848
40
1.778
1
INHERITANCE  PART DECAL
0
TEXT
8
PART_ATTR
10
0
20
-691.896
40
1.778
1
ECO_REGISTRATION N
0
TEXT
8
PART_ATTR
10
0
20
-694.944
40
1.778
1
READONLY Y
0
TEXT
8
PART_ATTR
10
0
20
-697.992
40
1.778
1
SYSTEM Y
0
TEXT
8
PART_ATTR
10
0
20
-701.04
40
1.778
1
HIDDEN Y
0
TEXT
8
PART_ATTR
10
0
20
-704.088
40
1.778
1
ATTRIBUTE Rules.Clearance.Via.Trace
0
TEXT
8
PART_ATTR
10
0
20
-707.136
40
1.778
1
TYPE QUANTITY
0
TEXT
8
PART_ATTR
10
0
20
-710.184
40
1.778
1
QUANTITY Size/Dimension
0
TEXT
8
PART_ATTR
10
0
20
-713.232
40
1.778
1
ABBR 
0
TEXT
8
PART_ATTR
10
0
20
-716.28
40
1.778
1
UNIT 
0
TEXT
8
PART_ATTR
10
0
20
-719.328
40
1.778
1
MIN 
0
TEXT
8
PART_ATTR
10
0
20
-722.376
40
1.778
1
MAX 25.40000mm
0
TEXT
8
PART_ATTR
10
0
20
-725.424
40
1.778
1
INHERITANCE  PCB
0
TEXT
8
PART_ATTR
10
0
20
-728.472
40
1.778
1
INHERITANCE  PART DECAL
0
TEXT
8
PART_ATTR
10
0
20
-731.52
40
1.778
1
ECO_REGISTRATION N
0
TEXT
8
PART_ATTR
10
0
20
-734.568
40
1.778
1
READONLY Y
0
TEXT
8
PART_ATTR
10
0
20
-737.616
40
1.778
1
SYSTEM Y
0
TEXT
8
PART_ATTR
10
0
20
-740.664
40
1.778
1
HIDDEN Y
0
TEXT
8
PART_ATTR
10
0
20
-743.712
40
1.778
1
ATTRIBUTE Rules.Clearance.Via.Via
0
TEXT
8
PART_ATTR
10
0
20
-746.76
40
1.778
1
TYPE QUANTITY
0
TEXT
8
PART_ATTR
10
0
20
-749.808
40
1.778
1
QUANTITY Size/Dimension
0
TEXT
8
PART_ATTR
10
0
20
-752.856
40
1.778
1
ABBR 
0
TEXT
8
PART_ATTR
10
0
20
-755.904
40
1.778
1
UNIT 
0
TEXT
8
PART_ATTR
10
0
20
-758.952
40
1.778
1
MIN 
0
TEXT
8
PART_ATTR
10
0
20
-762
40
1.778
1
MAX 25.40000mm
0
TEXT
8
PART_ATTR
10
0
20
-765.048
40
1.778
1
INHERITANCE  PCB
0
TEXT
8
PART_ATTR
10
0
20
-768.096
40
1.778
1
INHERITANCE  PART DECAL
0
TEXT
8
PART_ATTR
10
0
20
-771.144
40
1.778
1
ECO_REGISTRATION N
0
TEXT
8
PART_ATTR
10
0
20
-774.192
40
1.778
1
READONLY Y
0
TEXT
8
PART_ATTR
10
0
20
-777.24
40
1.778
1
SYSTEM Y
0
TEXT
8
PART_ATTR
10
0
20
-780.288
40
1.778
1
HIDDEN Y
0
TEXT
8
PART_ATTR
10
0
20
-783.336
40
1.778
1
ATTRIBUTE Rules.Clearance.Pad.Trace
0
TEXT
8
PART_ATTR
10
0
20
-786.384
40
1.778
1
TYPE QUANTITY
0
TEXT
8
PART_ATTR
10
0
20
-789.432
40
1.778
1
QUANTITY Size/Dimension
0
TEXT
8
PART_ATTR
10
0
20
-792.48
40
1.778
1
ABBR 
0
TEXT
8
PART_ATTR
10
0
20
-795.528
40
1.778
1
UNIT 
0
TEXT
8
PART_ATTR
10
0
20
-798.576
40
1.778
1
MIN 
0
TEXT
8
PART_ATTR
10
0
20
-801.624
40
1.778
1
MAX 25.40000mm
0
TEXT
8
PART_ATTR
10
0
20
-804.672
40
1.778
1
INHERITANCE  PCB
0
TEXT
8
PART_ATTR
10
0
20
-807.72
40
1.778
1
INHERITANCE  PART DECAL
0
TEXT
8
PART_ATTR
10
0
20
-810.768
40
1.778
1
ECO_REGISTRATION N
0
TEXT
8
PART_ATTR
10
0
20
-813.816
40
1.778
1
READONLY Y
0
TEXT
8
PART_ATTR
10
0
20
-816.864
40
1.778
1
SYSTEM Y
0
TEXT
8
PART_ATTR
10
0
20
-819.912
40
1.778
1
HIDDEN Y
0
TEXT
8
PART_ATTR
10
0
20
-822.96
40
1.778
1
ATTRIBUTE Rules.Clearance.Pad.Via
0
TEXT
8
PART_ATTR
10
0
20
-826.008
40
1.778
1
TYPE QUANTITY
0
TEXT
8
PART_ATTR
10
0
20
-829.056
40
1.778
1
QUANTITY Size/Dimension
0
TEXT
8
PART_ATTR
10
0
20
-832.104
40
1.778
1
ABBR 
0
TEXT
8
PART_ATTR
10
0
20
-835.152
40
1.778
1
UNIT 
0
TEXT
8
PART_ATTR
10
0
20
-838.2
40
1.778
1
MIN 
0
TEXT
8
PART_ATTR
10
0
20
-841.248
40
1.778
1
MAX 25.40000mm
0
TEXT
8
PART_ATTR
10
0
20
-844.296
40
1.778
1
INHERITANCE  PCB
0
TEXT
8
PART_ATTR
10
0
20
-847.344
40
1.778
1
INHERITANCE  PART DECAL
0
TEXT
8
PART_ATTR
10
0
20
-850.392
40
1.778
1
ECO_REGISTRATION N
0
TEXT
8
PART_ATTR
10
0
20
-853.44
40
1.778
1
READONLY Y
0
TEXT
8
PART_ATTR
10
0
20
-856.488
40
1.778
1
SYSTEM Y
0
TEXT
8
PART_ATTR
10
0
20
-859.536
40
1.778
1
HIDDEN Y
0
TEXT
8
PART_ATTR
10
0
20
-862.584
40
1.778
1
ATTRIBUTE Rules.Clearance.Pad.Pad
0
TEXT
8
PART_ATTR
10
0
20
-865.632
40
1.778
1
TYPE QUANTITY
0
TEXT
8
PART_ATTR
10
0
20
-868.68
40
1.778
1
QUANTITY Size/Dimension
0
TEXT
8
PART_ATTR
10
0
20
-871.728
40
1.778
1
ABBR 
0
TEXT
8
PART_ATTR
10
0
20
-874.776
40
1.778
1
UNIT 
0
TEXT
8
PART_ATTR
10
0
20
-877.824
40
1.778
1
MIN 
0
TEXT
8
PART_ATTR
10
0
20
-880.872
40
1.778
1
MAX 25.40000mm
0
TEXT
8
PART_ATTR
10
0
20
-883.92
40
1.778
1
INHERITANCE  PCB
0
TEXT
8
PART_ATTR
10
0
20
-886.968
40
1.778
1
INHERITANCE  PART DECAL
0
TEXT
8
PART_ATTR
10
0
20
-890.016
40
1.778
1
ECO_REGISTRATION N
0
TEXT
8
PART_ATTR
10
0
20
-893.064
40
1.778
1
READONLY Y
0
TEXT
8
PART_ATTR
10
0
20
-896.112
40
1.778
1
SYSTEM Y
0
TEXT
8
PART_ATTR
10
0
20
-899.16
40
1.778
1
HIDDEN Y
0
TEXT
8
PART_ATTR
10
0
20
-902.208
40
1.778
1
ATTRIBUTE Rules.Clearance.SMD.Trace
0
TEXT
8
PART_ATTR
10
0
20
-905.256
40
1.778
1
TYPE QUANTITY
0
TEXT
8
PART_ATTR
10
0
20
-908.304
40
1.778
1
QUANTITY Size/Dimension
0
TEXT
8
PART_ATTR
10
0
20
-911.352
40
1.778
1
ABBR 
0
TEXT
8
PART_ATTR
10
0
20
-914.4
40
1.778
1
UNIT 
0
TEXT
8
PART_ATTR
10
0
20
-917.448
40
1.778
1
MIN 
0
TEXT
8
PART_ATTR
10
0
20
-920.496
40
1.778
1
MAX 25.40000mm
0
TEXT
8
PART_ATTR
10
0
20
-923.544
40
1.778
1
INHERITANCE  PCB
0
TEXT
8
PART_ATTR
10
0
20
-926.592
40
1.778
1
INHERITANCE  PART DECAL
0
TEXT
8
PART_ATTR
10
0
20
-929.64
40
1.778
1
ECO_REGISTRATION N
0
TEXT
8
PART_ATTR
10
0
20
-932.688
40
1.778
1
READONLY Y
0
TEXT
8
PART_ATTR
10
0
20
-935.736
40
1.778
1
SYSTEM Y
0
TEXT
8
PART_ATTR
10
0
20
-938.784
40
1.778
1
HIDDEN Y
0
TEXT
8
PART_ATTR
10
0
20
-941.832
40
1.778
1
ATTRIBUTE Rules.Clearance.SMD.Via
0
TEXT
8
PART_ATTR
10
0
20
-944.88
40
1.778
1
TYPE QUANTITY
0
TEXT
8
PART_ATTR
10
0
20
-947.928
40
1.778
1
QUANTITY Size/Dimension
0
TEXT
8
PART_ATTR
10
0
20
-950.976
40
1.778
1
ABBR 
0
TEXT
8
PART_ATTR
10
0
20
-954.024
40
1.778
1
UNIT 
0
TEXT
8
PART_ATTR
10
0
20
-957.072
40
1.778
1
MIN 
0
TEXT
8
PART_ATTR
10
0
20
-960.12
40
1.778
1
MAX 25.40000mm
0
TEXT
8
PART_ATTR
10
0
20
-963.168
40
1.778
1
INHERITANCE  PCB
0
TEXT
8
PART_ATTR
10
0
20
-966.216
40
1.778
1
INHERITANCE  PART DECAL
0
TEXT
8
PART_ATTR
10
0
20
-969.264
40
1.778
1
ECO_REGISTRATION N
0
TEXT
8
PART_ATTR
10
0
20
-972.312
40
1.778
1
READONLY Y
0
TEXT
8
PART_ATTR
10
0
20
-975.36
40
1.778
1
SYSTEM Y
0
TEXT
8
PART_ATTR
10
0
20
-978.408
40
1.778
1
HIDDEN Y
0
TEXT
8
PART_ATTR
10
0
20
-981.456
40
1.778
1
ATTRIBUTE Rules.Clearance.SMD.Pad
0
TEXT
8
PART_ATTR
10
0
20
-984.504
40
1.778
1
TYPE QUANTITY
0
TEXT
8
PART_ATTR
10
0
20
-987.552
40
1.778
1
QUANTITY Size/Dimension
0
TEXT
8
PART_ATTR
10
0
20
-990.6
40
1.778
1
ABBR 
0
TEXT
8
PART_ATTR
10
0
20
-993.648
40
1.778
1
UNIT 
0
TEXT
8
PART_ATTR
10
0
20
-996.696
40
1.778
1
MIN 
0
TEXT
8
PART_ATTR
10
0
20
-999.744
40
1.778
1
MAX 25.40000mm
0
TEXT
8
PART_ATTR
10
0
20
-1002.792
40
1.778
1
INHERITANCE  PCB
0
TEXT
8
PART_ATTR
10
0
20
-1005.84
40
1.778
1
INHERITANCE  PART DECAL
0
TEXT
8
PART_ATTR
10
0
20
-1008.888
40
1.778
1
ECO_REGISTRATION N
0
TEXT
8
PART_ATTR
10
0
20
-1011.936
40
1.778
1
READONLY Y
0
TEXT
8
PART_ATTR
10
0
20
-1014.984
40
1.778
1
SYSTEM Y
0
TEXT
8
PART_ATTR
10
0
20
-1018.032
40
1.778
1
HIDDEN Y
0
TEXT
8
PART_ATTR
10
0
20
-1021.08
40
1.778
1
ATTRIBUTE Rules.Clearance.SMD.SMD
0
TEXT
8
PART_ATTR
10
0
20
-1024.128
40
1.778
1
TYPE QUANTITY
0
TEXT
8
PART_ATTR
10
0
20
-1027.176
40
1.778
1
QUANTITY Size/Dimension
0
TEXT
8
PART_ATTR
10
0
20
-1030.224
40
1.778
1
ABBR 
0
TEXT
8
PART_ATTR
10
0
20
-1033.272
40
1.778
1
UNIT 
0
TEXT
8
PART_ATTR
10
0
20
-1036.32
40
1.778
1
MIN 
0
TEXT
8
PART_ATTR
10
0
20
-1039.368
40
1.778
1
MAX 25.40000mm
0
TEXT
8
PART_ATTR
10
0
20
-1042.416
40
1.778
1
INHERITANCE  PCB
0
TEXT
8
PART_ATTR
10
0
20
-1045.464
40
1.778
1
INHERITANCE  PART DECAL
0
TEXT
8
PART_ATTR
10
0
20
-1048.512
40
1.778
1
ECO_REGISTRATION N
0
TEXT
8
PART_ATTR
10
0
20
-1051.56
40
1.778
1
READONLY Y
0
TEXT
8
PART_ATTR
10
0
20
-1054.608
40
1.778
1
SYSTEM Y
0
TEXT
8
PART_ATTR
10
0
20
-1057.656
40
1.778
1
HIDDEN Y
0
TEXT
8
PART_ATTR
10
0
20
-1060.704
40
1.778
1
ATTRIBUTE Rules.Clearance.Copper.Trace
0
TEXT
8
PART_ATTR
10
0
20
-1063.752
40
1.778
1
TYPE QUANTITY
0
TEXT
8
PART_ATTR
10
0
20
-1066.8
40
1.778
1
QUANTITY Size/Dimension
0
TEXT
8
PART_ATTR
10
0
20
-1069.848
40
1.778
1
ABBR 
0
TEXT
8
PART_ATTR
10
0
20
-1072.896
40
1.778
1
UNIT 
0
TEXT
8
PART_ATTR
10
0
20
-1075.944
40
1.778
1
MIN 
0
TEXT
8
PART_ATTR
10
0
20
-1078.992
40
1.778
1
MAX 25.40000mm
0
TEXT
8
PART_ATTR
10
0
20
-1082.04
40
1.778
1
INHERITANCE  PCB
0
TEXT
8
PART_ATTR
10
0
20
-1085.088
40
1.778
1
INHERITANCE  PART DECAL
0
TEXT
8
PART_ATTR
10
0
20
-1088.136
40
1.778
1
ECO_REGISTRATION N
0
TEXT
8
PART_ATTR
10
0
20
-1091.184
40
1.778
1
READONLY Y
0
TEXT
8
PART_ATTR
10
0
20
-1094.232
40
1.778
1
SYSTEM Y
0
TEXT
8
PART_ATTR
10
0
20
-1097.28
40
1.778
1
HIDDEN Y
0
TEXT
8
PART_ATTR
10
0
20
-1100.328
40
1.778
1
ATTRIBUTE Rules.Clearance.Copper.Via
0
TEXT
8
PART_ATTR
10
0
20
-1103.376
40
1.778
1
TYPE QUANTITY
0
TEXT
8
PART_ATTR
10
0
20
-1106.424
40
1.778
1
QUANTITY Size/Dimension
0
TEXT
8
PART_ATTR
10
0
20
-1109.472
40
1.778
1
ABBR 
0
TEXT
8
PART_ATTR
10
0
20
-1112.52
40
1.778
1
UNIT 
0
TEXT
8
PART_ATTR
10
0
20
-1115.568
40
1.778
1
MIN 
0
TEXT
8
PART_ATTR
10
0
20
-1118.616
40
1.778
1
MAX 25.40000mm
0
TEXT
8
PART_ATTR
10
0
20
-1121.664
40
1.778
1
INHERITANCE  PCB
0
TEXT
8
PART_ATTR
10
0
20
-1124.712
40
1.778
1
INHERITANCE  PART DECAL
0
TEXT
8
PART_ATTR
10
0
20
-1127.76
40
1.778
1
ECO_REGISTRATION N
0
TEXT
8
PART_ATTR
10
0
20
-1130.808
40
1.778
1
READONLY Y
0
TEXT
8
PART_ATTR
10
0
20
-1133.856
40
1.778
1
SYSTEM Y
0
TEXT
8
PART_ATTR
10
0
20
-1136.904
40
1.778
1
HIDDEN Y
0
TEXT
8
PART_ATTR
10
0
20
-1139.952
40
1.778
1
ATTRIBUTE Rules.Clearance.Copper.Pad
0
TEXT
8
PART_ATTR
10
0
20
-1143
40
1.778
1
TYPE QUANTITY
0
TEXT
8
PART_ATTR
10
0
20
-1146.048
40
1.778
1
QUANTITY Size/Dimension
0
TEXT
8
PART_ATTR
10
0
20
-1149.096
40
1.778
1
ABBR 
0
TEXT
8
PART_ATTR
10
0
20
-1152.144
40
1.778
1
UNIT 
0
TEXT
8
PART_ATTR
10
0
20
-1155.192
40
1.778
1
MIN 
0
TEXT
8
PART_ATTR
10
0
20
-1158.24
40
1.778
1
MAX 25.40000mm
0
TEXT
8
PART_ATTR
10
0
20
-1161.288
40
1.778
1
INHERITANCE  PCB
0
TEXT
8
PART_ATTR
10
0
20
-1164.336
40
1.778
1
INHERITANCE  PART DECAL
0
TEXT
8
PART_ATTR
10
0
20
-1167.384
40
1.778
1
ECO_REGISTRATION N
0
TEXT
8
PART_ATTR
10
0
20
-1170.432
40
1.778
1
READONLY Y
0
TEXT
8
PART_ATTR
10
0
20
-1173.48
40
1.778
1
SYSTEM Y
0
TEXT
8
PART_ATTR
10
0
20
-1176.528
40
1.778
1
HIDDEN Y
0
TEXT
8
PART_ATTR
10
0
20
-1179.576
40
1.778
1
ATTRIBUTE Rules.Clearance.Copper.SMD
0
TEXT
8
PART_ATTR
10
0
20
-1182.624
40
1.778
1
TYPE QUANTITY
0
TEXT
8
PART_ATTR
10
0
20
-1185.672
40
1.778
1
QUANTITY Size/Dimension
0
TEXT
8
PART_ATTR
10
0
20
-1188.72
40
1.778
1
ABBR 
0
TEXT
8
PART_ATTR
10
0
20
-1191.768
40
1.778
1
UNIT 
0
TEXT
8
PART_ATTR
10
0
20
-1194.816
40
1.778
1
MIN 
0
TEXT
8
PART_ATTR
10
0
20
-1197.864
40
1.778
1
MAX 25.40000mm
0
TEXT
8
PART_ATTR
10
0
20
-1200.912
40
1.778
1
INHERITANCE  PCB
0
TEXT
8
PART_ATTR
10
0
20
-1203.96
40
1.778
1
INHERITANCE  PART DECAL
0
TEXT
8
PART_ATTR
10
0
20
-1207.008
40
1.778
1
ECO_REGISTRATION N
0
TEXT
8
PART_ATTR
10
0
20
-1210.056
40
1.778
1
READONLY Y
0
TEXT
8
PART_ATTR
10
0
20
-1213.104
40
1.778
1
SYSTEM Y
0
TEXT
8
PART_ATTR
10
0
20
-1216.152
40
1.778
1
HIDDEN Y
0
TEXT
8
PART_ATTR
10
0
20
-1219.2
40
1.778
1
ATTRIBUTE Rules.Clearance.Text.Trace
0
TEXT
8
PART_ATTR
10
0
20
-1222.248
40
1.778
1
TYPE QUANTITY
0
TEXT
8
PART_ATTR
10
0
20
-1225.296
40
1.778
1
QUANTITY Size/Dimension
0
TEXT
8
PART_ATTR
10
0
20
-1228.344
40
1.778
1
ABBR 
0
TEXT
8
PART_ATTR
10
0
20
-1231.392
40
1.778
1
UNIT 
0
TEXT
8
PART_ATTR
10
0
20
-1234.44
40
1.778
1
MIN 
0
TEXT
8
PART_ATTR
10
0
20
-1237.488
40
1.778
1
MAX 25.40000mm
0
TEXT
8
PART_ATTR
10
0
20
-1240.536
40
1.778
1
INHERITANCE  PCB
0
TEXT
8
PART_ATTR
10
0
20
-1243.584
40
1.778
1
INHERITANCE  PART DECAL
0
TEXT
8
PART_ATTR
10
0
20
-1246.632
40
1.778
1
ECO_REGISTRATION N
0
TEXT
8
PART_ATTR
10
0
20
-1249.68
40
1.778
1
READONLY Y
0
TEXT
8
PART_ATTR
10
0
20
-1252.728
40
1.778
1
SYSTEM Y
0
TEXT
8
PART_ATTR
10
0
20
-1255.776
40
1.778
1
HIDDEN Y
0
TEXT
8
PART_ATTR
10
0
20
-1258.824
40
1.778
1
ATTRIBUTE Rules.Clearance.Text.Via
0
TEXT
8
PART_ATTR
10
0
20
-1261.872
40
1.778
1
TYPE QUANTITY
0
TEXT
8
PART_ATTR
10
0
20
-1264.92
40
1.778
1
QUANTITY Size/Dimension
0
TEXT
8
PART_ATTR
10
0
20
-1267.968
40
1.778
1
ABBR 
0
TEXT
8
PART_ATTR
10
0
20
-1271.016
40
1.778
1
UNIT 
0
TEXT
8
PART_ATTR
10
0
20
-1274.064
40
1.778
1
MIN 
0
TEXT
8
PART_ATTR
10
0
20
-1277.112
40
1.778
1
MAX 25.40000mm
0
TEXT
8
PART_ATTR
10
0
20
-1280.16
40
1.778
1
INHERITANCE  PCB
0
TEXT
8
PART_ATTR
10
0
20
-1283.208
40
1.778
1
INHERITANCE  PART DECAL
0
TEXT
8
PART_ATTR
10
0
20
-1286.256
40
1.778
1
ECO_REGISTRATION N
0
TEXT
8
PART_ATTR
10
0
20
-1289.304
40
1.778
1
READONLY Y
0
TEXT
8
PART_ATTR
10
0
20
-1292.352
40
1.778
1
SYSTEM Y
0
TEXT
8
PART_ATTR
10
0
20
-1295.4
40
1.778
1
HIDDEN Y
0
TEXT
8
PART_ATTR
10
0
20
-1298.448
40
1.778
1
ATTRIBUTE Rules.Clearance.Text.Pad
0
TEXT
8
PART_ATTR
10
0
20
-1301.496
40
1.778
1
TYPE QUANTITY
0
TEXT
8
PART_ATTR
10
0
20
-1304.544
40
1.778
1
QUANTITY Size/Dimension
0
TEXT
8
PART_ATTR
10
0
20
-1307.592
40
1.778
1
ABBR 
0
TEXT
8
PART_ATTR
10
0
20
-1310.64
40
1.778
1
UNIT 
0
TEXT
8
PART_ATTR
10
0
20
-1313.688
40
1.778
1
MIN 
0
TEXT
8
PART_ATTR
10
0
20
-1316.736
40
1.778
1
MAX 25.40000mm
0
TEXT
8
PART_ATTR
10
0
20
-1319.784
40
1.778
1
INHERITANCE  PCB
0
TEXT
8
PART_ATTR
10
0
20
-1322.832
40
1.778
1
INHERITANCE  PART DECAL
0
TEXT
8
PART_ATTR
10
0
20
-1325.88
40
1.778
1
ECO_REGISTRATION N
0
TEXT
8
PART_ATTR
10
0
20
-1328.928
40
1.778
1
READONLY Y
0
TEXT
8
PART_ATTR
10
0
20
-1331.976
40
1.778
1
SYSTEM Y
0
TEXT
8
PART_ATTR
10
0
20
-1335.024
40
1.778
1
HIDDEN Y
0
TEXT
8
PART_ATTR
10
0
20
-1338.072
40
1.778
1
ATTRIBUTE Rules.Clearance.Text.SMD
0
TEXT
8
PART_ATTR
10
0
20
-1341.12
40
1.778
1
TYPE QUANTITY
0
TEXT
8
PART_ATTR
10
0
20
-1344.168
40
1.778
1
QUANTITY Size/Dimension
0
TEXT
8
PART_ATTR
10
0
20
-1347.216
40
1.778
1
ABBR 
0
TEXT
8
PART_ATTR
10
0
20
-1350.264
40
1.778
1
UNIT 
0
TEXT
8
PART_ATTR
10
0
20
-1353.312
40
1.778
1
MIN 
0
TEXT
8
PART_ATTR
10
0
20
-1356.36
40
1.778
1
MAX 25.40000mm
0
TEXT
8
PART_ATTR
10
0
20
-1359.408
40
1.778
1
INHERITANCE  PCB
0
TEXT
8
PART_ATTR
10
0
20
-1362.456
40
1.778
1
INHERITANCE  PART DECAL
0
TEXT
8
PART_ATTR
10
0
20
-1365.504
40
1.778
1
ECO_REGISTRATION N
0
TEXT
8
PART_ATTR
10
0
20
-1368.552
40
1.778
1
READONLY Y
0
TEXT
8
PART_ATTR
10
0
20
-1371.6
40
1.778
1
SYSTEM Y
0
TEXT
8
PART_ATTR
10
0
20
-1374.648
40
1.778
1
HIDDEN Y
0
TEXT
8
PART_ATTR
10
0
20
-1377.696
40
1.778
1
ATTRIBUTE Rules.Clearance.Board.Trace
0
TEXT
8
PART_ATTR
10
0
20
-1380.744
40
1.778
1
TYPE QUANTITY
0
TEXT
8
PART_ATTR
10
0
20
-1383.792
40
1.778
1
QUANTITY Size/Dimension
0
TEXT
8
PART_ATTR
10
0
20
-1386.84
40
1.778
1
ABBR 
0
TEXT
8
PART_ATTR
10
0
20
-1389.888
40
1.778
1
UNIT 
0
TEXT
8
PART_ATTR
10
0
20
-1392.936
40
1.778
1
MIN 
0
TEXT
8
PART_ATTR
10
0
20
-1395.984
40
1.778
1
MAX 25.40000mm
0
TEXT
8
PART_ATTR
10
0
20
-1399.032
40
1.778
1
INHERITANCE  PCB
0
TEXT
8
PART_ATTR
10
0
20
-1402.08
40
1.778
1
INHERITANCE  PART DECAL
0
TEXT
8
PART_ATTR
10
0
20
-1405.128
40
1.778
1
ECO_REGISTRATION N
0
TEXT
8
PART_ATTR
10
0
20
-1408.176
40
1.778
1
READONLY Y
0
TEXT
8
PART_ATTR
10
0
20
-1411.224
40
1.778
1
SYSTEM Y
0
TEXT
8
PART_ATTR
10
0
20
-1414.272
40
1.778
1
HIDDEN Y
0
TEXT
8
PART_ATTR
10
0
20
-1417.32
40
1.778
1
ATTRIBUTE Rules.Clearance.Board.Via
0
TEXT
8
PART_ATTR
10
0
20
-1420.368
40
1.778
1
TYPE QUANTITY
0
TEXT
8
PART_ATTR
10
0
20
-1423.416
40
1.778
1
QUANTITY Size/Dimension
0
TEXT
8
PART_ATTR
10
0
20
-1426.464
40
1.778
1
ABBR 
0
TEXT
8
PART_ATTR
10
0
20
-1429.512
40
1.778
1
UNIT 
0
TEXT
8
PART_ATTR
10
0
20
1430.7515306667
40
1.778
1
MIN 
0
TEXT
8
PART_ATTR
10
0
20
1427.7035306667
40
1.778
1
MAX 25.40000mm
0
TEXT
8
PART_ATTR
10
0
20
1424.6555306667
40
1.778
1
INHERITANCE  PCB
0
TEXT
8
PART_ATTR
10
0
20
1421.6075306667
40
1.778
1
INHERITANCE  PART DECAL
0
TEXT
8
PART_ATTR
10
0
20
1418.5595306667
40
1.778
1
ECO_REGISTRATION N
0
TEXT
8
PART_ATTR
10
0
20
1415.5115306667
40
1.778
1
READONLY Y
0
TEXT
8
PART_ATTR
10
0
20
1412.4635306667
40
1.778
1
SYSTEM Y
0
TEXT
8
PART_ATTR
10
0
20
1409.4155306667
40
1.778
1
HIDDEN Y
0
TEXT
8
PART_ATTR
10
0
20
1406.3675306667
40
1.778
1
ATTRIBUTE Rules.Clearance.Board.Pad
0
TEXT
8
PART_ATTR
10
0
20
1403.3195306667
40
1.778
1
TYPE QUANTITY
0
TEXT
8
PART_ATTR
10
0
20
1400.2715306667
40
1.778
1
QUANTITY Size/Dimension
0
TEXT
8
PART_ATTR
10
0
20
1397.2235306667
40
1.778
1
ABBR 
0
TEXT
8
PART_ATTR
10
0
20
1394.1755306667
40
1.778
1
UNIT 
0
TEXT
8
PART_ATTR
10
0
20
1391.1275306667
40
1.778
1
MIN 
0
TEXT
8
PART_ATTR
10
0
20
1388.0795306667
40
1.778
1
MAX 25.40000mm
0
TEXT
8
PART_ATTR
10
0
20
1385.0315306667
40
1.778
1
INHERITANCE  PCB
0
TEXT
8
PART_ATTR
10
0
20
1381.9835306667
40
1.778
1
INHERITANCE  PART DECAL
0
TEXT
8
PART_ATTR
10
0
20
1378.9355306667
40
1.778
1
ECO_REGISTRATION N
0
TEXT
8
PART_ATTR
10
0
20
1375.8875306667
40
1.778
1
READONLY Y
0
TEXT
8
PART_ATTR
10
0
20
1372.8395306667
40
1.778
1
SYSTEM Y
0
TEXT
8
PART_ATTR
10
0
20
1369.7915306667
40
1.778
1
HIDDEN Y
0
TEXT
8
PART_ATTR
10
0
20
1366.7435306667
40
1.778
1
ATTRIBUTE Rules.Clearance.Board.SMD
0
TEXT
8
PART_ATTR
10
0
20
1363.6955306667
40
1.778
1
TYPE QUANTITY
0
TEXT
8
PART_ATTR
10
0
20
1360.6475306667
40
1.778
1
QUANTITY Size/Dimension
0
TEXT
8
PART_ATTR
10
0
20
1357.5995306667
40
1.778
1
ABBR 
0
TEXT
8
PART_ATTR
10
0
20
1354.5515306667
40
1.778
1
UNIT 
0
TEXT
8
PART_ATTR
10
0
20
1351.5035306667
40
1.778
1
MIN 
0
TEXT
8
PART_ATTR
10
0
20
1348.4555306667
40
1.778
1
MAX 25.40000mm
0
TEXT
8
PART_ATTR
10
0
20
1345.4075306667
40
1.778
1
INHERITANCE  PCB
0
TEXT
8
PART_ATTR
10
0
20
1342.3595306667
40
1.778
1
INHERITANCE  PART DECAL
0
TEXT
8
PART_ATTR
10
0
20
1339.3115306667
40
1.778
1
ECO_REGISTRATION N
0
TEXT
8
PART_ATTR
10
0
20
1336.2635306667
40
1.778
1
READONLY Y
0
TEXT
8
PART_ATTR
10
0
20
1333.2155306667
40
1.778
1
SYSTEM Y
0
TEXT
8
PART_ATTR
10
0
20
1330.1675306667
40
1.778
1
HIDDEN Y
0
TEXT
8
PART_ATTR
10
0
20
1327.1195306667
40
1.778
1
ATTRIBUTE Rules.Clearance.Drill.Trace
0
TEXT
8
PART_ATTR
10
0
20
1324.0715306667
40
1.778
1
TYPE QUANTITY
0
TEXT
8
PART_ATTR
10
0
20
1321.0235306667
40
1.778
1
QUANTITY Size/Dimension
0
TEXT
8
PART_ATTR
10
0
20
1317.9755306667
40
1.778
1
ABBR 
0
TEXT
8
PART_ATTR
10
0
20
1314.9275306667
40
1.778
1
UNIT 
0
TEXT
8
PART_ATTR
10
0
20
1311.8795306667
40
1.778
1
MIN 
0
TEXT
8
PART_ATTR
10
0
20
1308.8315306667
40
1.778
1
MAX 25.40000mm
0
TEXT
8
PART_ATTR
10
0
20
1305.7835306667
40
1.778
1
INHERITANCE  PCB
0
TEXT
8
PART_ATTR
10
0
20
1302.7355306667
40
1.778
1
INHERITANCE  PART DECAL
0
TEXT
8
PART_ATTR
10
0
20
1299.6875306667
40
1.778
1
ECO_REGISTRATION N
0
TEXT
8
PART_ATTR
10
0
20
1296.6395306667
40
1.778
1
READONLY Y
0
TEXT
8
PART_ATTR
10
0
20
1293.5915306667
40
1.778
1
SYSTEM Y
0
TEXT
8
PART_ATTR
10
0
20
1290.5435306667
40
1.778
1
HIDDEN Y
0
TEXT
8
PART_ATTR
10
0
20
1287.4955306667
40
1.778
1
ATTRIBUTE Rules.Clearance.Drill.Via
0
TEXT
8
PART_ATTR
10
0
20
1284.4475306667
40
1.778
1
TYPE QUANTITY
0
TEXT
8
PART_ATTR
10
0
20
1281.3995306667
40
1.778
1
QUANTITY Size/Dimension
0
TEXT
8
PART_ATTR
10
0
20
1278.3515306667
40
1.778
1
ABBR 
0
TEXT
8
PART_ATTR
10
0
20
1275.3035306667
40
1.778
1
UNIT 
0
TEXT
8
PART_ATTR
10
0
20
1272.2555306667
40
1.778
1
MIN 
0
TEXT
8
PART_ATTR
10
0
20
1269.2075306667
40
1.778
1
MAX 25.40000mm
0
TEXT
8
PART_ATTR
10
0
20
1266.1595306667
40
1.778
1
INHERITANCE  PCB
0
TEXT
8
PART_ATTR
10
0
20
1263.1115306667
40
1.778
1
INHERITANCE  PART DECAL
0
TEXT
8
PART_ATTR
10
0
20
1260.0635306667
40
1.778
1
ECO_REGISTRATION N
0
TEXT
8
PART_ATTR
10
0
20
1257.0155306667
40
1.778
1
READONLY Y
0
TEXT
8
PART_ATTR
10
0
20
1253.9675306667
40
1.778
1
SYSTEM Y
0
TEXT
8
PART_ATTR
10
0
20
1250.9195306667
40
1.778
1
HIDDEN Y
0
TEXT
8
PART_ATTR
10
0
20
1247.8715306667
40
1.778
1
ATTRIBUTE Rules.Clearance.Drill.Pad
0
TEXT
8
PART_ATTR
10
0
20
1244.8235306667
40
1.778
1
TYPE QUANTITY
0
TEXT
8
PART_ATTR
10
0
20
1241.7755306667
40
1.778
1
QUANTITY Size/Dimension
0
TEXT
8
PART_ATTR
10
0
20
1238.7275306667
40
1.778
1
ABBR 
0
TEXT
8
PART_ATTR
10
0
20
1235.6795306667
40
1.778
1
UNIT 
0
TEXT
8
PART_ATTR
10
0
20
1232.6315306667
40
1.778
1
MIN 
0
TEXT
8
PART_ATTR
10
0
20
1229.5835306667
40
1.778
1
MAX 25.40000mm
0
TEXT
8
PART_ATTR
10
0
20
1226.5355306667
40
1.778
1
INHERITANCE  PCB
0
TEXT
8
PART_ATTR
10
0
20
1223.4875306667
40
1.778
1
INHERITANCE  PART DECAL
0
TEXT
8
PART_ATTR
10
0
20
1220.4395306667
40
1.778
1
ECO_REGISTRATION N
0
TEXT
8
PART_ATTR
10
0
20
1217.3915306667
40
1.778
1
READONLY Y
0
TEXT
8
PART_ATTR
10
0
20
1214.3435306667
40
1.778
1
SYSTEM Y
0
TEXT
8
PART_ATTR
10
0
20
1211.2955306667
40
1.778
1
HIDDEN Y
0
TEXT
8
PART_ATTR
10
0
20
1208.2475306667
40
1.778
1
ATTRIBUTE Rules.Clearance.Drill.SMD
0
TEXT
8
PART_ATTR
10
0
20
1205.1995306667
40
1.778
1
TYPE QUANTITY
0
TEXT
8
PART_ATTR
10
0
20
1202.1515306667
40
1.778
1
QUANTITY Size/Dimension
0
TEXT
8
PART_ATTR
10
0
20
1199.1035306667
40
1.778
1
ABBR 
0
TEXT
8
PART_ATTR
10
0
20
1196.0555306667
40
1.778
1
UNIT 
0
TEXT
8
PART_ATTR
10
0
20
1193.0075306667
40
1.778
1
MIN 
0
TEXT
8
PART_ATTR
10
0
20
1189.9595306667
40
1.778
1
MAX 25.40000mm
0
TEXT
8
PART_ATTR
10
0
20
1186.9115306667
40
1.778
1
INHERITANCE  PCB
0
TEXT
8
PART_ATTR
10
0
20
1183.8635306667
40
1.778
1
INHERITANCE  PART DECAL
0
TEXT
8
PART_ATTR
10
0
20
1180.8155306667
40
1.778
1
ECO_REGISTRATION N
0
TEXT
8
PART_ATTR
10
0
20
1177.7675306667
40
1.778
1
READONLY Y
0
TEXT
8
PART_ATTR
10
0
20
1174.7195306667
40
1.778
1
SYSTEM Y
0
TEXT
8
PART_ATTR
10
0
20
1171.6715306667
40
1.778
1
HIDDEN Y
0
TEXT
8
PART_ATTR
10
0
20
1168.6235306667
40
1.778
1
ATTRIBUTE Rules.SameNet.SMD.Via
0
TEXT
8
PART_ATTR
10
0
20
1165.5755306667
40
1.778
1
TYPE QUANTITY
0
TEXT
8
PART_ATTR
10
0
20
1162.5275306667
40
1.778
1
QUANTITY Size/Dimension
0
TEXT
8
PART_ATTR
10
0
20
1159.4795306667
40
1.778
1
ABBR 
0
TEXT
8
PART_ATTR
10
0
20
1156.4315306667
40
1.778
1
UNIT 
0
TEXT
8
PART_ATTR
10
0
20
1153.3835306667
40
1.778
1
MIN 
0
TEXT
8
PART_ATTR
10
0
20
1150.3355306667
40
1.778
1
MAX 25.40000mm
0
TEXT
8
PART_ATTR
10
0
20
1147.2875306667
40
1.778
1
INHERITANCE  PCB
0
TEXT
8
PART_ATTR
10
0
20
1144.2395306667
40
1.778
1
INHERITANCE  PART DECAL
0
TEXT
8
PART_ATTR
10
0
20
1141.1915306667
40
1.778
1
ECO_REGISTRATION N
0
TEXT
8
PART_ATTR
10
0
20
1138.1435306667
40
1.778
1
READONLY Y
0
TEXT
8
PART_ATTR
10
0
20
1135.0955306667
40
1.778
1
SYSTEM Y
0
TEXT
8
PART_ATTR
10
0
20
1132.0475306667
40
1.778
1
HIDDEN Y
0
TEXT
8
PART_ATTR
10
0
20
1128.9995306667
40
1.778
1
ATTRIBUTE Rules.SameNet.SMD.Crn
0
TEXT
8
PART_ATTR
10
0
20
1125.9515306667
40
1.778
1
TYPE QUANTITY
0
TEXT
8
PART_ATTR
10
0
20
1122.9035306667
40
1.778
1
QUANTITY Size/Dimension
0
TEXT
8
PART_ATTR
10
0
20
1119.8555306667
40
1.778
1
ABBR 
0
TEXT
8
PART_ATTR
10
0
20
1116.8075306667
40
1.778
1
UNIT 
0
TEXT
8
PART_ATTR
10
0
20
1113.7595306667
40
1.778
1
MIN 
0
TEXT
8
PART_ATTR
10
0
20
1110.7115306667
40
1.778
1
MAX 25.40000mm
0
TEXT
8
PART_ATTR
10
0
20
1107.6635306667
40
1.778
1
INHERITANCE  PCB
0
TEXT
8
PART_ATTR
10
0
20
1104.6155306667
40
1.778
1
INHERITANCE  PART DECAL
0
TEXT
8
PART_ATTR
10
0
20
1101.5675306667
40
1.778
1
ECO_REGISTRATION N
0
TEXT
8
PART_ATTR
10
0
20
1098.5195306667
40
1.778
1
READONLY Y
0
TEXT
8
PART_ATTR
10
0
20
1095.4715306667
40
1.778
1
SYSTEM Y
0
TEXT
8
PART_ATTR
10
0
20
1092.4235306667
40
1.778
1
HIDDEN Y
0
TEXT
8
PART_ATTR
10
0
20
1089.3755306667
40
1.778
1
ATTRIBUTE Rules.SameNet.Via.Via
0
TEXT
8
PART_ATTR
10
0
20
1086.3275306667
40
1.778
1
TYPE QUANTITY
0
TEXT
8
PART_ATTR
10
0
20
1083.2795306667
40
1.778
1
QUANTITY Size/Dimension
0
TEXT
8
PART_ATTR
10
0
20
1080.2315306667
40
1.778
1
ABBR 
0
TEXT
8
PART_ATTR
10
0
20
1077.1835306667
40
1.778
1
UNIT 
0
TEXT
8
PART_ATTR
10
0
20
1074.1355306667
40
1.778
1
MIN 
0
TEXT
8
PART_ATTR
10
0
20
1071.0875306667
40
1.778
1
MAX 25.40000mm
0
TEXT
8
PART_ATTR
10
0
20
1068.0395306667
40
1.778
1
INHERITANCE  PCB
0
TEXT
8
PART_ATTR
10
0
20
1064.9915306667
40
1.778
1
INHERITANCE  PART DECAL
0
TEXT
8
PART_ATTR
10
0
20
1061.9435306667
40
1.778
1
ECO_REGISTRATION N
0
TEXT
8
PART_ATTR
10
0
20
1058.8955306667
40
1.778
1
READONLY Y
0
TEXT
8
PART_ATTR
10
0
20
1055.8475306667
40
1.778
1
SYSTEM Y
0
TEXT
8
PART_ATTR
10
0
20
1052.7995306667
40
1.778
1
HIDDEN Y
0
TEXT
8
PART_ATTR
10
0
20
1049.7515306667
40
1.778
1
ATTRIBUTE Rules.SameNet.Pad.Crn
0
TEXT
8
PART_ATTR
10
0
20
1046.7035306667
40
1.778
1
TYPE QUANTITY
0
TEXT
8
PART_ATTR
10
0
20
1043.6555306667
40
1.778
1
QUANTITY Size/Dimension
0
TEXT
8
PART_ATTR
10
0
20
1040.6075306667
40
1.778
1
ABBR 
0
TEXT
8
PART_ATTR
10
0
20
1037.5595306667
40
1.778
1
UNIT 
0
TEXT
8
PART_ATTR
10
0
20
1034.5115306667
40
1.778
1
MIN 
0
TEXT
8
PART_ATTR
10
0
20
1031.4635306667
40
1.778
1
MAX 25.40000mm
0
TEXT
8
PART_ATTR
10
0
20
1028.4155306667
40
1.778
1
INHERITANCE  PCB
0
TEXT
8
PART_ATTR
10
0
20
1025.3675306667
40
1.778
1
INHERITANCE  PART DECAL
0
TEXT
8
PART_ATTR
10
0
20
1022.3195306667
40
1.778
1
ECO_REGISTRATION N
0
TEXT
8
PART_ATTR
10
0
20
1019.2715306667
40
1.778
1
READONLY Y
0
TEXT
8
PART_ATTR
10
0
20
1016.2235306667
40
1.778
1
SYSTEM Y
0
TEXT
8
PART_ATTR
10
0
20
1013.1755306667
40
1.778
1
HIDDEN Y
0
TEXT
8
PART_ATTR
10
0
20
1010.1275306667
40
1.778
1
ATTRIBUTE Rules.SameNet.Trace.Crn
0
TEXT
8
PART_ATTR
10
0
20
1007.0795306667
40
1.778
1
TYPE QUANTITY
0
TEXT
8
PART_ATTR
10
0
20
1004.0315306667
40
1.778
1
QUANTITY Size/Dimension
0
TEXT
8
PART_ATTR
10
0
20
1000.9835306667
40
1.778
1
ABBR 
0
TEXT
8
PART_ATTR
10
0
20
997.9355306667
40
1.778
1
UNIT 
0
TEXT
8
PART_ATTR
10
0
20
994.8875306667
40
1.778
1
MIN 
0
TEXT
8
PART_ATTR
10
0
20
991.8395306667
40
1.778
1
MAX 25.40000mm
0
TEXT
8
PART_ATTR
10
0
20
988.7915306667
40
1.778
1
INHERITANCE  PCB
0
TEXT
8
PART_ATTR
10
0
20
985.7435306667
40
1.778
1
INHERITANCE  PART DECAL
0
TEXT
8
PART_ATTR
10
0
20
982.6955306667
40
1.778
1
ECO_REGISTRATION N
0
TEXT
8
PART_ATTR
10
0
20
979.6475306667
40
1.778
1
READONLY Y
0
TEXT
8
PART_ATTR
10
0
20
976.5995306667
40
1.778
1
SYSTEM Y
0
TEXT
8
PART_ATTR
10
0
20
973.5515306667
40
1.778
1
HIDDEN Y
0
TEXT
8
PART_ATTR
10
0
20
970.5035306667
40
1.778
1
ATTRIBUTE Rules.Width.Minimum
0
TEXT
8
PART_ATTR
10
0
20
967.4555306667
40
1.778
1
TYPE QUANTITY
0
TEXT
8
PART_ATTR
10
0
20
964.4075306667
40
1.778
1
QUANTITY Size/Dimension
0
TEXT
8
PART_ATTR
10
0
20
961.3595306667
40
1.778
1
ABBR 
0
TEXT
8
PART_ATTR
10
0
20
958.3115306667
40
1.778
1
UNIT 
0
TEXT
8
PART_ATTR
10
0
20
955.2635306667
40
1.778
1
MIN 
0
TEXT
8
PART_ATTR
10
0
20
952.2155306667
40
1.778
1
MAX 6.35000mm
0
TEXT
8
PART_ATTR
10
0
20
949.1675306667
40
1.778
1
INHERITANCE  PCB
0
TEXT
8
PART_ATTR
10
0
20
946.1195306667
40
1.778
1
INHERITANCE  PART DECAL
0
TEXT
8
PART_ATTR
10
0
20
943.0715306667
40
1.778
1
ECO_REGISTRATION N
0
TEXT
8
PART_ATTR
10
0
20
940.0235306667
40
1.778
1
READONLY Y
0
TEXT
8
PART_ATTR
10
0
20
936.9755306667
40
1.778
1
SYSTEM Y
0
TEXT
8
PART_ATTR
10
0
20
933.9275306667
40
1.778
1
HIDDEN Y
0
TEXT
8
PART_ATTR
10
0
20
930.8795306667
40
1.778
1
ATTRIBUTE Rules.Width.Recommended
0
TEXT
8
PART_ATTR
10
0
20
927.8315306667
40
1.778
1
TYPE QUANTITY
0
TEXT
8
PART_ATTR
10
0
20
924.7835306667
40
1.778
1
QUANTITY Size/Dimension
0
TEXT
8
PART_ATTR
10
0
20
921.7355306667
40
1.778
1
ABBR 
0
TEXT
8
PART_ATTR
10
0
20
918.6875306667
40
1.778
1
UNIT 
0
TEXT
8
PART_ATTR
10
0
20
915.6395306667
40
1.778
1
MIN 
0
TEXT
8
PART_ATTR
10
0
20
912.5915306667
40
1.778
1
MAX 6.35000mm
0
TEXT
8
PART_ATTR
10
0
20
909.5435306667
40
1.778
1
INHERITANCE  PCB
0
TEXT
8
PART_ATTR
10
0
20
906.4955306667
40
1.778
1
INHERITANCE  PART DECAL
0
TEXT
8
PART_ATTR
10
0
20
903.4475306667
40
1.778
1
ECO_REGISTRATION N
0
TEXT
8
PART_ATTR
10
0
20
900.3995306667
40
1.778
1
READONLY Y
0
TEXT
8
PART_ATTR
10
0
20
897.3515306667
40
1.778
1
SYSTEM Y
0
TEXT
8
PART_ATTR
10
0
20
894.3035306667
40
1.778
1
HIDDEN Y
0
TEXT
8
PART_ATTR
10
0
20
891.2555306667
40
1.778
1
ATTRIBUTE Rules.Width.Maximum
0
TEXT
8
PART_ATTR
10
0
20
888.2075306667
40
1.778
1
TYPE QUANTITY
0
TEXT
8
PART_ATTR
10
0
20
885.1595306667
40
1.778
1
QUANTITY Size/Dimension
0
TEXT
8
PART_ATTR
10
0
20
882.1115306667
40
1.778
1
ABBR 
0
TEXT
8
PART_ATTR
10
0
20
879.0635306667
40
1.778
1
UNIT 
0
TEXT
8
PART_ATTR
10
0
20
876.0155306667
40
1.778
1
MIN 
0
TEXT
8
PART_ATTR
10
0
20
872.9675306667
40
1.778
1
MAX 6.35000mm
0
TEXT
8
PART_ATTR
10
0
20
869.9195306667
40
1.778
1
INHERITANCE  PCB
0
TEXT
8
PART_ATTR
10
0
20
866.8715306667
40
1.778
1
INHERITANCE  PART DECAL
0
TEXT
8
PART_ATTR
10
0
20
863.8235306667
40
1.778
1
ECO_REGISTRATION N
0
TEXT
8
PART_ATTR
10
0
20
860.7755306667
40
1.778
1
READONLY Y
0
TEXT
8
PART_ATTR
10
0
20
857.7275306667
40
1.778
1
SYSTEM Y
0
TEXT
8
PART_ATTR
10
0
20
854.6795306667
40
1.778
1
HIDDEN Y
0
TEXT
8
PART_ATTR
10
0
20
851.6315306667
40
1.778
1
ATTRIBUTE Value
0
TEXT
8
PART_ATTR
10
0
20
848.5835306667
40
1.778
1
TYPE FREETEXT
0
TEXT
8
PART_ATTR
10
0
20
845.5355306667
40
1.778
1
INHERITANCE  PART PARTTYPE
0
TEXT
8
PART_ATTR
10
0
20
842.4875306667
40
1.778
1
ECO_REGISTRATION Y
0
TEXT
8
PART_ATTR
10
0
20
839.4395306667
40
1.778
1
READONLY N
0
TEXT
8
PART_ATTR
10
0
20
836.3915306667
40
1.778
1
SYSTEM Y
0
TEXT
8
PART_ATTR
10
0
20
833.3435306667
40
1.778
1
HIDDEN N
0
TEXT
8
PART_ATTR
10
0
20
830.2955306667
40
1.778
1
ATTRIBUTE Tolerance
0
TEXT
8
PART_ATTR
10
0
20
827.2475306667
40
1.778
1
TYPE FREETEXT
0
TEXT
8
PART_ATTR
10
0
20
824.1995306667
40
1.778
1
INHERITANCE  PART PARTTYPE
0
TEXT
8
PART_ATTR
10
0
20
821.1515306667
40
1.778
1
ECO_REGISTRATION Y
0
TEXT
8
PART_ATTR
10
0
20
818.1035306667
40
1.778
1
READONLY N
0
TEXT
8
PART_ATTR
10
0
20
815.0555306667
40
1.778
1
SYSTEM Y
0
TEXT
8
PART_ATTR
10
0
20
812.0075306667
40
1.778
1
HIDDEN N
0
TEXT
8
PART_ATTR
10
0
20
808.9595306667
40
1.778
1
ATTRIBUTE Part Number
0
TEXT
8
PART_ATTR
10
0
20
805.9115306667
40
1.778
1
TYPE FREETEXT
0
TEXT
8
PART_ATTR
10
0
20
802.8635306667
40
1.778
1
INHERITANCE  PART PARTTYPE
0
TEXT
8
PART_ATTR
10
0
20
799.8155306667
40
1.778
1
ECO_REGISTRATION Y
0
TEXT
8
PART_ATTR
10
0
20
796.7675306667
40
1.778
1
READONLY N
0
TEXT
8
PART_ATTR
10
0
20
793.7195306667
40
1.778
1
SYSTEM N
0
TEXT
8
PART_ATTR
10
0
20
790.6715306667
40
1.778
1
HIDDEN N
0
TEXT
8
PART_ATTR
10
0
20
787.6235306667
40
1.778
1
ATTRIBUTE Description
0
TEXT
8
PART_ATTR
10
0
20
784.5755306667
40
1.778
1
TYPE FREETEXT
0
TEXT
8
PART_ATTR
10
0
20
781.5275306667
40
1.778
1
INHERITANCE  PART PARTTYPE
0
TEXT
8
PART_ATTR
10
0
20
778.4795306667
40
1.778
1
ECO_REGISTRATION Y
0
TEXT
8
PART_ATTR
10
0
20
775.4315306667
40
1.778
1
READONLY N
0
TEXT
8
PART_ATTR
10
0
20
772.3835306667
40
1.778
1
SYSTEM N
0
TEXT
8
PART_ATTR
10
0
20
769.3355306667
40
1.778
1
HIDDEN N
0
TEXT
8
PART_ATTR
10
0
20
766.2875306667
40
1.778
1
ATTRIBUTE Cost
0
TEXT
8
PART_ATTR
10
0
20
763.2395306667
40
1.778
1
TYPE FREETEXT
0
TEXT
8
PART_ATTR
10
0
20
760.1915306667
40
1.778
1
INHERITANCE  PART PARTTYPE
0
TEXT
8
PART_ATTR
10
0
20
757.1435306667
40
1.778
1
ECO_REGISTRATION Y
0
TEXT
8
PART_ATTR
10
0
20
754.0955306667
40
1.778
1
READONLY N
0
TEXT
8
PART_ATTR
10
0
20
751.0475306667
40
1.778
1
SYSTEM N
0
TEXT
8
PART_ATTR
10
0
20
747.9995306667
40
1.778
1
HIDDEN N
0
TEXT
8
PART_ATTR
10
0
20
744.9515306667
40
1.778
1
ATTRIBUTE Manufacturer #1
0
TEXT
8
PART_ATTR
10
0
20
741.9035306667
40
1.778
1
TYPE FREETEXT
0
TEXT
8
PART_ATTR
10
0
20
738.8555306667
40
1.778
1
INHERITANCE  PART PARTTYPE
0
TEXT
8
PART_ATTR
10
0
20
735.8075306667
40
1.778
1
ECO_REGISTRATION Y
0
TEXT
8
PART_ATTR
10
0
20
732.7595306667
40
1.778
1
READONLY N
0
TEXT
8
PART_ATTR
10
0
20
729.7115306667
40
1.778
1
SYSTEM N
0
TEXT
8
PART_ATTR
10
0
20
726.6635306667
40
1.778
1
HIDDEN N
0
TEXT
8
PART_ATTR
10
0
20
723.6155306667
40
1.778
1
ATTRIBUTE Manufacturer #2
0
TEXT
8
PART_ATTR
10
0
20
720.5675306667
40
1.778
1
TYPE FREETEXT
0
TEXT
8
PART_ATTR
10
0
20
717.5195306667
40
1.778
1
INHERITANCE  PART PARTTYPE
0
TEXT
8
PART_ATTR
10
0
20
714.4715306667
40
1.778
1
ECO_REGISTRATION Y
0
TEXT
8
PART_ATTR
10
0
20
711.4235306667
40
1.778
1
READONLY N
0
TEXT
8
PART_ATTR
10
0
20
708.3755306667
40
1.778
1
SYSTEM N
0
TEXT
8
PART_ATTR
10
0
20
705.3275306667
40
1.778
1
HIDDEN N
0
TEXT
8
PART_ATTR
10
0
20
702.2795306667
40
1.778
1
ATTRIBUTE ASSEMBLY_OPTIONS
0
TEXT
8
PART_ATTR
10
0
20
699.2315306667
40
1.778
1
TYPE FREETEXT
0
TEXT
8
PART_ATTR
10
0
20
696.1835306667
40
1.778
1
INHERITANCE  PCB
0
TEXT
8
PART_ATTR
10
0
20
693.1355306667
40
1.778
1
INHERITANCE  PART
0
TEXT
8
PART_ATTR
10
0
20
690.0875306667
40
1.778
1
INHERITANCE  JUMPER
0
TEXT
8
PART_ATTR
10
0
20
687.0395306667
40
1.778
1
ECO_REGISTRATION Y
0
TEXT
8
PART_ATTR
10
0
20
683.9915306667
40
1.778
1
READONLY Y
0
TEXT
8
PART_ATTR
10
0
20
680.9435306667
40
1.778
1
SYSTEM Y
0
TEXT
8
PART_ATTR
10
0
20
677.8955306667
40
1.778
1
HIDDEN Y
0
TEXT
8
PART_ATTR
10
0
20
674.8475306667
40
1.778
1
ATTRIBUTE PowerGround
0
TEXT
8
PART_ATTR
10
0
20
671.7995306667
40
1.778
1
TYPE BOOLEAN
0
TEXT
8
PART_ATTR
10
0
20
668.7515306667
40
1.778
1
INHERITANCE  NET NETCLASS PCB
0
TEXT
8
PART_ATTR
10
0
20
665.7035306667
40
1.778
1
ECO_REGISTRATION Y
0
TEXT
8
PART_ATTR
10
0
20
662.6555306667
40
1.778
1
READONLY N
0
TEXT
8
PART_ATTR
10
0
20
659.6075306667
40
1.778
1
SYSTEM Y
0
TEXT
8
PART_ATTR
10
0
20
656.5595306667
40
1.778
1
HIDDEN N
0
TEXT
8
PART_ATTR
10
0
20
653.5115306667
40
1.778
1
ATTRIBUTE Voltage
0
TEXT
8
PART_ATTR
10
0
20
650.4635306667
40
1.778
1
TYPE QUANTITY
0
TEXT
8
PART_ATTR
10
0
20
647.4155306667
40
1.778
1
QUANTITY Voltage
0
TEXT
8
PART_ATTR
10
0
20
644.3675306667
40
1.778
1
ABBR V
0
TEXT
8
PART_ATTR
10
0
20
641.3195306667
40
1.778
1
UNIT Volt
0
TEXT
8
PART_ATTR
10
0
20
638.2715306667
40
1.778
1
MIN 
0
TEXT
8
PART_ATTR
10
0
20
635.2235306667
40
1.778
1
MAX 100kV
0
TEXT
8
PART_ATTR
10
0
20
632.1755306667
40
1.778
1
INHERITANCE  NET NETCLASS
0
TEXT
8
PART_ATTR
10
0
20
629.1275306667
40
1.778
1
ECO_REGISTRATION Y
0
TEXT
8
PART_ATTR
10
0
20
626.0795306667
40
1.778
1
READONLY N
0
TEXT
8
PART_ATTR
10
0
20
623.0315306667
40
1.778
1
SYSTEM Y
0
TEXT
8
PART_ATTR
10
0
20
619.9835306667
40
1.778
1
HIDDEN N
0
TEXT
8
PART_ATTR
10
0
20
616.9355306667
40
1.778
1
ATTRIBUTE Geometry.Height
0
TEXT
8
PART_ATTR
10
0
20
613.8875306667
40
1.778
1
TYPE QUANTITY
0
TEXT
8
PART_ATTR
10
0
20
610.8395306667
40
1.778
1
QUANTITY Size/Dimension
0
TEXT
8
PART_ATTR
10
0
20
607.7915306667
40
1.778
1
ABBR 
0
TEXT
8
PART_ATTR
10
0
20
604.7435306667
40
1.778
1
UNIT 
0
TEXT
8
PART_ATTR
10
0
20
601.6955306667
40
1.778
1
MIN 
0
TEXT
8
PART_ATTR
10
0
20
598.6475306667
40
1.778
1
MAX 635.00000mm
0
TEXT
8
PART_ATTR
10
0
20
595.5995306667
40
1.778
1
INHERITANCE  PCB
0
TEXT
8
PART_ATTR
10
0
20
592.5515306667
40
1.778
1
INHERITANCE  PART PARTTYPE DECAL
0
TEXT
8
PART_ATTR
10
0
20
589.5035306667
40
1.778
1
ECO_REGISTRATION N
0
TEXT
8
PART_ATTR
10
0
20
586.4555306667
40
1.778
1
READONLY N
0
TEXT
8
PART_ATTR
10
0
20
583.4075306667
40
1.778
1
SYSTEM Y
0
TEXT
8
PART_ATTR
10
0
20
580.3595306667
40
1.778
1
HIDDEN N
0
TEXT
8
PART_ATTR
10
0
20
577.3115306667
40
1.778
1
ATTRIBUTE DFT.Nail Count Per Net
0
TEXT
8
PART_ATTR
10
0
20
574.2635306667
40
1.778
1
TYPE INTEGER
0
TEXT
8
PART_ATTR
10
0
20
571.2155306667
40
1.778
1
MIN 0
0
TEXT
8
PART_ATTR
10
0
20
568.1675306667
40
1.778
1
MAX 1000
0
TEXT
8
PART_ATTR
10
0
20
565.1195306667
40
1.778
1
INHERITANCE  NET NETCLASS PCB
0
TEXT
8
PART_ATTR
10
0
20
562.0715306667
40
1.778
1
ECO_REGISTRATION Y
0
TEXT
8
PART_ATTR
10
0
20
559.0235306667
40
1.778
1
READONLY N
0
TEXT
8
PART_ATTR
10
0
20
555.9755306667
40
1.778
1
SYSTEM Y
0
TEXT
8
PART_ATTR
10
0
20
552.9275306667
40
1.778
1
HIDDEN N
0
TEXT
8
PART_ATTR
10
0
20
549.8795306667
40
1.778
1
ATTRIBUTE DFT.Nail Diameter
0
TEXT
8
PART_ATTR
10
0
20
546.8315306667
40
1.778
1
TYPE FREETEXT
0
TEXT
8
PART_ATTR
10
0
20
543.7835306667
40
1.778
1
INHERITANCE  PIN
0
TEXT
8
PART_ATTR
10
0
20
540.7355306667
40
1.778
1
INHERITANCE  VIA
0
TEXT
8
PART_ATTR
10
0
20
537.6875306667
40
1.778
1
ECO_REGISTRATION N
0
TEXT
8
PART_ATTR
10
0
20
534.6395306667
40
1.778
1
READONLY N
0
TEXT
8
PART_ATTR
10
0
20
531.5915306667
40
1.778
1
SYSTEM Y
0
TEXT
8
PART_ATTR
10
0
20
528.5435306667
40
1.778
1
HIDDEN N
0
TEXT
8
PART_ATTR
10
0
20
525.4955306667
40
1.778
1
ATTRIBUTE DFT.Nail Number
0
TEXT
8
PART_ATTR
10
0
20
522.4475306667
40
1.778
1
TYPE FREETEXT
0
TEXT
8
PART_ATTR
10
0
20
519.3995306667
40
1.778
1
INHERITANCE  PIN
0
TEXT
8
PART_ATTR
10
0
20
516.3515306667
40
1.778
1
INHERITANCE  VIA
0
TEXT
8
PART_ATTR
10
0
20
513.3035306667
40
1.778
1
ECO_REGISTRATION N
0
TEXT
8
PART_ATTR
10
0
20
510.2555306667
40
1.778
1
READONLY N
0
TEXT
8
PART_ATTR
10
0
20
507.2075306667
40
1.778
1
SYSTEM Y
0
TEXT
8
PART_ATTR
10
0
20
504.1595306667
40
1.778
1
HIDDEN N
0
TEXT
8
PART_ATTR
10
0
20
501.1115306667
40
1.778
1
ATTRIBUTE DFT.Probe to Trace Clearance
0
TEXT
8
PART_ATTR
10
0
20
498.0635306667
40
1.778
1
TYPE QUANTITY
0
TEXT
8
PART_ATTR
10
0
20
495.0155306667
40
1.778
1
QUANTITY Size/Dimension
0
TEXT
8
PART_ATTR
10
0
20
491.9675306667
40
1.778
1
ABBR 
0
TEXT
8
PART_ATTR
10
0
20
488.9195306667
40
1.778
1
UNIT 
0
TEXT
8
PART_ATTR
10
0
20
485.8715306667
40
1.778
1
MIN 
0
TEXT
8
PART_ATTR
10
0
20
482.8235306667
40
1.778
1
MAX 25.40000mm
0
TEXT
8
PART_ATTR
10
0
20
479.7755306667
40
1.778
1
INHERITANCE  PCB
0
TEXT
8
PART_ATTR
10
0
20
476.7275306667
40
1.778
1
ECO_REGISTRATION N
0
TEXT
8
PART_ATTR
10
0
20
473.6795306667
40
1.778
1
READONLY Y
0
TEXT
8
PART_ATTR
10
0
20
470.6315306667
40
1.778
1
SYSTEM Y
0
TEXT
8
PART_ATTR
10
0
20
467.5835306667
40
1.778
1
HIDDEN Y
0
TEXT
8
PART_ATTR
10
0
20
464.5355306667
40
1.778
1
ATTRIBUTE DFT.Probe to Pad Clearance
0
TEXT
8
PART_ATTR
10
0
20
461.4875306667
40
1.778
1
TYPE QUANTITY
0
TEXT
8
PART_ATTR
10
0
20
458.4395306667
40
1.778
1
QUANTITY Size/Dimension
0
TEXT
8
PART_ATTR
10
0
20
455.3915306667
40
1.778
1
ABBR 
0
TEXT
8
PART_ATTR
10
0
20
452.3435306667
40
1.778
1
UNIT 
0
TEXT
8
PART_ATTR
10
0
20
449.2955306667
40
1.778
1
MIN 
0
TEXT
8
PART_ATTR
10
0
20
446.2475306667
40
1.778
1
MAX 25.40000mm
0
TEXT
8
PART_ATTR
10
0
20
443.1995306667
40
1.778
1
INHERITANCE  PCB
0
TEXT
8
PART_ATTR
10
0
20
440.1515306667
40
1.778
1
ECO_REGISTRATION N
0
TEXT
8
PART_ATTR
10
0
20
437.1035306667
40
1.778
1
READONLY Y
0
TEXT
8
PART_ATTR
10
0
20
434.0555306667
40
1.778
1
SYSTEM Y
0
TEXT
8
PART_ATTR
10
0
20
431.0075306667
40
1.778
1
HIDDEN Y
0
TEXT
8
PART_ATTR
10
0
20
427.9595306667
40
1.778
1
ATTRIBUTE DFT.Generate Test Points
0
TEXT
8
PART_ATTR
10
0
20
424.9115306667
40
1.778
1
TYPE BOOLEAN
0
TEXT
8
PART_ATTR
10
0
20
421.8635306667
40
1.778
1
INHERITANCE  PCB
0
TEXT
8
PART_ATTR
10
0
20
418.8155306667
40
1.778
1
ECO_REGISTRATION N
0
TEXT
8
PART_ATTR
10
0
20
415.7675306667
40
1.778
1
READONLY Y
0
TEXT
8
PART_ATTR
10
0
20
412.7195306667
40
1.778
1
SYSTEM Y
0
TEXT
8
PART_ATTR
10
0
20
409.6715306667
40
1.778
1
HIDDEN Y
0
TEXT
8
PART_ATTR
10
0
20
406.6235306667
40
1.778
1
ATTRIBUTE DFT.Allow Stubs
0
TEXT
8
PART_ATTR
10
0
20
403.5755306667
40
1.778
1
TYPE BOOLEAN
0
TEXT
8
PART_ATTR
10
0
20
400.5275306667
40
1.778
1
INHERITANCE  PCB
0
TEXT
8
PART_ATTR
10
0
20
397.4795306667
40
1.778
1
ECO_REGISTRATION N
0
TEXT
8
PART_ATTR
10
0
20
394.4315306667
40
1.778
1
READONLY Y
0
TEXT
8
PART_ATTR
10
0
20
391.3835306667
40
1.778
1
SYSTEM Y
0
TEXT
8
PART_ATTR
10
0
20
388.3355306667
40
1.778
1
HIDDEN Y
0
TEXT
8
PART_ATTR
10
0
20
385.2875306667
40
1.778
1
ATTRIBUTE DFT.Stub Length
0
TEXT
8
PART_ATTR
10
0
20
382.2395306667
40
1.778
1
TYPE QUANTITY
0
TEXT
8
PART_ATTR
10
0
20
379.1915306667
40
1.778
1
QUANTITY Size/Dimension
0
TEXT
8
PART_ATTR
10
0
20
376.1435306667
40
1.778
1
ABBR 
0
TEXT
8
PART_ATTR
10
0
20
373.0955306667
40
1.778
1
UNIT 
0
TEXT
8
PART_ATTR
10
0
20
370.0475306667
40
1.778
1
MIN 
0
TEXT
8
PART_ATTR
10
0
20
366.9995306667
40
1.778
1
MAX 50.80000mm
0
TEXT
8
PART_ATTR
10
0
20
363.9515306667
40
1.778
1
INHERITANCE  PCB
0
TEXT
8
PART_ATTR
10
0
20
360.9035306667
40
1.778
1
ECO_REGISTRATION N
0
TEXT
8
PART_ATTR
10
0
20
357.8555306667
40
1.778
1
READONLY Y
0
TEXT
8
PART_ATTR
10
0
20
354.8075306667
40
1.778
1
SYSTEM Y
0
TEXT
8
PART_ATTR
10
0
20
351.7595306667
40
1.778
1
HIDDEN Y
0
TEXT
8
PART_ATTR
10
0
20
348.7115306667
40
1.778
1
ATTRIBUTE DFT.Use Via Grid
0
TEXT
8
PART_ATTR
10
0
20
345.6635306667
40
1.778
1
TYPE BOOLEAN
0
TEXT
8
PART_ATTR
10
0
20
342.6155306667
40
1.778
1
INHERITANCE  PCB
0
TEXT
8
PART_ATTR
10
0
20
339.5675306667
40
1.778
1
ECO_REGISTRATION N
0
TEXT
8
PART_ATTR
10
0
20
336.5195306667
40
1.778
1
READONLY Y
0
TEXT
8
PART_ATTR
10
0
20
333.4715306667
40
1.778
1
SYSTEM Y
0
TEXT
8
PART_ATTR
10
0
20
330.4235306667
40
1.778
1
HIDDEN Y
0
TEXT
8
PART_ATTR
10
0
20
327.3755306667
40
1.778
1
ATTRIBUTE DFT.Grid X-Coordinate
0
TEXT
8
PART_ATTR
10
0
20
324.3275306667
40
1.778
1
TYPE QUANTITY
0
TEXT
8
PART_ATTR
10
0
20
321.2795306667
40
1.778
1
QUANTITY Size/Dimension
0
TEXT
8
PART_ATTR
10
0
20
318.2315306667
40
1.778
1
ABBR 
0
TEXT
8
PART_ATTR
10
0
20
315.1835306667
40
1.778
1
UNIT 
0
TEXT
8
PART_ATTR
10
0
20
312.1355306667
40
1.778
1
MIN 
0
TEXT
8
PART_ATTR
10
0
20
309.0875306667
40
1.778
1
MAX 50.80000mm
0
TEXT
8
PART_ATTR
10
0
20
306.0395306667
40
1.778
1
INHERITANCE  PCB
0
TEXT
8
PART_ATTR
10
0
20
302.9915306667
40
1.778
1
ECO_REGISTRATION N
0
TEXT
8
PART_ATTR
10
0
20
299.9435306667
40
1.778
1
READONLY Y
0
TEXT
8
PART_ATTR
10
0
20
296.8955306667
40
1.778
1
SYSTEM Y
0
TEXT
8
PART_ATTR
10
0
20
293.8475306667
40
1.778
1
HIDDEN Y
0
TEXT
8
PART_ATTR
10
0
20
290.7995306667
40
1.778
1
ATTRIBUTE DFT.Grid Y-Coordinate
0
TEXT
8
PART_ATTR
10
0
20
287.7515306667
40
1.778
1
TYPE QUANTITY
0
TEXT
8
PART_ATTR
10
0
20
284.7035306667
40
1.778
1
QUANTITY Size/Dimension
0
TEXT
8
PART_ATTR
10
0
20
281.6555306667
40
1.778
1
ABBR 
0
TEXT
8
PART_ATTR
10
0
20
278.6075306667
40
1.778
1
UNIT 
0
TEXT
8
PART_ATTR
10
0
20
275.5595306667
40
1.778
1
MIN 
0
TEXT
8
PART_ATTR
10
0
20
272.5115306667
40
1.778
1
MAX 50.80000mm
0
TEXT
8
PART_ATTR
10
0
20
269.4635306667
40
1.778
1
INHERITANCE  PCB
0
TEXT
8
PART_ATTR
10
0
20
266.4155306667
40
1.778
1
ECO_REGISTRATION N
0
TEXT
8
PART_ATTR
10
0
20
263.3675306667
40
1.778
1
READONLY Y
0
TEXT
8
PART_ATTR
10
0
20
260.3195306667
40
1.778
1
SYSTEM Y
0
TEXT
8
PART_ATTR
10
0
20
257.2715306667
40
1.778
1
HIDDEN Y
0
TEXT
8
PART_ATTR
10
0
20
254.2235306667
40
1.778
1
ATTRIBUTE DFT.Preserve Test Points
0
TEXT
8
PART_ATTR
10
0
20
251.1755306667
40
1.778
1
TYPE BOOLEAN
0
TEXT
8
PART_ATTR
10
0
20
248.1275306667
40
1.778
1
INHERITANCE  PCB
0
TEXT
8
PART_ATTR
10
0
20
245.0795306667
40
1.778
1
ECO_REGISTRATION N
0
TEXT
8
PART_ATTR
10
0
20
242.0315306667
40
1.778
1
READONLY Y
0
TEXT
8
PART_ATTR
10
0
20
238.9835306667
40
1.778
1
SYSTEM Y
0
TEXT
8
PART_ATTR
10
0
20
235.9355306667
40
1.778
1
HIDDEN Y
0
TEXT
8
PART_ATTR
10
0
20
232.8875306667
40
1.778
1
ATTRIBUTE DFT.Insert Test Point Vias
0
TEXT
8
PART_ATTR
10
0
20
229.8395306667
40
1.778
1
TYPE BOOLEAN
0
TEXT
8
PART_ATTR
10
0
20
226.7915306667
40
1.778
1
INHERITANCE  PCB
0
TEXT
8
PART_ATTR
10
0
20
223.7435306667
40
1.778
1
ECO_REGISTRATION N
0
TEXT
8
PART_ATTR
10
0
20
220.6955306667
40
1.778
1
READONLY Y
0
TEXT
8
PART_ATTR
10
0
20
217.6475306667
40
1.778
1
SYSTEM Y
0
TEXT
8
PART_ATTR
10
0
20
214.5995306667
40
1.778
1
HIDDEN Y
0
TEXT
8
PART_ATTR
10
0
20
211.5515306667
40
1.778
1
ATTRIBUTE DFT.Probe Pins
0
TEXT
8
PART_ATTR
10
0
20
208.5035306667
40
1.778
1
TYPE BOOLEAN
0
TEXT
8
PART_ATTR
10
0
20
205.4555306667
40
1.778
1
INHERITANCE  PCB
0
TEXT
8
PART_ATTR
10
0
20
202.4075306667
40
1.778
1
ECO_REGISTRATION N
0
TEXT
8
PART_ATTR
10
0
20
199.3595306667
40
1.778
1
READONLY Y
0
TEXT
8
PART_ATTR
10
0
20
196.3115306667
40
1.778
1
SYSTEM Y
0
TEXT
8
PART_ATTR
10
0
20
193.2635306667
40
1.778
1
HIDDEN Y
0
TEXT
8
PART_ATTR
10
0
20
190.2155306667
40
1.778
1
ATTRIBUTE HyperLynx.Model
0
TEXT
8
PART_ATTR
10
0
20
187.1675306667
40
1.778
1
TYPE FREETEXT
0
TEXT
8
PART_ATTR
10
0
20
184.1195306667
40
1.778
1
INHERITANCE  PART PARTTYPE
0
TEXT
8
PART_ATTR
10
0
20
181.0715306667
40
1.778
1
ECO_REGISTRATION Y
0
TEXT
8
PART_ATTR
10
0
20
178.0235306667
40
1.778
1
READONLY N
0
TEXT
8
PART_ATTR
10
0
20
174.9755306667
40
1.778
1
SYSTEM Y
0
TEXT
8
PART_ATTR
10
0
20
171.9275306667
40
1.778
1
HIDDEN N
0
TEXT
8
PART_ATTR
10
0
20
168.8795306667
40
1.778
1
ATTRIBUTE HyperLynx.Model File
0
TEXT
8
PART_ATTR
10
0
20
165.8315306667
40
1.778
1
TYPE FREETEXT
0
TEXT
8
PART_ATTR
10
0
20
162.7835306667
40
1.778
1
INHERITANCE  PART PARTTYPE
0
TEXT
8
PART_ATTR
10
0
20
159.7355306667
40
1.778
1
ECO_REGISTRATION Y
0
TEXT
8
PART_ATTR
10
0
20
156.6875306667
40
1.778
1
READONLY N
0
TEXT
8
PART_ATTR
10
0
20
153.6395306667
40
1.778
1
SYSTEM Y
0
TEXT
8
PART_ATTR
10
0
20
150.5915306667
40
1.778
1
HIDDEN N
0
TEXT
8
PART_ATTR
10
0
20
147.5435306667
40
1.778
1
ATTRIBUTE HyperLynx.Sim Direction
0
TEXT
8
PART_ATTR
10
0
20
144.4955306667
40
1.778
1
TYPE LIST N
0
TEXT
8
PART_ATTR
10
0
20
141.4475306667
40
1.778
1
LIST SIM_BOTH
0
TEXT
8
PART_ATTR
10
0
20
138.3995306667
40
1.778
1
LIST SIM_IN
0
TEXT
8
PART_ATTR
10
0
20
135.3515306667
40
1.778
1
LIST SIM_OUT
0
TEXT
8
PART_ATTR
10
0
20
132.3035306667
40
1.778
1
INHERITANCE  PIN
0
TEXT
8
PART_ATTR
10
0
20
129.2555306667
40
1.778
1
ECO_REGISTRATION Y
0
TEXT
8
PART_ATTR
10
0
20
126.2075306667
40
1.778
1
READONLY N
0
TEXT
8
PART_ATTR
10
0
20
123.1595306667
40
1.778
1
SYSTEM Y
0
TEXT
8
PART_ATTR
10
0
20
120.1115306667
40
1.778
1
HIDDEN N
0
TEXT
8
PART_ATTR
10
0
20
117.0635306667
40
1.778
1
ATTRIBUTE HyperLynx.Frequency
0
TEXT
8
PART_ATTR
10
0
20
114.0155306667
40
1.778
1
TYPE QUANTITY
0
TEXT
8
PART_ATTR
10
0
20
110.9675306667
40
1.778
1
QUANTITY Frequency
0
TEXT
8
PART_ATTR
10
0
20
107.9195306667
40
1.778
1
ABBR Hz
0
TEXT
8
PART_ATTR
10
0
20
104.8715306667
40
1.778
1
UNIT Hertz
0
TEXT
8
PART_ATTR
10
0
20
101.8235306667
40
1.778
1
MIN 
0
TEXT
8
PART_ATTR
10
0
20
98.7755306667
40
1.778
1
MAX 1000GHz
0
TEXT
8
PART_ATTR
10
0
20
95.7275306667
40
1.778
1
INHERITANCE  NET NETCLASS
0
TEXT
8
PART_ATTR
10
0
20
92.6795306667
40
1.778
1
ECO_REGISTRATION Y
0
TEXT
8
PART_ATTR
10
0
20
89.6315306667
40
1.778
1
READONLY N
0
TEXT
8
PART_ATTR
10
0
20
86.5835306667
40
1.778
1
SYSTEM Y
0
TEXT
8
PART_ATTR
10
0
20
83.5355306667
40
1.778
1
HIDDEN N
0
TEXT
8
PART_ATTR
10
0
20
80.4875306667
40
1.778
1
ATTRIBUTE HyperLynx.Duty Cycle
0
TEXT
8
PART_ATTR
10
0
20
77.4395306667
40
1.778
1
TYPE QUANTITY
0
TEXT
8
PART_ATTR
10
0
20
74.3915306667
40
1.778
1
QUANTITY 
0
TEXT
8
PART_ATTR
10
0
20
71.3435306667
40
1.778
1
ABBR %
0
TEXT
8
PART_ATTR
10
0
20
68.2955306667
40
1.778
1
UNIT percent
0
TEXT
8
PART_ATTR
10
0
20
65.2475306667
40
1.778
1
MIN 
0
TEXT
8
PART_ATTR
10
0
20
62.1995306667
40
1.778
1
MAX 100%
0
TEXT
8
PART_ATTR
10
0
20
59.1515306667
40
1.778
1
INHERITANCE  NET NETCLASS
0
TEXT
8
PART_ATTR
10
0
20
56.1035306667
40
1.778
1
ECO_REGISTRATION Y
0
TEXT
8
PART_ATTR
10
0
20
53.0555306667
40
1.778
1
READONLY N
0
TEXT
8
PART_ATTR
10
0
20
50.0075306667
40
1.778
1
SYSTEM Y
0
TEXT
8
PART_ATTR
10
0
20
46.9595306667
40
1.778
1
HIDDEN N
0
TEXT
8
PART_ATTR
10
0
20
43.9115306667
40
1.778
1
ATTRIBUTE HyperLynx.Signal Type
0
TEXT
8
PART_ATTR
10
0
20
40.8635306667
40
1.778
1
TYPE LIST N
0
TEXT
8
PART_ATTR
10
0
20
37.8155306667
40
1.778
1
LIST Address
0
TEXT
8
PART_ATTR
10
0
20
34.7675306667
40
1.778
1
LIST Analog High Speed
0
TEXT
8
PART_ATTR
10
0
20
31.7195306667
40
1.778
1
LIST Analog Low Speed
0
TEXT
8
PART_ATTR
10
0
20
28.6715306667
40
1.778
1
LIST Clock
0
TEXT
8
PART_ATTR
10
0
20
25.6235306667
40
1.778
1
LIST Data
0
TEXT
8
PART_ATTR
10
0
20
22.5755306667
40
1.778
1
LIST Do Not Analyze
0
TEXT
8
PART_ATTR
10
0
20
19.5275306667
40
1.778
1
LIST Power Supply
0
TEXT
8
PART_ATTR
10
0
20
16.4795306667
40
1.778
1
LIST Strobe
0
TEXT
8
PART_ATTR
10
0
20
13.4315306667
40
1.778
1
INHERITANCE  NET NETCLASS
0
TEXT
8
PART_ATTR
10
0
20
10.3835306667
40
1.778
1
ECO_REGISTRATION Y
0
TEXT
8
PART_ATTR
10
0
20
7.3355306667
40
1.778
1
READONLY N
0
TEXT
8
PART_ATTR
10
0
20
4.2875306667
40
1.778
1
SYSTEM Y
0
TEXT
8
PART_ATTR
10
0
20
1.2395306667
40
1.778
1
HIDDEN N
0
TEXT
8
PART_ATTR
10
0
20
-1.8084693333
40
1.778
1
ATTRIBUTE HyperLynx.Default IC.Model
0
TEXT
8
PART_ATTR
10
0
20
-4.8564693333
40
1.778
1
TYPE FREETEXT
0
TEXT
8
PART_ATTR
10
0
20
-7.9044693333
40
1.778
1
INHERITANCE  NET NETCLASS
0
TEXT
8
PART_ATTR
10
0
20
-10.9524693333
40
1.778
1
ECO_REGISTRATION Y
0
TEXT
8
PART_ATTR
10
0
20
-14.0004693333
40
1.778
1
READONLY N
0
TEXT
8
PART_ATTR
10
0
20
-17.0484693333
40
1.778
1
SYSTEM Y
0
TEXT
8
PART_ATTR
10
0
20
-20.0964693333
40
1.778
1
HIDDEN N
0
TEXT
8
PART_ATTR
10
0
20
-23.1444693333
40
1.778
1
ATTRIBUTE HyperLynx.Default IC.Model File
0
TEXT
8
PART_ATTR
10
0
20
-26.1924693333
40
1.778
1
TYPE FREETEXT
0
TEXT
8
PART_ATTR
10
0
20
-29.2404693333
40
1.778
1
INHERITANCE  NET NETCLASS
0
TEXT
8
PART_ATTR
10
0
20
-32.2884693333
40
1.778
1
ECO_REGISTRATION Y
0
TEXT
8
PART_ATTR
10
0
20
-35.3364693333
40
1.778
1
READONLY N
0
TEXT
8
PART_ATTR
10
0
20
-38.3844693333
40
1.778
1
SYSTEM Y
0
TEXT
8
PART_ATTR
10
0
20
-41.4324693333
40
1.778
1
HIDDEN N
0
TEXT
8
PART_ATTR
10
0
20
-44.4804693333
40
1.778
1
ATTRIBUTE HyperLynx.Default IC.Model Pin
0
TEXT
8
PART_ATTR
10
0
20
-47.5284693333
40
1.778
1
TYPE FREETEXT
0
TEXT
8
PART_ATTR
10
0
20
-50.5764693333
40
1.778
1
INHERITANCE  NET NETCLASS
0
TEXT
8
PART_ATTR
10
0
20
-53.6244693333
40
1.778
1
ECO_REGISTRATION Y
0
TEXT
8
PART_ATTR
10
0
20
-56.6724693333
40
1.778
1
READONLY N
0
TEXT
8
PART_ATTR
10
0
20
-59.7204693333
40
1.778
1
SYSTEM Y
0
TEXT
8
PART_ATTR
10
0
20
-62.7684693333
40
1.778
1
HIDDEN N
0
TEXT
8
PART_ATTR
10
0
20
-65.8164693333
40
1.778
1
ATTRIBUTE Strategy.Fanout.Pass
0
TEXT
8
PART_ATTR
10
0
20
-68.8644693333
40
1.778
1
TYPE LIST N
0
TEXT
8
PART_ATTR
10
0
20
-71.9124693333
40
1.778
1
LIST No
0
TEXT
8
PART_ATTR
10
0
20
-74.9604693333
40
1.778
1
LIST Yes
0
TEXT
8
PART_ATTR
10
0
20
-78.0084693333
40
1.778
1
LIST Done
0
TEXT
8
PART_ATTR
10
0
20
-81.0564693333
40
1.778
1
INHERITANCE  PCB
0
TEXT
8
PART_ATTR
10
0
20
-84.1044693333
40
1.778
1
ECO_REGISTRATION N
0
TEXT
8
PART_ATTR
10
0
20
-87.1524693333
40
1.778
1
READONLY Y
0
TEXT
8
PART_ATTR
10
0
20
-90.2004693333
40
1.778
1
SYSTEM Y
0
TEXT
8
PART_ATTR
10
0
20
-93.2484693333
40
1.778
1
HIDDEN Y
0
TEXT
8
PART_ATTR
10
0
20
-96.2964693333
40
1.778
1
ATTRIBUTE Strategy.Fanout.Protect
0
TEXT
8
PART_ATTR
10
0
20
-99.3444693333
40
1.778
1
TYPE BOOLEAN
0
TEXT
8
PART_ATTR
10
0
20
-102.3924693333
40
1.778
1
INHERITANCE  PCB
0
TEXT
8
PART_ATTR
10
0
20
-105.4404693333
40
1.778
1
ECO_REGISTRATION N
0
TEXT
8
PART_ATTR
10
0
20
-108.4884693333
40
1.778
1
READONLY Y
0
TEXT
8
PART_ATTR
10
0
20
-111.5364693333
40
1.778
1
SYSTEM Y
0
TEXT
8
PART_ATTR
10
0
20
-114.5844693333
40
1.778
1
HIDDEN Y
0
TEXT
8
PART_ATTR
10
0
20
-117.6324693333
40
1.778
1
ATTRIBUTE Strategy.Fanout.Pause
0
TEXT
8
PART_ATTR
10
0
20
-120.6804693333
40
1.778
1
TYPE BOOLEAN
0
TEXT
8
PART_ATTR
10
0
20
-123.7284693333
40
1.778
1
INHERITANCE  PCB
0
TEXT
8
PART_ATTR
10
0
20
-126.7764693333
40
1.778
1
ECO_REGISTRATION N
0
TEXT
8
PART_ATTR
10
0
20
-129.8244693333
40
1.778
1
READONLY Y
0
TEXT
8
PART_ATTR
10
0
20
-132.8724693333
40
1.778
1
SYSTEM Y
0
TEXT
8
PART_ATTR
10
0
20
-135.9204693333
40
1.778
1
HIDDEN Y
0
TEXT
8
PART_ATTR
10
0
20
-138.9684693333
40
1.778
1
ATTRIBUTE Strategy.Fanout.Intensity
0
TEXT
8
PART_ATTR
10
0
20
-142.0164693333
40
1.778
1
TYPE LIST N
0
TEXT
8
PART_ATTR
10
0
20
-145.0644693333
40
1.778
1
LIST Low
0
TEXT
8
PART_ATTR
10
0
20
-148.1124693333
40
1.778
1
LIST Medium
0
TEXT
8
PART_ATTR
10
0
20
-151.1604693333
40
1.778
1
LIST High
0
TEXT
8
PART_ATTR
10
0
20
-154.2084693333
40
1.778
1
INHERITANCE  PCB
0
TEXT
8
PART_ATTR
10
0
20
-157.2564693333
40
1.778
1
ECO_REGISTRATION N
0
TEXT
8
PART_ATTR
10
0
20
-160.3044693333
40
1.778
1
READONLY Y
0
TEXT
8
PART_ATTR
10
0
20
-163.3524693333
40
1.778
1
SYSTEM Y
0
TEXT
8
PART_ATTR
10
0
20
-166.4004693333
40
1.778
1
HIDDEN Y
0
TEXT
8
PART_ATTR
10
0
20
-169.4484693333
40
1.778
1
ATTRIBUTE Strategy.Fanout.Priority
0
TEXT
8
PART_ATTR
10
0
20
-172.4964693333
40
1.778
1
TYPE INTEGER
0
TEXT
8
PART_ATTR
10
0
20
-175.5444693333
40
1.778
1
MIN 0
0
TEXT
8
PART_ATTR
10
0
20
-178.5924693333
40
1.778
1
MAX 2147483647
0
TEXT
8
PART_ATTR
10
0
20
-181.6404693333
40
1.778
1
INHERITANCE  NET NETCLASS PCB
0
TEXT
8
PART_ATTR
10
0
20
-184.6884693333
40
1.778
1
INHERITANCE  PART
0
TEXT
8
PART_ATTR
10
0
20
-187.7364693333
40
1.778
1
INHERITANCE  PINPAIR
0
TEXT
8
PART_ATTR
10
0
20
-190.7844693333
40
1.778
1
ECO_REGISTRATION N
0
TEXT
8
PART_ATTR
10
0
20
-193.8324693333
40
1.778
1
READONLY Y
0
TEXT
8
PART_ATTR
10
0
20
-196.8804693333
40
1.778
1
SYSTEM Y
0
TEXT
8
PART_ATTR
10
0
20
-199.9284693333
40
1.778
1
HIDDEN Y
0
TEXT
8
PART_ATTR
10
0
20
-202.9764693333
40
1.778
1
ATTRIBUTE Strategy.Fanout.PlanePriority
0
TEXT
8
PART_ATTR
10
0
20
-206.0244693333
40
1.778
1
TYPE INTEGER
0
TEXT
8
PART_ATTR
10
0
20
-209.0724693333
40
1.778
1
MIN 0
0
TEXT
8
PART_ATTR
10
0
20
-212.1204693333
40
1.778
1
MAX 2147483647
0
TEXT
8
PART_ATTR
10
0
20
-215.1684693333
40
1.778
1
INHERITANCE  PCB
0
TEXT
8
PART_ATTR
10
0
20
-218.2164693333
40
1.778
1
ECO_REGISTRATION N
0
TEXT
8
PART_ATTR
10
0
20
-221.2644693333
40
1.778
1
READONLY Y
0
TEXT
8
PART_ATTR
10
0
20
-224.3124693333
40
1.778
1
SYSTEM Y
0
TEXT
8
PART_ATTR
10
0
20
-227.3604693333
40
1.778
1
HIDDEN Y
0
TEXT
8
PART_ATTR
10
0
20
-230.4084693333
40
1.778
1
ATTRIBUTE Strategy.Fanout.DiffPairPriority
0
TEXT
8
PART_ATTR
10
0
20
-233.4564693333
40
1.778
1
TYPE INTEGER
0
TEXT
8
PART_ATTR
10
0
20
-236.5044693333
40
1.778
1
MIN 0
0
TEXT
8
PART_ATTR
10
0
20
-239.5524693333
40
1.778
1
MAX 2147483647
0
TEXT
8
PART_ATTR
10
0
20
-242.6004693333
40
1.778
1
INHERITANCE  NET
0
TEXT
8
PART_ATTR
10
0
20
-245.6484693333
40
1.778
1
INHERITANCE  PINPAIR
0
TEXT
8
PART_ATTR
10
0
20
-248.6964693333
40
1.778
1
ECO_REGISTRATION N
0
TEXT
8
PART_ATTR
10
0
20
-251.7444693333
40
1.778
1
READONLY Y
0
TEXT
8
PART_ATTR
10
0
20
-254.7924693333
40
1.778
1
SYSTEM Y
0
TEXT
8
PART_ATTR
10
0
20
-257.8404693333
40
1.778
1
HIDDEN Y
0
TEXT
8
PART_ATTR
10
0
20
-260.8884693333
40
1.778
1
ATTRIBUTE Strategy.Fanout.MLGPriority
0
TEXT
8
PART_ATTR
10
0
20
-263.9364693333
40
1.778
1
TYPE INTEGER
0
TEXT
8
PART_ATTR
10
0
20
-266.9844693333
40
1.778
1
MIN 0
0
TEXT
8
PART_ATTR
10
0
20
-270.0324693333
40
1.778
1
MAX 2147483647
0
TEXT
8
PART_ATTR
10
0
20
-273.0804693333
40
1.778
1
INHERITANCE  NET NETCLASS PCB
0
TEXT
8
PART_ATTR
10
0
20
-276.1284693333
40
1.778
1
INHERITANCE  PINPAIR GROUP
0
TEXT
8
PART_ATTR
10
0
20
-279.1764693333
40
1.778
1
ECO_REGISTRATION N
0
TEXT
8
PART_ATTR
10
0
20
-282.2244693333
40
1.778
1
READONLY Y
0
TEXT
8
PART_ATTR
10
0
20
-285.2724693333
40
1.778
1
SYSTEM Y
0
TEXT
8
PART_ATTR
10
0
20
-288.3204693333
40
1.778
1
HIDDEN Y
0
TEXT
8
PART_ATTR
10
0
20
-291.3684693333
40
1.778
1
ATTRIBUTE Strategy.Patterns.Pass
0
TEXT
8
PART_ATTR
10
0
20
-294.4164693333
40
1.778
1
TYPE LIST N
0
TEXT
8
PART_ATTR
10
0
20
-297.4644693333
40
1.778
1
LIST No
0
TEXT
8
PART_ATTR
10
0
20
-300.5124693333
40
1.778
1
LIST Yes
0
TEXT
8
PART_ATTR
10
0
20
-303.5604693333
40
1.778
1
LIST Done
0
TEXT
8
PART_ATTR
10
0
20
-306.6084693333
40
1.778
1
INHERITANCE  PCB
0
TEXT
8
PART_ATTR
10
0
20
-309.6564693333
40
1.778
1
ECO_REGISTRATION N
0
TEXT
8
PART_ATTR
10
0
20
-312.7044693333
40
1.778
1
READONLY Y
0
TEXT
8
PART_ATTR
10
0
20
-315.7524693333
40
1.778
1
SYSTEM Y
0
TEXT
8
PART_ATTR
10
0
20
-318.8004693333
40
1.778
1
HIDDEN Y
0
TEXT
8
PART_ATTR
10
0
20
-321.8484693333
40
1.778
1
ATTRIBUTE Strategy.Patterns.Protect
0
TEXT
8
PART_ATTR
10
0
20
-324.8964693333
40
1.778
1
TYPE BOOLEAN
0
TEXT
8
PART_ATTR
10
0
20
-327.9444693333
40
1.778
1
INHERITANCE  PCB
0
TEXT
8
PART_ATTR
10
0
20
-330.9924693333
40
1.778
1
ECO_REGISTRATION N
0
TEXT
8
PART_ATTR
10
0
20
-334.0404693333
40
1.778
1
READONLY Y
0
TEXT
8
PART_ATTR
10
0
20
-337.0884693333
40
1.778
1
SYSTEM Y
0
TEXT
8
PART_ATTR
10
0
20
-340.1364693333
40
1.778
1
HIDDEN Y
0
TEXT
8
PART_ATTR
10
0
20
-343.1844693333
40
1.778
1
ATTRIBUTE Strategy.Patterns.Pause
0
TEXT
8
PART_ATTR
10
0
20
-346.2324693333
40
1.778
1
TYPE BOOLEAN
0
TEXT
8
PART_ATTR
10
0
20
-349.2804693333
40
1.778
1
INHERITANCE  PCB
0
TEXT
8
PART_ATTR
10
0
20
-352.3284693333
40
1.778
1
ECO_REGISTRATION N
0
TEXT
8
PART_ATTR
10
0
20
-355.3764693333
40
1.778
1
READONLY Y
0
TEXT
8
PART_ATTR
10
0
20
-358.4244693333
40
1.778
1
SYSTEM Y
0
TEXT
8
PART_ATTR
10
0
20
-361.4724693333
40
1.778
1
HIDDEN Y
0
TEXT
8
PART_ATTR
10
0
20
-364.5204693333
40
1.778
1
ATTRIBUTE Strategy.Patterns.Intensity
0
TEXT
8
PART_ATTR
10
0
20
-367.5684693333
40
1.778
1
TYPE LIST N
0
TEXT
8
PART_ATTR
10
0
20
-370.6164693333
40
1.778
1
LIST Low
0
TEXT
8
PART_ATTR
10
0
20
-373.6644693333
40
1.778
1
LIST Medium
0
TEXT
8
PART_ATTR
10
0
20
-376.7124693333
40
1.778
1
LIST High
0
TEXT
8
PART_ATTR
10
0
20
-379.7604693333
40
1.778
1
INHERITANCE  PCB
0
TEXT
8
PART_ATTR
10
0
20
-382.8084693333
40
1.778
1
ECO_REGISTRATION N
0
TEXT
8
PART_ATTR
10
0
20
-385.8564693333
40
1.778
1
READONLY Y
0
TEXT
8
PART_ATTR
10
0
20
-388.9044693333
40
1.778
1
SYSTEM Y
0
TEXT
8
PART_ATTR
10
0
20
-391.9524693333
40
1.778
1
HIDDEN Y
0
TEXT
8
PART_ATTR
10
0
20
-395.0004693333
40
1.778
1
ATTRIBUTE Strategy.Patterns.Priority
0
TEXT
8
PART_ATTR
10
0
20
-398.0484693333
40
1.778
1
TYPE INTEGER
0
TEXT
8
PART_ATTR
10
0
20
-401.0964693333
40
1.778
1
MIN 0
0
TEXT
8
PART_ATTR
10
0
20
-404.1444693333
40
1.778
1
MAX 2147483647
0
TEXT
8
PART_ATTR
10
0
20
-407.1924693333
40
1.778
1
INHERITANCE  NET NETCLASS PCB
0
TEXT
8
PART_ATTR
10
0
20
-410.2404693333
40
1.778
1
INHERITANCE  PART
0
TEXT
8
PART_ATTR
10
0
20
-413.2884693333
40
1.778
1
INHERITANCE  PINPAIR
0
TEXT
8
PART_ATTR
10
0
20
-416.3364693333
40
1.778
1
ECO_REGISTRATION N
0
TEXT
8
PART_ATTR
10
0
20
-419.3844693333
40
1.778
1
READONLY Y
0
TEXT
8
PART_ATTR
10
0
20
-422.4324693333
40
1.778
1
SYSTEM Y
0
TEXT
8
PART_ATTR
10
0
20
-425.4804693333
40
1.778
1
HIDDEN Y
0
TEXT
8
PART_ATTR
10
0
20
-428.5284693333
40
1.778
1
ATTRIBUTE Strategy.Patterns.PlanePriority
0
TEXT
8
PART_ATTR
10
0
20
-431.5764693333
40
1.778
1
TYPE INTEGER
0
TEXT
8
PART_ATTR
10
0
20
-434.6244693333
40
1.778
1
MIN 0
0
TEXT
8
PART_ATTR
10
0
20
-437.6724693333
40
1.778
1
MAX 2147483647
0
TEXT
8
PART_ATTR
10
0
20
-440.7204693333
40
1.778
1
INHERITANCE  PCB
0
TEXT
8
PART_ATTR
10
0
20
-443.7684693333
40
1.778
1
ECO_REGISTRATION N
0
TEXT
8
PART_ATTR
10
0
20
-446.8164693333
40
1.778
1
READONLY Y
0
TEXT
8
PART_ATTR
10
0
20
-449.8644693333
40
1.778
1
SYSTEM Y
0
TEXT
8
PART_ATTR
10
0
20
-452.9124693333
40
1.778
1
HIDDEN Y
0
TEXT
8
PART_ATTR
10
0
20
-455.9604693333
40
1.778
1
ATTRIBUTE Strategy.Patterns.DiffPairPriority
0
TEXT
8
PART_ATTR
10
0
20
-459.0084693333
40
1.778
1
TYPE INTEGER
0
TEXT
8
PART_ATTR
10
0
20
-462.0564693333
40
1.778
1
MIN 0
0
TEXT
8
PART_ATTR
10
0
20
-465.1044693333
40
1.778
1
MAX 2147483647
0
TEXT
8
PART_ATTR
10
0
20
-468.1524693333
40
1.778
1
INHERITANCE  NET
0
TEXT
8
PART_ATTR
10
0
20
-471.2004693333
40
1.778
1
INHERITANCE  PINPAIR
0
TEXT
8
PART_ATTR
10
0
20
-474.2484693333
40
1.778
1
ECO_REGISTRATION N
0
TEXT
8
PART_ATTR
10
0
20
-477.2964693333
40
1.778
1
READONLY Y
0
TEXT
8
PART_ATTR
10
0
20
-480.3444693333
40
1.778
1
SYSTEM Y
0
TEXT
8
PART_ATTR
10
0
20
-483.3924693333
40
1.778
1
HIDDEN Y
0
TEXT
8
PART_ATTR
10
0
20
-486.4404693333
40
1.778
1
ATTRIBUTE Strategy.Patterns.MLGPriority
0
TEXT
8
PART_ATTR
10
0
20
-489.4884693333
40
1.778
1
TYPE INTEGER
0
TEXT
8
PART_ATTR
10
0
20
-492.5364693333
40
1.778
1
MIN 0
0
TEXT
8
PART_ATTR
10
0
20
-495.5844693333
40
1.778
1
MAX 2147483647
0
TEXT
8
PART_ATTR
10
0
20
-498.6324693333
40
1.778
1
INHERITANCE  NET NETCLASS PCB
0
TEXT
8
PART_ATTR
10
0
20
-501.6804693333
40
1.778
1
INHERITANCE  PINPAIR GROUP
0
TEXT
8
PART_ATTR
10
0
20
-504.7284693333
40
1.778
1
ECO_REGISTRATION N
0
TEXT
8
PART_ATTR
10
0
20
-507.7764693333
40
1.778
1
READONLY Y
0
TEXT
8
PART_ATTR
10
0
20
-510.8244693333
40
1.778
1
SYSTEM Y
0
TEXT
8
PART_ATTR
10
0
20
-513.8724693333
40
1.778
1
HIDDEN Y
0
TEXT
8
PART_ATTR
10
0
20
-516.9204693333
40
1.778
1
ATTRIBUTE Strategy.Route.Pass
0
TEXT
8
PART_ATTR
10
0
20
-519.9684693333
40
1.778
1
TYPE LIST N
0
TEXT
8
PART_ATTR
10
0
20
-523.0164693333
40
1.778
1
LIST No
0
TEXT
8
PART_ATTR
10
0
20
-526.0644693333
40
1.778
1
LIST Yes
0
TEXT
8
PART_ATTR
10
0
20
-529.1124693333
40
1.778
1
LIST Done
0
TEXT
8
PART_ATTR
10
0
20
-532.1604693333
40
1.778
1
INHERITANCE  PCB
0
TEXT
8
PART_ATTR
10
0
20
-535.2084693333
40
1.778
1
ECO_REGISTRATION N
0
TEXT
8
PART_ATTR
10
0
20
-538.2564693333
40
1.778
1
READONLY Y
0
TEXT
8
PART_ATTR
10
0
20
-541.3044693333
40
1.778
1
SYSTEM Y
0
TEXT
8
PART_ATTR
10
0
20
-544.3524693333
40
1.778
1
HIDDEN Y
0
TEXT
8
PART_ATTR
10
0
20
-547.4004693333
40
1.778
1
ATTRIBUTE Strategy.Route.Protect
0
TEXT
8
PART_ATTR
10
0
20
-550.4484693333
40
1.778
1
TYPE BOOLEAN
0
TEXT
8
PART_ATTR
10
0
20
-553.4964693333
40
1.778
1
INHERITANCE  PCB
0
TEXT
8
PART_ATTR
10
0
20
-556.5444693333
40
1.778
1
ECO_REGISTRATION N
0
TEXT
8
PART_ATTR
10
0
20
-559.5924693333
40
1.778
1
READONLY Y
0
TEXT
8
PART_ATTR
10
0
20
-562.6404693333
40
1.778
1
SYSTEM Y
0
TEXT
8
PART_ATTR
10
0
20
-565.6884693333
40
1.778
1
HIDDEN Y
0
TEXT
8
PART_ATTR
10
0
20
-568.7364693333
40
1.778
1
ATTRIBUTE Strategy.Route.Pause
0
TEXT
8
PART_ATTR
10
0
20
-571.7844693333
40
1.778
1
TYPE BOOLEAN
0
TEXT
8
PART_ATTR
10
0
20
-574.8324693333
40
1.778
1
INHERITANCE  PCB
0
TEXT
8
PART_ATTR
10
0
20
-577.8804693333
40
1.778
1
ECO_REGISTRATION N
0
TEXT
8
PART_ATTR
10
0
20
-580.9284693333
40
1.778
1
READONLY Y
0
TEXT
8
PART_ATTR
10
0
20
-583.9764693333
40
1.778
1
SYSTEM Y
0
TEXT
8
PART_ATTR
10
0
20
-587.0244693333
40
1.778
1
HIDDEN Y
0
TEXT
8
PART_ATTR
10
0
20
-590.0724693333
40
1.778
1
ATTRIBUTE Strategy.Route.Intensity
0
TEXT
8
PART_ATTR
10
0
20
-593.1204693333
40
1.778
1
TYPE LIST N
0
TEXT
8
PART_ATTR
10
0
20
-596.1684693333
40
1.778
1
LIST Low
0
TEXT
8
PART_ATTR
10
0
20
-599.2164693333
40
1.778
1
LIST Medium
0
TEXT
8
PART_ATTR
10
0
20
-602.2644693333
40
1.778
1
LIST High
0
TEXT
8
PART_ATTR
10
0
20
-605.3124693333
40
1.778
1
INHERITANCE  PCB
0
TEXT
8
PART_ATTR
10
0
20
-608.3604693333
40
1.778
1
ECO_REGISTRATION N
0
TEXT
8
PART_ATTR
10
0
20
-611.4084693333
40
1.778
1
READONLY Y
0
TEXT
8
PART_ATTR
10
0
20
-614.4564693333
40
1.778
1
SYSTEM Y
0
TEXT
8
PART_ATTR
10
0
20
-617.5044693333
40
1.778
1
HIDDEN Y
0
TEXT
8
PART_ATTR
10
0
20
-620.5524693333
40
1.778
1
ATTRIBUTE Strategy.Route.Priority
0
TEXT
8
PART_ATTR
10
0
20
-623.6004693333
40
1.778
1
TYPE INTEGER
0
TEXT
8
PART_ATTR
10
0
20
-626.6484693333
40
1.778
1
MIN 0
0
TEXT
8
PART_ATTR
10
0
20
-629.6964693333
40
1.778
1
MAX 2147483647
0
TEXT
8
PART_ATTR
10
0
20
-632.7444693333
40
1.778
1
INHERITANCE  NET NETCLASS PCB
0
TEXT
8
PART_ATTR
10
0
20
-635.7924693333
40
1.778
1
INHERITANCE  PART
0
TEXT
8
PART_ATTR
10
0
20
-638.8404693333
40
1.778
1
INHERITANCE  PINPAIR
0
TEXT
8
PART_ATTR
10
0
20
-641.8884693333
40
1.778
1
ECO_REGISTRATION N
0
TEXT
8
PART_ATTR
10
0
20
-644.9364693333
40
1.778
1
READONLY Y
0
TEXT
8
PART_ATTR
10
0
20
-647.9844693333
40
1.778
1
SYSTEM Y
0
TEXT
8
PART_ATTR
10
0
20
-651.0324693333
40
1.778
1
HIDDEN Y
0
TEXT
8
PART_ATTR
10
0
20
-654.0804693333
40
1.778
1
ATTRIBUTE Strategy.Route.PlanePriority
0
TEXT
8
PART_ATTR
10
0
20
-657.1284693333
40
1.778
1
TYPE INTEGER
0
TEXT
8
PART_ATTR
10
0
20
-660.1764693333
40
1.778
1
MIN 0
0
TEXT
8
PART_ATTR
10
0
20
-663.2244693333
40
1.778
1
MAX 2147483647
0
TEXT
8
PART_ATTR
10
0
20
-666.2724693333
40
1.778
1
INHERITANCE  PCB
0
TEXT
8
PART_ATTR
10
0
20
-669.3204693333
40
1.778
1
ECO_REGISTRATION N
0
TEXT
8
PART_ATTR
10
0
20
-672.3684693333
40
1.778
1
READONLY Y
0
TEXT
8
PART_ATTR
10
0
20
-675.4164693333
40
1.778
1
SYSTEM Y
0
TEXT
8
PART_ATTR
10
0
20
-678.4644693333
40
1.778
1
HIDDEN Y
0
TEXT
8
PART_ATTR
10
0
20
-681.5124693333
40
1.778
1
ATTRIBUTE Strategy.Route.DiffPairPriority
0
TEXT
8
PART_ATTR
10
0
20
-684.5604693333
40
1.778
1
TYPE INTEGER
0
TEXT
8
PART_ATTR
10
0
20
-687.6084693333
40
1.778
1
MIN 0
0
TEXT
8
PART_ATTR
10
0
20
-690.6564693333
40
1.778
1
MAX 2147483647
0
TEXT
8
PART_ATTR
10
0
20
-693.7044693333
40
1.778
1
INHERITANCE  NET
0
TEXT
8
PART_ATTR
10
0
20
-696.7524693333
40
1.778
1
INHERITANCE  PINPAIR
0
TEXT
8
PART_ATTR
10
0
20
-699.8004693333
40
1.778
1
ECO_REGISTRATION N
0
TEXT
8
PART_ATTR
10
0
20
-702.8484693333
40
1.778
1
READONLY Y
0
TEXT
8
PART_ATTR
10
0
20
-705.8964693333
40
1.778
1
SYSTEM Y
0
TEXT
8
PART_ATTR
10
0
20
-708.9444693333
40
1.778
1
HIDDEN Y
0
TEXT
8
PART_ATTR
10
0
20
-711.9924693333
40
1.778
1
ATTRIBUTE Strategy.Route.MLGPriority
0
TEXT
8
PART_ATTR
10
0
20
-715.0404693333
40
1.778
1
TYPE INTEGER
0
TEXT
8
PART_ATTR
10
0
20
-718.0884693333
40
1.778
1
MIN 0
0
TEXT
8
PART_ATTR
10
0
20
-721.1364693333
40
1.778
1
MAX 2147483647
0
TEXT
8
PART_ATTR
10
0
20
-724.1844693333
40
1.778
1
INHERITANCE  NET NETCLASS PCB
0
TEXT
8
PART_ATTR
10
0
20
-727.2324693333
40
1.778
1
INHERITANCE  PINPAIR GROUP
0
TEXT
8
PART_ATTR
10
0
20
-730.2804693333
40
1.778
1
ECO_REGISTRATION N
0
TEXT
8
PART_ATTR
10
0
20
-733.3284693333
40
1.778
1
READONLY Y
0
TEXT
8
PART_ATTR
10
0
20
-736.3764693333
40
1.778
1
SYSTEM Y
0
TEXT
8
PART_ATTR
10
0
20
-739.4244693333
40
1.778
1
HIDDEN Y
0
TEXT
8
PART_ATTR
10
0
20
-742.4724693333
40
1.778
1
ATTRIBUTE Strategy.Optimize.Pass
0
TEXT
8
PART_ATTR
10
0
20
-745.5204693333
40
1.778
1
TYPE LIST N
0
TEXT
8
PART_ATTR
10
0
20
-748.5684693333
40
1.778
1
LIST No
0
TEXT
8
PART_ATTR
10
0
20
-751.6164693333
40
1.778
1
LIST Yes
0
TEXT
8
PART_ATTR
10
0
20
-754.6644693333
40
1.778
1
LIST Done
0
TEXT
8
PART_ATTR
10
0
20
-757.7124693333
40
1.778
1
INHERITANCE  PCB
0
TEXT
8
PART_ATTR
10
0
20
-760.7604693333
40
1.778
1
ECO_REGISTRATION N
0
TEXT
8
PART_ATTR
10
0
20
-763.8084693333
40
1.778
1
READONLY Y
0
TEXT
8
PART_ATTR
10
0
20
-766.8564693333
40
1.778
1
SYSTEM Y
0
TEXT
8
PART_ATTR
10
0
20
-769.9044693333
40
1.778
1
HIDDEN Y
0
TEXT
8
PART_ATTR
10
0
20
-772.9524693333
40
1.778
1
ATTRIBUTE Strategy.Optimize.Protect
0
TEXT
8
PART_ATTR
10
0
20
-776.0004693333
40
1.778
1
TYPE BOOLEAN
0
TEXT
8
PART_ATTR
10
0
20
-779.0484693333
40
1.778
1
INHERITANCE  PCB
0
TEXT
8
PART_ATTR
10
0
20
-782.0964693333
40
1.778
1
ECO_REGISTRATION N
0
TEXT
8
PART_ATTR
10
0
20
-785.1444693333
40
1.778
1
READONLY Y
0
TEXT
8
PART_ATTR
10
0
20
-788.1924693333
40
1.778
1
SYSTEM Y
0
TEXT
8
PART_ATTR
10
0
20
-791.2404693333
40
1.778
1
HIDDEN Y
0
TEXT
8
PART_ATTR
10
0
20
-794.2884693333
40
1.778
1
ATTRIBUTE Strategy.Optimize.Pause
0
TEXT
8
PART_ATTR
10
0
20
-797.3364693333
40
1.778
1
TYPE BOOLEAN
0
TEXT
8
PART_ATTR
10
0
20
-800.3844693333
40
1.778
1
INHERITANCE  PCB
0
TEXT
8
PART_ATTR
10
0
20
-803.4324693333
40
1.778
1
ECO_REGISTRATION N
0
TEXT
8
PART_ATTR
10
0
20
-806.4804693333
40
1.778
1
READONLY Y
0
TEXT
8
PART_ATTR
10
0
20
-809.5284693333
40
1.778
1
SYSTEM Y
0
TEXT
8
PART_ATTR
10
0
20
-812.5764693333
40
1.778
1
HIDDEN Y
0
TEXT
8
PART_ATTR
10
0
20
-815.6244693333
40
1.778
1
ATTRIBUTE Strategy.Optimize.Intensity
0
TEXT
8
PART_ATTR
10
0
20
-818.6724693333
40
1.778
1
TYPE LIST N
0
TEXT
8
PART_ATTR
10
0
20
-821.7204693333
40
1.778
1
LIST Low
0
TEXT
8
PART_ATTR
10
0
20
-824.7684693333
40
1.778
1
LIST Medium
0
TEXT
8
PART_ATTR
10
0
20
-827.8164693333
40
1.778
1
LIST High
0
TEXT
8
PART_ATTR
10
0
20
-830.8644693333
40
1.778
1
INHERITANCE  PCB
0
TEXT
8
PART_ATTR
10
0
20
-833.9124693333
40
1.778
1
ECO_REGISTRATION N
0
TEXT
8
PART_ATTR
10
0
20
-836.9604693333
40
1.778
1
READONLY Y
0
TEXT
8
PART_ATTR
10
0
20
-840.0084693333
40
1.778
1
SYSTEM Y
0
TEXT
8
PART_ATTR
10
0
20
-843.0564693333
40
1.778
1
HIDDEN Y
0
TEXT
8
PART_ATTR
10
0
20
-846.1044693333
40
1.778
1
ATTRIBUTE Strategy.Optimize.Priority
0
TEXT
8
PART_ATTR
10
0
20
-849.1524693333
40
1.778
1
TYPE INTEGER
0
TEXT
8
PART_ATTR
10
0
20
-852.2004693333
40
1.778
1
MIN 0
0
TEXT
8
PART_ATTR
10
0
20
-855.2484693333
40
1.778
1
MAX 2147483647
0
TEXT
8
PART_ATTR
10
0
20
-858.2964693333
40
1.778
1
INHERITANCE  NET NETCLASS PCB
0
TEXT
8
PART_ATTR
10
0
20
-861.3444693333
40
1.778
1
INHERITANCE  PART
0
TEXT
8
PART_ATTR
10
0
20
-864.3924693333
40
1.778
1
INHERITANCE  PINPAIR
0
TEXT
8
PART_ATTR
10
0
20
-867.4404693333
40
1.778
1
ECO_REGISTRATION N
0
TEXT
8
PART_ATTR
10
0
20
-870.4884693333
40
1.778
1
READONLY Y
0
TEXT
8
PART_ATTR
10
0
20
-873.5364693333
40
1.778
1
SYSTEM Y
0
TEXT
8
PART_ATTR
10
0
20
-876.5844693333
40
1.778
1
HIDDEN Y
0
TEXT
8
PART_ATTR
10
0
20
-879.6324693333
40
1.778
1
ATTRIBUTE Strategy.Optimize.PlanePriority
0
TEXT
8
PART_ATTR
10
0
20
-882.6804693333
40
1.778
1
TYPE INTEGER
0
TEXT
8
PART_ATTR
10
0
20
-885.7284693333
40
1.778
1
MIN 0
0
TEXT
8
PART_ATTR
10
0
20
-888.7764693333
40
1.778
1
MAX 2147483647
0
TEXT
8
PART_ATTR
10
0
20
-891.8244693333
40
1.778
1
INHERITANCE  PCB
0
TEXT
8
PART_ATTR
10
0
20
-894.8724693333
40
1.778
1
ECO_REGISTRATION N
0
TEXT
8
PART_ATTR
10
0
20
-897.9204693333
40
1.778
1
READONLY Y
0
TEXT
8
PART_ATTR
10
0
20
-900.9684693333
40
1.778
1
SYSTEM Y
0
TEXT
8
PART_ATTR
10
0
20
-904.0164693333
40
1.778
1
HIDDEN Y
0
TEXT
8
PART_ATTR
10
0
20
-907.0644693333
40
1.778
1
ATTRIBUTE Strategy.Optimize.DiffPairPriority
0
TEXT
8
PART_ATTR
10
0
20
-910.1124693333
40
1.778
1
TYPE INTEGER
0
TEXT
8
PART_ATTR
10
0
20
-913.1604693333
40
1.778
1
MIN 0
0
TEXT
8
PART_ATTR
10
0
20
-916.2084693333
40
1.778
1
MAX 2147483647
0
TEXT
8
PART_ATTR
10
0
20
-919.2564693333
40
1.778
1
INHERITANCE  NET
0
TEXT
8
PART_ATTR
10
0
20
-922.3044693333
40
1.778
1
INHERITANCE  PINPAIR
0
TEXT
8
PART_ATTR
10
0
20
-925.3524693333
40
1.778
1
ECO_REGISTRATION N
0
TEXT
8
PART_ATTR
10
0
20
-928.4004693333
40
1.778
1
READONLY Y
0
TEXT
8
PART_ATTR
10
0
20
-931.4484693333
40
1.778
1
SYSTEM Y
0
TEXT
8
PART_ATTR
10
0
20
-934.4964693333
40
1.778
1
HIDDEN Y
0
TEXT
8
PART_ATTR
10
0
20
-937.5444693333
40
1.778
1
ATTRIBUTE Strategy.Optimize.MLGPriority
0
TEXT
8
PART_ATTR
10
0
20
-940.5924693333
40
1.778
1
TYPE INTEGER
0
TEXT
8
PART_ATTR
10
0
20
-943.6404693333
40
1.778
1
MIN 0
0
TEXT
8
PART_ATTR
10
0
20
-946.6884693333
40
1.778
1
MAX 2147483647
0
TEXT
8
PART_ATTR
10
0
20
-949.7364693333
40
1.778
1
INHERITANCE  NET NETCLASS PCB
0
TEXT
8
PART_ATTR
10
0
20
-952.7844693333
40
1.778
1
INHERITANCE  PINPAIR GROUP
0
TEXT
8
PART_ATTR
10
0
20
-955.8324693333
40
1.778
1
ECO_REGISTRATION N
0
TEXT
8
PART_ATTR
10
0
20
-958.8804693333
40
1.778
1
READONLY Y
0
TEXT
8
PART_ATTR
10
0
20
-961.9284693333
40
1.778
1
SYSTEM Y
0
TEXT
8
PART_ATTR
10
0
20
-964.9764693333
40
1.778
1
HIDDEN Y
0
TEXT
8
PART_ATTR
10
0
20
-968.0244693333
40
1.778
1
ATTRIBUTE Strategy.Miters.Pass
0
TEXT
8
PART_ATTR
10
0
20
-971.0724693333
40
1.778
1
TYPE LIST N
0
TEXT
8
PART_ATTR
10
0
20
-974.1204693333
40
1.778
1
LIST No
0
TEXT
8
PART_ATTR
10
0
20
-977.1684693333
40
1.778
1
LIST Yes
0
TEXT
8
PART_ATTR
10
0
20
-980.2164693333
40
1.778
1
LIST Done
0
TEXT
8
PART_ATTR
10
0
20
-983.2644693333
40
1.778
1
INHERITANCE  PCB
0
TEXT
8
PART_ATTR
10
0
20
-986.3124693333
40
1.778
1
ECO_REGISTRATION N
0
TEXT
8
PART_ATTR
10
0
20
-989.3604693333
40
1.778
1
READONLY Y
0
TEXT
8
PART_ATTR
10
0
20
-992.4084693333
40
1.778
1
SYSTEM Y
0
TEXT
8
PART_ATTR
10
0
20
-995.4564693333
40
1.778
1
HIDDEN Y
0
TEXT
8
PART_ATTR
10
0
20
-998.5044693333
40
1.778
1
ATTRIBUTE Strategy.Miters.Protect
0
TEXT
8
PART_ATTR
10
0
20
-1001.5524693333
40
1.778
1
TYPE BOOLEAN
0
TEXT
8
PART_ATTR
10
0
20
-1004.6004693333
40
1.778
1
INHERITANCE  PCB
0
TEXT
8
PART_ATTR
10
0
20
-1007.6484693333
40
1.778
1
ECO_REGISTRATION N
0
TEXT
8
PART_ATTR
10
0
20
-1010.6964693333
40
1.778
1
READONLY Y
0
TEXT
8
PART_ATTR
10
0
20
-1013.7444693333
40
1.778
1
SYSTEM Y
0
TEXT
8
PART_ATTR
10
0
20
-1016.7924693333
40
1.778
1
HIDDEN Y
0
TEXT
8
PART_ATTR
10
0
20
-1019.8404693333
40
1.778
1
ATTRIBUTE Strategy.Miters.Pause
0
TEXT
8
PART_ATTR
10
0
20
-1022.8884693333
40
1.778
1
TYPE BOOLEAN
0
TEXT
8
PART_ATTR
10
0
20
-1025.9364693333
40
1.778
1
INHERITANCE  PCB
0
TEXT
8
PART_ATTR
10
0
20
-1028.9844693333
40
1.778
1
ECO_REGISTRATION N
0
TEXT
8
PART_ATTR
10
0
20
-1032.0324693333
40
1.778
1
READONLY Y
0
TEXT
8
PART_ATTR
10
0
20
-1035.0804693333
40
1.778
1
SYSTEM Y
0
TEXT
8
PART_ATTR
10
0
20
-1038.1284693333
40
1.778
1
HIDDEN Y
0
TEXT
8
PART_ATTR
10
0
20
-1041.1764693333
40
1.778
1
ATTRIBUTE Strategy.Miters.Intensity
0
TEXT
8
PART_ATTR
10
0
20
-1044.2244693333
40
1.778
1
TYPE LIST N
0
TEXT
8
PART_ATTR
10
0
20
-1047.2724693333
40
1.778
1
LIST Low
0
TEXT
8
PART_ATTR
10
0
20
-1050.3204693333
40
1.778
1
LIST Medium
0
TEXT
8
PART_ATTR
10
0
20
-1053.3684693333
40
1.778
1
LIST High
0
TEXT
8
PART_ATTR
10
0
20
-1056.4164693333
40
1.778
1
INHERITANCE  PCB
0
TEXT
8
PART_ATTR
10
0
20
-1059.4644693333
40
1.778
1
ECO_REGISTRATION N
0
TEXT
8
PART_ATTR
10
0
20
-1062.5124693333
40
1.778
1
READONLY Y
0
TEXT
8
PART_ATTR
10
0
20
-1065.5604693333
40
1.778
1
SYSTEM Y
0
TEXT
8
PART_ATTR
10
0
20
-1068.6084693333
40
1.778
1
HIDDEN Y
0
TEXT
8
PART_ATTR
10
0
20
-1071.6564693333
40
1.778
1
ATTRIBUTE Strategy.Miters.Priority
0
TEXT
8
PART_ATTR
10
0
20
-1074.7044693333
40
1.778
1
TYPE INTEGER
0
TEXT
8
PART_ATTR
10
0
20
-1077.7524693333
40
1.778
1
MIN 0
0
TEXT
8
PART_ATTR
10
0
20
-1080.8004693333
40
1.778
1
MAX 2147483647
0
TEXT
8
PART_ATTR
10
0
20
-1083.8484693333
40
1.778
1
INHERITANCE  NET NETCLASS PCB
0
TEXT
8
PART_ATTR
10
0
20
-1086.8964693333
40
1.778
1
INHERITANCE  PART
0
TEXT
8
PART_ATTR
10
0
20
-1089.9444693333
40
1.778
1
INHERITANCE  PINPAIR
0
TEXT
8
PART_ATTR
10
0
20
-1092.9924693333
40
1.778
1
ECO_REGISTRATION N
0
TEXT
8
PART_ATTR
10
0
20
-1096.0404693333
40
1.778
1
READONLY Y
0
TEXT
8
PART_ATTR
10
0
20
-1099.0884693333
40
1.778
1
SYSTEM Y
0
TEXT
8
PART_ATTR
10
0
20
-1102.1364693333
40
1.778
1
HIDDEN Y
0
TEXT
8
PART_ATTR
10
0
20
-1105.1844693333
40
1.778
1
ATTRIBUTE Strategy.Miters.PlanePriority
0
TEXT
8
PART_ATTR
10
0
20
-1108.2324693333
40
1.778
1
TYPE INTEGER
0
TEXT
8
PART_ATTR
10
0
20
-1111.2804693333
40
1.778
1
MIN 0
0
TEXT
8
PART_ATTR
10
0
20
-1114.3284693333
40
1.778
1
MAX 2147483647
0
TEXT
8
PART_ATTR
10
0
20
-1117.3764693333
40
1.778
1
INHERITANCE  PCB
0
TEXT
8
PART_ATTR
10
0
20
-1120.4244693333
40
1.778
1
ECO_REGISTRATION N
0
TEXT
8
PART_ATTR
10
0
20
-1123.4724693333
40
1.778
1
READONLY Y
0
TEXT
8
PART_ATTR
10
0
20
-1126.5204693333
40
1.778
1
SYSTEM Y
0
TEXT
8
PART_ATTR
10
0
20
-1129.5684693333
40
1.778
1
HIDDEN Y
0
TEXT
8
PART_ATTR
10
0
20
-1132.6164693333
40
1.778
1
ATTRIBUTE Strategy.Miters.DiffPairPriority
0
TEXT
8
PART_ATTR
10
0
20
-1135.6644693333
40
1.778
1
TYPE INTEGER
0
TEXT
8
PART_ATTR
10
0
20
-1138.7124693333
40
1.778
1
MIN 0
0
TEXT
8
PART_ATTR
10
0
20
-1141.7604693333
40
1.778
1
MAX 2147483647
0
TEXT
8
PART_ATTR
10
0
20
-1144.8084693333
40
1.778
1
INHERITANCE  NET
0
TEXT
8
PART_ATTR
10
0
20
-1147.8564693333
40
1.778
1
INHERITANCE  PINPAIR
0
TEXT
8
PART_ATTR
10
0
20
-1150.9044693333
40
1.778
1
ECO_REGISTRATION N
0
TEXT
8
PART_ATTR
10
0
20
-1153.9524693333
40
1.778
1
READONLY Y
0
TEXT
8
PART_ATTR
10
0
20
-1157.0004693333
40
1.778
1
SYSTEM Y
0
TEXT
8
PART_ATTR
10
0
20
-1160.0484693333
40
1.778
1
HIDDEN Y
0
TEXT
8
PART_ATTR
10
0
20
-1163.0964693333
40
1.778
1
ATTRIBUTE Strategy.Miters.MLGPriority
0
TEXT
8
PART_ATTR
10
0
20
-1166.1444693333
40
1.778
1
TYPE INTEGER
0
TEXT
8
PART_ATTR
10
0
20
-1169.1924693333
40
1.778
1
MIN 0
0
TEXT
8
PART_ATTR
10
0
20
-1172.2404693333
40
1.778
1
MAX 2147483647
0
TEXT
8
PART_ATTR
10
0
20
-1175.2884693333
40
1.778
1
INHERITANCE  NET NETCLASS PCB
0
TEXT
8
PART_ATTR
10
0
20
-1178.3364693333
40
1.778
1
INHERITANCE  PINPAIR GROUP
0
TEXT
8
PART_ATTR
10
0
20
-1181.3844693333
40
1.778
1
ECO_REGISTRATION N
0
TEXT
8
PART_ATTR
10
0
20
-1184.4324693333
40
1.778
1
READONLY Y
0
TEXT
8
PART_ATTR
10
0
20
-1187.4804693333
40
1.778
1
SYSTEM Y
0
TEXT
8
PART_ATTR
10
0
20
-1190.5284693333
40
1.778
1
HIDDEN Y
0
TEXT
8
PART_ATTR
10
0
20
-1193.5764693333
40
1.778
1
ATTRIBUTE Strategy.TestPoint.Pass
0
TEXT
8
PART_ATTR
10
0
20
-1196.6244693333
40
1.778
1
TYPE LIST N
0
TEXT
8
PART_ATTR
10
0
20
-1199.6724693333
40
1.778
1
LIST No
0
TEXT
8
PART_ATTR
10
0
20
-1202.7204693333
40
1.778
1
LIST Yes
0
TEXT
8
PART_ATTR
10
0
20
-1205.7684693333
40
1.778
1
LIST Done
0
TEXT
8
PART_ATTR
10
0
20
-1208.8164693333
40
1.778
1
INHERITANCE  PCB
0
TEXT
8
PART_ATTR
10
0
20
-1211.8644693333
40
1.778
1
ECO_REGISTRATION N
0
TEXT
8
PART_ATTR
10
0
20
-1214.9124693333
40
1.778
1
READONLY Y
0
TEXT
8
PART_ATTR
10
0
20
-1217.9604693333
40
1.778
1
SYSTEM Y
0
TEXT
8
PART_ATTR
10
0
20
-1221.0084693333
40
1.778
1
HIDDEN Y
0
TEXT
8
PART_ATTR
10
0
20
-1224.0564693333
40
1.778
1
ATTRIBUTE Strategy.TestPoint.Protect
0
TEXT
8
PART_ATTR
10
0
20
-1227.1044693333
40
1.778
1
TYPE BOOLEAN
0
TEXT
8
PART_ATTR
10
0
20
-1230.1524693333
40
1.778
1
INHERITANCE  PCB
0
TEXT
8
PART_ATTR
10
0
20
-1233.2004693333
40
1.778
1
ECO_REGISTRATION N
0
TEXT
8
PART_ATTR
10
0
20
-1236.2484693333
40
1.778
1
READONLY Y
0
TEXT
8
PART_ATTR
10
0
20
-1239.2964693333
40
1.778
1
SYSTEM Y
0
TEXT
8
PART_ATTR
10
0
20
-1242.3444693333
40
1.778
1
HIDDEN Y
0
TEXT
8
PART_ATTR
10
0
20
-1245.3924693333
40
1.778
1
ATTRIBUTE Strategy.TestPoint.Pause
0
TEXT
8
PART_ATTR
10
0
20
-1248.4404693333
40
1.778
1
TYPE BOOLEAN
0
TEXT
8
PART_ATTR
10
0
20
-1251.4884693333
40
1.778
1
INHERITANCE  PCB
0
TEXT
8
PART_ATTR
10
0
20
-1254.5364693333
40
1.778
1
ECO_REGISTRATION N
0
TEXT
8
PART_ATTR
10
0
20
-1257.5844693333
40
1.778
1
READONLY Y
0
TEXT
8
PART_ATTR
10
0
20
-1260.6324693333
40
1.778
1
SYSTEM Y
0
TEXT
8
PART_ATTR
10
0
20
-1263.6804693333
40
1.778
1
HIDDEN Y
0
TEXT
8
PART_ATTR
10
0
20
-1266.7284693333
40
1.778
1
ATTRIBUTE Strategy.TestPoint.Intensity
0
TEXT
8
PART_ATTR
10
0
20
-1269.7764693333
40
1.778
1
TYPE LIST N
0
TEXT
8
PART_ATTR
10
0
20
-1272.8244693333
40
1.778
1
LIST Low
0
TEXT
8
PART_ATTR
10
0
20
-1275.8724693333
40
1.778
1
LIST Medium
0
TEXT
8
PART_ATTR
10
0
20
-1278.9204693333
40
1.778
1
LIST High
0
TEXT
8
PART_ATTR
10
0
20
-1281.9684693333
40
1.778
1
INHERITANCE  PCB
0
TEXT
8
PART_ATTR
10
0
20
-1285.0164693333
40
1.778
1
ECO_REGISTRATION N
0
TEXT
8
PART_ATTR
10
0
20
-1288.0644693333
40
1.778
1
READONLY Y
0
TEXT
8
PART_ATTR
10
0
20
-1291.1124693333
40
1.778
1
SYSTEM Y
0
TEXT
8
PART_ATTR
10
0
20
-1294.1604693333
40
1.778
1
HIDDEN Y
0
TEXT
8
PART_ATTR
10
0
20
-1297.2084693333
40
1.778
1
ATTRIBUTE Strategy.TestPoint.Priority
0
TEXT
8
PART_ATTR
10
0
20
-1300.2564693333
40
1.778
1
TYPE INTEGER
0
TEXT
8
PART_ATTR
10
0
20
-1303.3044693333
40
1.778
1
MIN 0
0
TEXT
8
PART_ATTR
10
0
20
-1306.3524693333
40
1.778
1
MAX 2147483647
0
TEXT
8
PART_ATTR
10
0
20
-1309.4004693333
40
1.778
1
INHERITANCE  NET NETCLASS PCB
0
TEXT
8
PART_ATTR
10
0
20
-1312.4484693333
40
1.778
1
INHERITANCE  PART
0
TEXT
8
PART_ATTR
10
0
20
-1315.4964693333
40
1.778
1
INHERITANCE  PINPAIR
0
TEXT
8
PART_ATTR
10
0
20
-1318.5444693333
40
1.778
1
ECO_REGISTRATION N
0
TEXT
8
PART_ATTR
10
0
20
-1321.5924693333
40
1.778
1
READONLY Y
0
TEXT
8
PART_ATTR
10
0
20
-1324.6404693333
40
1.778
1
SYSTEM Y
0
TEXT
8
PART_ATTR
10
0
20
-1327.6884693333
40
1.778
1
HIDDEN Y
0
TEXT
8
PART_ATTR
10
0
20
-1330.7364693333
40
1.778
1
ATTRIBUTE Strategy.TestPoint.PlanePriority
0
TEXT
8
PART_ATTR
10
0
20
-1333.7844693333
40
1.778
1
TYPE INTEGER
0
TEXT
8
PART_ATTR
10
0
20
-1336.8324693333
40
1.778
1
MIN 0
0
TEXT
8
PART_ATTR
10
0
20
-1339.8804693333
40
1.778
1
MAX 2147483647
0
TEXT
8
PART_ATTR
10
0
20
-1342.9284693333
40
1.778
1
INHERITANCE  PCB
0
TEXT
8
PART_ATTR
10
0
20
-1345.9764693333
40
1.778
1
ECO_REGISTRATION N
0
TEXT
8
PART_ATTR
10
0
20
-1349.0244693333
40
1.778
1
READONLY Y
0
TEXT
8
PART_ATTR
10
0
20
-1352.0724693333
40
1.778
1
SYSTEM Y
0
TEXT
8
PART_ATTR
10
0
20
-1355.1204693333
40
1.778
1
HIDDEN Y
0
TEXT
8
PART_ATTR
10
0
20
-1358.1684693333
40
1.778
1
ATTRIBUTE Strategy.TestPoint.DiffPairPriority
0
TEXT
8
PART_ATTR
10
0
20
-1361.2164693333
40
1.778
1
TYPE INTEGER
0
TEXT
8
PART_ATTR
10
0
20
-1364.2644693333
40
1.778
1
MIN 0
0
TEXT
8
PART_ATTR
10
0
20
-1367.3124693333
40
1.778
1
MAX 2147483647
0
TEXT
8
PART_ATTR
10
0
20
-1370.3604693333
40
1.778
1
INHERITANCE  NET
0
TEXT
8
PART_ATTR
10
0
20
-1373.4084693333
40
1.778
1
INHERITANCE  PINPAIR
0
TEXT
8
PART_ATTR
10
0
20
-1376.4564693333
40
1.778
1
ECO_REGISTRATION N
0
TEXT
8
PART_ATTR
10
0
20
-1379.5044693333
40
1.778
1
READONLY Y
0
TEXT
8
PART_ATTR
10
0
20
-1382.5524693333
40
1.778
1
SYSTEM Y
0
TEXT
8
PART_ATTR
10
0
20
-1385.6004693333
40
1.778
1
HIDDEN Y
0
TEXT
8
PART_ATTR
10
0
20
-1388.6484693333
40
1.778
1
ATTRIBUTE Strategy.TestPoint.MLGPriority
0
TEXT
8
PART_ATTR
10
0
20
-1391.6964693333
40
1.778
1
TYPE INTEGER
0
TEXT
8
PART_ATTR
10
0
20
-1394.7444693333
40
1.778
1
MIN 0
0
TEXT
8
PART_ATTR
10
0
20
-1397.7924693333
40
1.778
1
MAX 2147483647
0
TEXT
8
PART_ATTR
10
0
20
-1400.8404693333
40
1.778
1
INHERITANCE  NET NETCLASS PCB
0
TEXT
8
PART_ATTR
10
0
20
-1403.8884693333
40
1.778
1
INHERITANCE  PINPAIR GROUP
0
TEXT
8
PART_ATTR
10
0
20
-1406.9364693333
40
1.778
1
ECO_REGISTRATION N
0
TEXT
8
PART_ATTR
10
0
20
-1409.9844693333
40
1.778
1
READONLY Y
0
TEXT
8
PART_ATTR
10
0
20
-1413.0324693333
40
1.778
1
SYSTEM Y
0
TEXT
8
PART_ATTR
10
0
20
-1416.0804693333
40
1.778
1
HIDDEN Y
0
TEXT
8
PART_ATTR
10
0
20
-1419.1284693333
40
1.778
1
ATTRIBUTE Strategy.Center.Pass
0
TEXT
8
PART_ATTR
10
0
20
-1422.1764693333
40
1.778
1
TYPE LIST N
0
TEXT
8
PART_ATTR
10
0
20
-1425.2244693333
40
1.778
1
LIST No
0
TEXT
8
PART_ATTR
10
0
20
-1428.2724693333
40
1.778
1
LIST Yes
0
TEXT
8
PART_ATTR
10
0
20
-1431.3204693333
40
1.778
1
LIST Done
0
TEXT
8
PART_ATTR
10
0
20
1428.9430613333
40
1.778
1
INHERITANCE  PCB
0
TEXT
8
PART_ATTR
10
0
20
1425.8950613333
40
1.778
1
ECO_REGISTRATION N
0
TEXT
8
PART_ATTR
10
0
20
1422.8470613333
40
1.778
1
READONLY Y
0
TEXT
8
PART_ATTR
10
0
20
1419.7990613333
40
1.778
1
SYSTEM Y
0
TEXT
8
PART_ATTR
10
0
20
1416.7510613333
40
1.778
1
HIDDEN Y
0
TEXT
8
PART_ATTR
10
0
20
1413.7030613333
40
1.778
1
ATTRIBUTE Strategy.Center.Protect
0
TEXT
8
PART_ATTR
10
0
20
1410.6550613333
40
1.778
1
TYPE BOOLEAN
0
TEXT
8
PART_ATTR
10
0
20
1407.6070613333
40
1.778
1
INHERITANCE  PCB
0
TEXT
8
PART_ATTR
10
0
20
1404.5590613333
40
1.778
1
ECO_REGISTRATION N
0
TEXT
8
PART_ATTR
10
0
20
1401.5110613333
40
1.778
1
READONLY Y
0
TEXT
8
PART_ATTR
10
0
20
1398.4630613333
40
1.778
1
SYSTEM Y
0
TEXT
8
PART_ATTR
10
0
20
1395.4150613333
40
1.778
1
HIDDEN Y
0
TEXT
8
PART_ATTR
10
0
20
1392.3670613333
40
1.778
1
ATTRIBUTE Strategy.Center.Pause
0
TEXT
8
PART_ATTR
10
0
20
1389.3190613333
40
1.778
1
TYPE BOOLEAN
0
TEXT
8
PART_ATTR
10
0
20
1386.2710613333
40
1.778
1
INHERITANCE  PCB
0
TEXT
8
PART_ATTR
10
0
20
1383.2230613333
40
1.778
1
ECO_REGISTRATION N
0
TEXT
8
PART_ATTR
10
0
20
1380.1750613333
40
1.778
1
READONLY Y
0
TEXT
8
PART_ATTR
10
0
20
1377.1270613333
40
1.778
1
SYSTEM Y
0
TEXT
8
PART_ATTR
10
0
20
1374.0790613333
40
1.778
1
HIDDEN Y
0
TEXT
8
PART_ATTR
10
0
20
1371.0310613333
40
1.778
1
ATTRIBUTE Strategy.Center.Intensity
0
TEXT
8
PART_ATTR
10
0
20
1367.9830613333
40
1.778
1
TYPE LIST N
0
TEXT
8
PART_ATTR
10
0
20
1364.9350613333
40
1.778
1
LIST Low
0
TEXT
8
PART_ATTR
10
0
20
1361.8870613333
40
1.778
1
LIST Medium
0
TEXT
8
PART_ATTR
10
0
20
1358.8390613333
40
1.778
1
LIST High
0
TEXT
8
PART_ATTR
10
0
20
1355.7910613333
40
1.778
1
INHERITANCE  PCB
0
TEXT
8
PART_ATTR
10
0
20
1352.7430613333
40
1.778
1
ECO_REGISTRATION N
0
TEXT
8
PART_ATTR
10
0
20
1349.6950613333
40
1.778
1
READONLY Y
0
TEXT
8
PART_ATTR
10
0
20
1346.6470613333
40
1.778
1
SYSTEM Y
0
TEXT
8
PART_ATTR
10
0
20
1343.5990613333
40
1.778
1
HIDDEN Y
0
TEXT
8
PART_ATTR
10
0
20
1340.5510613333
40
1.778
1
ATTRIBUTE Strategy.Center.PlanePriority
0
TEXT
8
PART_ATTR
10
0
20
1337.5030613333
40
1.778
1
TYPE INTEGER
0
TEXT
8
PART_ATTR
10
0
20
1334.4550613333
40
1.778
1
MIN 0
0
TEXT
8
PART_ATTR
10
0
20
1331.4070613333
40
1.778
1
MAX 2147483647
0
TEXT
8
PART_ATTR
10
0
20
1328.3590613333
40
1.778
1
INHERITANCE  PCB
0
TEXT
8
PART_ATTR
10
0
20
1325.3110613333
40
1.778
1
ECO_REGISTRATION N
0
TEXT
8
PART_ATTR
10
0
20
1322.2630613333
40
1.778
1
READONLY Y
0
TEXT
8
PART_ATTR
10
0
20
1319.2150613333
40
1.778
1
SYSTEM Y
0
TEXT
8
PART_ATTR
10
0
20
1316.1670613333
40
1.778
1
HIDDEN Y
0
TEXT
8
PART_ATTR
10
0
20
1313.1190613333
40
1.778
1
ATTRIBUTE Strategy.Center.Priority
0
TEXT
8
PART_ATTR
10
0
20
1310.0710613333
40
1.778
1
TYPE INTEGER
0
TEXT
8
PART_ATTR
10
0
20
1307.0230613333
40
1.778
1
MIN 0
0
TEXT
8
PART_ATTR
10
0
20
1303.9750613333
40
1.778
1
MAX 2147483647
0
TEXT
8
PART_ATTR
10
0
20
1300.9270613333
40
1.778
1
INHERITANCE  NET NETCLASS PCB
0
TEXT
8
PART_ATTR
10
0
20
1297.8790613333
40
1.778
1
INHERITANCE  PART
0
TEXT
8
PART_ATTR
10
0
20
1294.8310613333
40
1.778
1
INHERITANCE  PINPAIR
0
TEXT
8
PART_ATTR
10
0
20
1291.7830613333
40
1.778
1
ECO_REGISTRATION N
0
TEXT
8
PART_ATTR
10
0
20
1288.7350613333
40
1.778
1
READONLY Y
0
TEXT
8
PART_ATTR
10
0
20
1285.6870613333
40
1.778
1
SYSTEM Y
0
TEXT
8
PART_ATTR
10
0
20
1282.6390613333
40
1.778
1
HIDDEN Y
0
TEXT
8
PART_ATTR
10
0
20
1279.5910613333
40
1.778
1
ATTRIBUTE Strategy.Center.DiffPairPriority
0
TEXT
8
PART_ATTR
10
0
20
1276.5430613333
40
1.778
1
TYPE INTEGER
0
TEXT
8
PART_ATTR
10
0
20
1273.4950613333
40
1.778
1
MIN 0
0
TEXT
8
PART_ATTR
10
0
20
1270.4470613333
40
1.778
1
MAX 2147483647
0
TEXT
8
PART_ATTR
10
0
20
1267.3990613333
40
1.778
1
INHERITANCE  NET
0
TEXT
8
PART_ATTR
10
0
20
1264.3510613333
40
1.778
1
INHERITANCE  PINPAIR
0
TEXT
8
PART_ATTR
10
0
20
1261.3030613333
40
1.778
1
ECO_REGISTRATION N
0
TEXT
8
PART_ATTR
10
0
20
1258.2550613333
40
1.778
1
READONLY Y
0
TEXT
8
PART_ATTR
10
0
20
1255.2070613333
40
1.778
1
SYSTEM Y
0
TEXT
8
PART_ATTR
10
0
20
1252.1590613333
40
1.778
1
HIDDEN Y
0
TEXT
8
PART_ATTR
10
0
20
1249.1110613333
40
1.778
1
ATTRIBUTE Strategy.Center.MLGPriority
0
TEXT
8
PART_ATTR
10
0
20
1246.0630613333
40
1.778
1
TYPE INTEGER
0
TEXT
8
PART_ATTR
10
0
20
1243.0150613333
40
1.778
1
MIN 0
0
TEXT
8
PART_ATTR
10
0
20
1239.9670613333
40
1.778
1
MAX 2147483647
0
TEXT
8
PART_ATTR
10
0
20
1236.9190613333
40
1.778
1
INHERITANCE  NET NETCLASS PCB
0
TEXT
8
PART_ATTR
10
0
20
1233.8710613333
40
1.778
1
INHERITANCE  PINPAIR GROUP
0
TEXT
8
PART_ATTR
10
0
20
1230.8230613333
40
1.778
1
ECO_REGISTRATION N
0
TEXT
8
PART_ATTR
10
0
20
1227.7750613333
40
1.778
1
READONLY Y
0
TEXT
8
PART_ATTR
10
0
20
1224.7270613333
40
1.778
1
SYSTEM Y
0
TEXT
8
PART_ATTR
10
0
20
1221.6790613333
40
1.778
1
HIDDEN Y
0
TEXT
8
PART_ATTR
10
0
20
1218.6310613333
40
1.778
1
ATTRIBUTE Strategy.Tune.Pass
0
TEXT
8
PART_ATTR
10
0
20
1215.5830613333
40
1.778
1
TYPE LIST N
0
TEXT
8
PART_ATTR
10
0
20
1212.5350613333
40
1.778
1
LIST No
0
TEXT
8
PART_ATTR
10
0
20
1209.4870613333
40
1.778
1
LIST Yes
0
TEXT
8
PART_ATTR
10
0
20
1206.4390613333
40
1.778
1
LIST Done
0
TEXT
8
PART_ATTR
10
0
20
1203.3910613333
40
1.778
1
INHERITANCE  PCB
0
TEXT
8
PART_ATTR
10
0
20
1200.3430613333
40
1.778
1
ECO_REGISTRATION N
0
TEXT
8
PART_ATTR
10
0
20
1197.2950613333
40
1.778
1
READONLY Y
0
TEXT
8
PART_ATTR
10
0
20
1194.2470613333
40
1.778
1
SYSTEM Y
0
TEXT
8
PART_ATTR
10
0
20
1191.1990613333
40
1.778
1
HIDDEN Y
0
TEXT
8
PART_ATTR
10
0
20
1188.1510613333
40
1.778
1
ATTRIBUTE Strategy.Tune.Protect
0
TEXT
8
PART_ATTR
10
0
20
1185.1030613333
40
1.778
1
TYPE BOOLEAN
0
TEXT
8
PART_ATTR
10
0
20
1182.0550613333
40
1.778
1
INHERITANCE  PCB
0
TEXT
8
PART_ATTR
10
0
20
1179.0070613333
40
1.778
1
ECO_REGISTRATION N
0
TEXT
8
PART_ATTR
10
0
20
1175.9590613333
40
1.778
1
READONLY Y
0
TEXT
8
PART_ATTR
10
0
20
1172.9110613333
40
1.778
1
SYSTEM Y
0
TEXT
8
PART_ATTR
10
0
20
1169.8630613333
40
1.778
1
HIDDEN Y
0
TEXT
8
PART_ATTR
10
0
20
1166.8150613333
40
1.778
1
ATTRIBUTE Strategy.Tune.Pause
0
TEXT
8
PART_ATTR
10
0
20
1163.7670613333
40
1.778
1
TYPE BOOLEAN
0
TEXT
8
PART_ATTR
10
0
20
1160.7190613333
40
1.778
1
INHERITANCE  PCB
0
TEXT
8
PART_ATTR
10
0
20
1157.6710613333
40
1.778
1
ECO_REGISTRATION N
0
TEXT
8
PART_ATTR
10
0
20
1154.6230613333
40
1.778
1
READONLY Y
0
TEXT
8
PART_ATTR
10
0
20
1151.5750613333
40
1.778
1
SYSTEM Y
0
TEXT
8
PART_ATTR
10
0
20
1148.5270613333
40
1.778
1
HIDDEN Y
0
TEXT
8
PART_ATTR
10
0
20
1145.4790613333
40
1.778
1
ATTRIBUTE Strategy.Tune.Intensity
0
TEXT
8
PART_ATTR
10
0
20
1142.4310613333
40
1.778
1
TYPE LIST N
0
TEXT
8
PART_ATTR
10
0
20
1139.3830613333
40
1.778
1
LIST Low
0
TEXT
8
PART_ATTR
10
0
20
1136.3350613333
40
1.778
1
LIST Medium
0
TEXT
8
PART_ATTR
10
0
20
1133.2870613333
40
1.778
1
LIST High
0
TEXT
8
PART_ATTR
10
0
20
1130.2390613333
40
1.778
1
INHERITANCE  PCB
0
TEXT
8
PART_ATTR
10
0
20
1127.1910613333
40
1.778
1
ECO_REGISTRATION N
0
TEXT
8
PART_ATTR
10
0
20
1124.1430613333
40
1.778
1
READONLY Y
0
TEXT
8
PART_ATTR
10
0
20
1121.0950613333
40
1.778
1
SYSTEM Y
0
TEXT
8
PART_ATTR
10
0
20
1118.0470613333
40
1.778
1
HIDDEN Y
0
TEXT
8
PART_ATTR
10
0
20
1114.9990613333
40
1.778
1
ATTRIBUTE Strategy.Tune.PlanePriority
0
TEXT
8
PART_ATTR
10
0
20
1111.9510613333
40
1.778
1
TYPE INTEGER
0
TEXT
8
PART_ATTR
10
0
20
1108.9030613333
40
1.778
1
MIN 0
0
TEXT
8
PART_ATTR
10
0
20
1105.8550613333
40
1.778
1
MAX 2147483647
0
TEXT
8
PART_ATTR
10
0
20
1102.8070613333
40
1.778
1
INHERITANCE  PCB
0
TEXT
8
PART_ATTR
10
0
20
1099.7590613333
40
1.778
1
ECO_REGISTRATION N
0
TEXT
8
PART_ATTR
10
0
20
1096.7110613333
40
1.778
1
READONLY Y
0
TEXT
8
PART_ATTR
10
0
20
1093.6630613333
40
1.778
1
SYSTEM Y
0
TEXT
8
PART_ATTR
10
0
20
1090.6150613333
40
1.778
1
HIDDEN Y
0
TEXT
8
PART_ATTR
10
0
20
1087.5670613333
40
1.778
1
ATTRIBUTE Strategy.Tune.Priority
0
TEXT
8
PART_ATTR
10
0
20
1084.5190613333
40
1.778
1
TYPE INTEGER
0
TEXT
8
PART_ATTR
10
0
20
1081.4710613333
40
1.778
1
MIN 0
0
TEXT
8
PART_ATTR
10
0
20
1078.4230613333
40
1.778
1
MAX 2147483647
0
TEXT
8
PART_ATTR
10
0
20
1075.3750613333
40
1.778
1
INHERITANCE  NET NETCLASS PCB
0
TEXT
8
PART_ATTR
10
0
20
1072.3270613333
40
1.778
1
INHERITANCE  PART
0
TEXT
8
PART_ATTR
10
0
20
1069.2790613333
40
1.778
1
INHERITANCE  PINPAIR
0
TEXT
8
PART_ATTR
10
0
20
1066.2310613333
40
1.778
1
ECO_REGISTRATION N
0
TEXT
8
PART_ATTR
10
0
20
1063.1830613333
40
1.778
1
READONLY Y
0
TEXT
8
PART_ATTR
10
0
20
1060.1350613333
40
1.778
1
SYSTEM Y
0
TEXT
8
PART_ATTR
10
0
20
1057.0870613333
40
1.778
1
HIDDEN Y
0
TEXT
8
PART_ATTR
10
0
20
1054.0390613333
40
1.778
1
ATTRIBUTE Strategy.Tune.DiffPairPriority
0
TEXT
8
PART_ATTR
10
0
20
1050.9910613333
40
1.778
1
TYPE INTEGER
0
TEXT
8
PART_ATTR
10
0
20
1047.9430613333
40
1.778
1
MIN 0
0
TEXT
8
PART_ATTR
10
0
20
1044.8950613333
40
1.778
1
MAX 2147483647
0
TEXT
8
PART_ATTR
10
0
20
1041.8470613333
40
1.778
1
INHERITANCE  NET
0
TEXT
8
PART_ATTR
10
0
20
1038.7990613333
40
1.778
1
INHERITANCE  PINPAIR
0
TEXT
8
PART_ATTR
10
0
20
1035.7510613333
40
1.778
1
ECO_REGISTRATION N
0
TEXT
8
PART_ATTR
10
0
20
1032.7030613333
40
1.778
1
READONLY Y
0
TEXT
8
PART_ATTR
10
0
20
1029.6550613333
40
1.778
1
SYSTEM Y
0
TEXT
8
PART_ATTR
10
0
20
1026.6070613333
40
1.778
1
HIDDEN Y
0
TEXT
8
PART_ATTR
10
0
20
1023.5590613333
40
1.778
1
ATTRIBUTE Strategy.Tune.MLGPriority
0
TEXT
8
PART_ATTR
10
0
20
1020.5110613333
40
1.778
1
TYPE INTEGER
0
TEXT
8
PART_ATTR
10
0
20
1017.4630613333
40
1.778
1
MIN 0
0
TEXT
8
PART_ATTR
10
0
20
1014.4150613333
40
1.778
1
MAX 2147483647
0
TEXT
8
PART_ATTR
10
0
20
1011.3670613333
40
1.778
1
INHERITANCE  NET NETCLASS PCB
0
TEXT
8
PART_ATTR
10
0
20
1008.3190613333
40
1.778
1
INHERITANCE  PINPAIR GROUP
0
TEXT
8
PART_ATTR
10
0
20
1005.2710613333
40
1.778
1
ECO_REGISTRATION N
0
TEXT
8
PART_ATTR
10
0
20
1002.2230613333
40
1.778
1
READONLY Y
0
TEXT
8
PART_ATTR
10
0
20
999.1750613333
40
1.778
1
SYSTEM Y
0
TEXT
8
PART_ATTR
10
0
20
996.1270613333
40
1.778
1
HIDDEN Y
0
TEXT
8
PART_ATTR
10
0
20
993.0790613333
40
1.778
1
ATTRIBUTE DIE.FormatId
0
TEXT
8
PART_ATTR
10
0
20
990.0310613333
40
1.778
1
TYPE FREETEXT
0
TEXT
8
PART_ATTR
10
0
20
986.9830613333
40
1.778
1
INHERITANCE  DECAL
0
TEXT
8
PART_ATTR
10
0
20
983.9350613333
40
1.778
1
ECO_REGISTRATION N
0
TEXT
8
PART_ATTR
10
0
20
980.8870613333
40
1.778
1
READONLY Y
0
TEXT
8
PART_ATTR
10
0
20
977.8390613333
40
1.778
1
SYSTEM Y
0
TEXT
8
PART_ATTR
10
0
20
974.7910613333
40
1.778
1
HIDDEN Y
0
TEXT
8
PART_ATTR
10
0
20
971.7430613333
40
1.778
1
ATTRIBUTE DIE.ChipLength
0
TEXT
8
PART_ATTR
10
0
20
968.6950613333
40
1.778
1
TYPE FREETEXT
0
TEXT
8
PART_ATTR
10
0
20
965.6470613333
40
1.778
1
INHERITANCE  DECAL
0
TEXT
8
PART_ATTR
10
0
20
962.5990613333
40
1.778
1
ECO_REGISTRATION N
0
TEXT
8
PART_ATTR
10
0
20
959.5510613333
40
1.778
1
READONLY Y
0
TEXT
8
PART_ATTR
10
0
20
956.5030613333
40
1.778
1
SYSTEM Y
0
TEXT
8
PART_ATTR
10
0
20
953.4550613333
40
1.778
1
HIDDEN Y
0
TEXT
8
PART_ATTR
10
0
20
950.4070613333
40
1.778
1
ATTRIBUTE DIE.ChipWidth
0
TEXT
8
PART_ATTR
10
0
20
947.3590613333
40
1.778
1
TYPE FREETEXT
0
TEXT
8
PART_ATTR
10
0
20
944.3110613333
40
1.778
1
INHERITANCE  DECAL
0
TEXT
8
PART_ATTR
10
0
20
941.2630613333
40
1.778
1
ECO_REGISTRATION N
0
TEXT
8
PART_ATTR
10
0
20
938.2150613333
40
1.778
1
READONLY Y
0
TEXT
8
PART_ATTR
10
0
20
935.1670613333
40
1.778
1
SYSTEM Y
0
TEXT
8
PART_ATTR
10
0
20
932.1190613333
40
1.778
1
HIDDEN Y
0
TEXT
8
PART_ATTR
10
0
20
929.0710613333
40
1.778
1
ATTRIBUTE DIE.ChipHeight
0
TEXT
8
PART_ATTR
10
0
20
926.0230613333
40
1.778
1
TYPE FREETEXT
0
TEXT
8
PART_ATTR
10
0
20
922.9750613333
40
1.778
1
INHERITANCE  DECAL
0
TEXT
8
PART_ATTR
10
0
20
919.9270613333
40
1.778
1
ECO_REGISTRATION N
0
TEXT
8
PART_ATTR
10
0
20
916.8790613333
40
1.778
1
READONLY Y
0
TEXT
8
PART_ATTR
10
0
20
913.8310613333
40
1.778
1
SYSTEM Y
0
TEXT
8
PART_ATTR
10
0
20
910.7830613333
40
1.778
1
HIDDEN Y
0
TEXT
8
PART_ATTR
10
0
20
907.7350613333
40
1.778
1
ATTRIBUTE DIE.WBRules.MinLength
0
TEXT
8
PART_ATTR
10
0
20
904.6870613333
40
1.778
1
TYPE FREETEXT
0
TEXT
8
PART_ATTR
10
0
20
901.6390613333
40
1.778
1
INHERITANCE  DECAL
0
TEXT
8
PART_ATTR
10
0
20
898.5910613333
40
1.778
1
ECO_REGISTRATION N
0
TEXT
8
PART_ATTR
10
0
20
895.5430613333
40
1.778
1
READONLY Y
0
TEXT
8
PART_ATTR
10
0
20
892.4950613333
40
1.778
1
SYSTEM Y
0
TEXT
8
PART_ATTR
10
0
20
889.4470613333
40
1.778
1
HIDDEN Y
0
TEXT
8
PART_ATTR
10
0
20
886.3990613333
40
1.778
1
ATTRIBUTE DIE.WBRules.MaxLength
0
TEXT
8
PART_ATTR
10
0
20
883.3510613333
40
1.778
1
TYPE FREETEXT
0
TEXT
8
PART_ATTR
10
0
20
880.3030613333
40
1.778
1
INHERITANCE  DECAL
0
TEXT
8
PART_ATTR
10
0
20
877.2550613333
40
1.778
1
ECO_REGISTRATION N
0
TEXT
8
PART_ATTR
10
0
20
874.2070613333
40
1.778
1
READONLY Y
0
TEXT
8
PART_ATTR
10
0
20
871.1590613333
40
1.778
1
SYSTEM Y
0
TEXT
8
PART_ATTR
10
0
20
868.1110613333
40
1.778
1
HIDDEN Y
0
TEXT
8
PART_ATTR
10
0
20
865.0630613333
40
1.778
1
ATTRIBUTE DIE.WBRules.WToWDistance
0
TEXT
8
PART_ATTR
10
0
20
862.0150613333
40
1.778
1
TYPE FREETEXT
0
TEXT
8
PART_ATTR
10
0
20
858.9670613333
40
1.778
1
INHERITANCE  DECAL
0
TEXT
8
PART_ATTR
10
0
20
855.9190613333
40
1.778
1
ECO_REGISTRATION N
0
TEXT
8
PART_ATTR
10
0
20
852.8710613333
40
1.778
1
READONLY Y
0
TEXT
8
PART_ATTR
10
0
20
849.8230613333
40
1.778
1
SYSTEM Y
0
TEXT
8
PART_ATTR
10
0
20
846.7750613333
40
1.778
1
HIDDEN Y
0
TEXT
8
PART_ATTR
10
0
20
843.7270613333
40
1.778
1
ATTRIBUTE DIE.WBRules.WBtoPad
0
TEXT
8
PART_ATTR
10
0
20
840.6790613333
40
1.778
1
TYPE FREETEXT
0
TEXT
8
PART_ATTR
10
0
20
837.6310613333
40
1.778
1
INHERITANCE  DECAL
0
TEXT
8
PART_ATTR
10
0
20
834.5830613333
40
1.778
1
ECO_REGISTRATION N
0
TEXT
8
PART_ATTR
10
0
20
831.5350613333
40
1.778
1
READONLY Y
0
TEXT
8
PART_ATTR
10
0
20
828.4870613333
40
1.778
1
SYSTEM Y
0
TEXT
8
PART_ATTR
10
0
20
825.4390613333
40
1.778
1
HIDDEN Y
0
TEXT
8
PART_ATTR
10
0
20
822.3910613333
40
1.778
1
ATTRIBUTE DIE.WBRules.MaxAngle
0
TEXT
8
PART_ATTR
10
0
20
819.3430613333
40
1.778
1
TYPE FREETEXT
0
TEXT
8
PART_ATTR
10
0
20
816.2950613333
40
1.778
1
INHERITANCE  DECAL
0
TEXT
8
PART_ATTR
10
0
20
813.2470613333
40
1.778
1
ECO_REGISTRATION N
0
TEXT
8
PART_ATTR
10
0
20
810.1990613333
40
1.778
1
READONLY Y
0
TEXT
8
PART_ATTR
10
0
20
807.1510613333
40
1.778
1
SYSTEM Y
0
TEXT
8
PART_ATTR
10
0
20
804.1030613333
40
1.778
1
HIDDEN Y
0
TEXT
8
PART_ATTR
10
0
20
801.0550613333
40
1.778
1
ATTRIBUTE DIE.SBPCount
0
TEXT
8
PART_ATTR
10
0
20
798.0070613333
40
1.778
1
TYPE FREETEXT
0
TEXT
8
PART_ATTR
10
0
20
794.9590613333
40
1.778
1
INHERITANCE  DECAL
0
TEXT
8
PART_ATTR
10
0
20
791.9110613333
40
1.778
1
ECO_REGISTRATION N
0
TEXT
8
PART_ATTR
10
0
20
788.8630613333
40
1.778
1
READONLY Y
0
TEXT
8
PART_ATTR
10
0
20
785.8150613333
40
1.778
1
SYSTEM Y
0
TEXT
8
PART_ATTR
10
0
20
782.7670613333
40
1.778
1
HIDDEN Y
0
TEXT
8
PART_ATTR
10
0
20
779.7190613333
40
1.778
1
ATTRIBUTE DIE.SBP1
0
TEXT
8
PART_ATTR
10
0
20
776.6710613333
40
1.778
1
TYPE FREETEXT
0
TEXT
8
PART_ATTR
10
0
20
773.6230613333
40
1.778
1
INHERITANCE  DECAL
0
TEXT
8
PART_ATTR
10
0
20
770.5750613333
40
1.778
1
ECO_REGISTRATION N
0
TEXT
8
PART_ATTR
10
0
20
767.5270613333
40
1.778
1
READONLY Y
0
TEXT
8
PART_ATTR
10
0
20
764.4790613333
40
1.778
1
SYSTEM Y
0
TEXT
8
PART_ATTR
10
0
20
761.4310613333
40
1.778
1
HIDDEN Y
0
TEXT
8
PART_ATTR
10
0
20
758.3830613333
40
1.778
1
ATTRIBUTE DIE.CBPCount
0
TEXT
8
PART_ATTR
10
0
20
755.3350613333
40
1.778
1
TYPE FREETEXT
0
TEXT
8
PART_ATTR
10
0
20
752.2870613333
40
1.778
1
INHERITANCE  DECAL
0
TEXT
8
PART_ATTR
10
0
20
749.2390613333
40
1.778
1
ECO_REGISTRATION N
0
TEXT
8
PART_ATTR
10
0
20
746.1910613333
40
1.778
1
READONLY Y
0
TEXT
8
PART_ATTR
10
0
20
743.1430613333
40
1.778
1
SYSTEM Y
0
TEXT
8
PART_ATTR
10
0
20
740.0950613333
40
1.778
1
HIDDEN Y
0
TEXT
8
PART_ATTR
10
0
20
737.0470613333
40
1.778
1
ATTRIBUTE DIE.CBP1
0
TEXT
8
PART_ATTR
10
0
20
733.9990613333
40
1.778
1
TYPE FREETEXT
0
TEXT
8
PART_ATTR
10
0
20
730.9510613333
40
1.778
1
INHERITANCE  DECAL
0
TEXT
8
PART_ATTR
10
0
20
727.9030613333
40
1.778
1
ECO_REGISTRATION N
0
TEXT
8
PART_ATTR
10
0
20
724.8550613333
40
1.778
1
READONLY Y
0
TEXT
8
PART_ATTR
10
0
20
721.8070613333
40
1.778
1
SYSTEM Y
0
TEXT
8
PART_ATTR
10
0
20
718.7590613333
40
1.778
1
HIDDEN Y
0
TEXT
8
PART_ATTR
10
0
20
715.7110613333
40
1.778
1
ATTRIBUTE DIE.WBCount
0
TEXT
8
PART_ATTR
10
0
20
712.6630613333
40
1.778
1
TYPE FREETEXT
0
TEXT
8
PART_ATTR
10
0
20
709.6150613333
40
1.778
1
INHERITANCE  DECAL
0
TEXT
8
PART_ATTR
10
0
20
706.5670613333
40
1.778
1
ECO_REGISTRATION N
0
TEXT
8
PART_ATTR
10
0
20
703.5190613333
40
1.778
1
READONLY Y
0
TEXT
8
PART_ATTR
10
0
20
700.4710613333
40
1.778
1
SYSTEM Y
0
TEXT
8
PART_ATTR
10
0
20
697.4230613333
40
1.778
1
HIDDEN Y
0
TEXT
8
PART_ATTR
10
0
20
694.3750613333
40
1.778
1
ATTRIBUTE DIE.WB1
0
TEXT
8
PART_ATTR
10
0
20
691.3270613333
40
1.778
1
TYPE FREETEXT
0
TEXT
8
PART_ATTR
10
0
20
688.2790613333
40
1.778
1
INHERITANCE  DECAL
0
TEXT
8
PART_ATTR
10
0
20
685.2310613333
40
1.778
1
ECO_REGISTRATION N
0
TEXT
8
PART_ATTR
10
0
20
682.1830613333
40
1.778
1
READONLY Y
0
TEXT
8
PART_ATTR
10
0
20
679.1350613333
40
1.778
1
SYSTEM Y
0
TEXT
8
PART_ATTR
10
0
20
676.0870613333
40
1.778
1
HIDDEN Y
0
TEXT
8
PART_ATTR
10
0
20
673.0390613333
40
1.778
1
ATTRIBUTE DIE.SBPGuideCount
0
TEXT
8
PART_ATTR
10
0
20
669.9910613333
40
1.778
1
TYPE FREETEXT
0
TEXT
8
PART_ATTR
10
0
20
666.9430613333
40
1.778
1
INHERITANCE  DECAL
0
TEXT
8
PART_ATTR
10
0
20
663.8950613333
40
1.778
1
ECO_REGISTRATION N
0
TEXT
8
PART_ATTR
10
0
20
660.8470613333
40
1.778
1
READONLY Y
0
TEXT
8
PART_ATTR
10
0
20
657.7990613333
40
1.778
1
SYSTEM Y
0
TEXT
8
PART_ATTR
10
0
20
654.7510613333
40
1.778
1
HIDDEN Y
0
TEXT
8
PART_ATTR
10
0
20
651.7030613333
40
1.778
1
ATTRIBUTE DIE.SBPGuide1
0
TEXT
8
PART_ATTR
10
0
20
648.6550613333
40
1.778
1
TYPE FREETEXT
0
TEXT
8
PART_ATTR
10
0
20
645.6070613333
40
1.778
1
INHERITANCE  DECAL
0
TEXT
8
PART_ATTR
10
0
20
642.5590613333
40
1.778
1
ECO_REGISTRATION N
0
TEXT
8
PART_ATTR
10
0
20
639.5110613333
40
1.778
1
READONLY Y
0
TEXT
8
PART_ATTR
10
0
20
636.4630613333
40
1.778
1
SYSTEM Y
0
TEXT
8
PART_ATTR
10
0
20
633.4150613333
40
1.778
1
HIDDEN Y
0
TEXT
8
PART_ATTR
10
0
20
630.3670613333
40
1.778
1
ATTRIBUTE DIE.CBPAssignment1
0
TEXT
8
PART_ATTR
10
0
20
627.3190613333
40
1.778
1
TYPE FREETEXT
0
TEXT
8
PART_ATTR
10
0
20
624.2710613333
40
1.778
1
INHERITANCE  DECAL
0
TEXT
8
PART_ATTR
10
0
20
621.2230613333
40
1.778
1
ECO_REGISTRATION N
0
TEXT
8
PART_ATTR
10
0
20
618.1750613333
40
1.778
1
READONLY Y
0
TEXT
8
PART_ATTR
10
0
20
615.1270613333
40
1.778
1
SYSTEM Y
0
TEXT
8
PART_ATTR
10
0
20
612.0790613333
40
1.778
1
HIDDEN Y
0
TEXT
8
PART_ATTR
10
0
20
609.0310613333
40
1.778
1
ATTRIBUTE AutoDimensioning.Marker_Shape
0
TEXT
8
PART_ATTR
10
0
20
605.9830613333
40
1.778
1
TYPE FREETEXT
0
TEXT
8
PART_ATTR
10
0
20
602.9350613333
40
1.778
1
INHERITANCE  PCB
0
TEXT
8
PART_ATTR
10
0
20
599.8870613333
40
1.778
1
ECO_REGISTRATION N
0
TEXT
8
PART_ATTR
10
0
20
596.8390613333
40
1.778
1
READONLY Y
0
TEXT
8
PART_ATTR
10
0
20
593.7910613333
40
1.778
1
SYSTEM Y
0
TEXT
8
PART_ATTR
10
0
20
590.7430613333
40
1.778
1
HIDDEN Y
0
TEXT
8
PART_ATTR
10
0
20
587.6950613333
40
1.778
1
ATTRIBUTE AutoDimensioning.Text_NumberPrecision
0
TEXT
8
PART_ATTR
10
0
20
584.6470613333
40
1.778
1
TYPE FREETEXT
0
TEXT
8
PART_ATTR
10
0
20
581.5990613333
40
1.778
1
INHERITANCE  PCB
0
TEXT
8
PART_ATTR
10
0
20
578.5510613333
40
1.778
1
ECO_REGISTRATION N
0
TEXT
8
PART_ATTR
10
0
20
575.5030613333
40
1.778
1
READONLY Y
0
TEXT
8
PART_ATTR
10
0
20
572.4550613333
40
1.778
1
SYSTEM Y
0
TEXT
8
PART_ATTR
10
0
20
569.4070613333
40
1.778
1
HIDDEN Y
0
TEXT
8
PART_ATTR
10
0
20
566.3590613333
40
1.778
1
ATTRIBUTE AutoDimensioning.Text_AngularPrecision
0
TEXT
8
PART_ATTR
10
0
20
563.3110613333
40
1.778
1
TYPE FREETEXT
0
TEXT
8
PART_ATTR
10
0
20
560.2630613333
40
1.778
1
INHERITANCE  PCB
0
TEXT
8
PART_ATTR
10
0
20
557.2150613333
40
1.778
1
ECO_REGISTRATION N
0
TEXT
8
PART_ATTR
10
0
20
554.1670613333
40
1.778
1
READONLY Y
0
TEXT
8
PART_ATTR
10
0
20
551.1190613333
40
1.778
1
SYSTEM Y
0
TEXT
8
PART_ATTR
10
0
20
548.0710613333
40
1.778
1
HIDDEN Y
0
TEXT
8
PART_ATTR
10
0
20
545.0230613333
40
1.778
1
ATTRIBUTE AutoDimensioning.Text_Suffix
0
TEXT
8
PART_ATTR
10
0
20
541.9750613333
40
1.778
1
TYPE FREETEXT
0
TEXT
8
PART_ATTR
10
0
20
538.9270613333
40
1.778
1
INHERITANCE  PCB
0
TEXT
8
PART_ATTR
10
0
20
535.8790613333
40
1.778
1
ECO_REGISTRATION N
0
TEXT
8
PART_ATTR
10
0
20
532.8310613333
40
1.778
1
READONLY Y
0
TEXT
8
PART_ATTR
10
0
20
529.7830613333
40
1.778
1
SYSTEM Y
0
TEXT
8
PART_ATTR
10
0
20
526.7350613333
40
1.778
1
HIDDEN Y
0
TEXT
8
PART_ATTR
10
0
20
523.6870613333
40
1.778
1
ATTRIBUTE AutoDimensioning.Text_Layer
0
TEXT
8
PART_ATTR
10
0
20
520.6390613333
40
1.778
1
TYPE INTEGER
0
TEXT
8
PART_ATTR
10
0
20
517.5910613333
40
1.778
1
MIN 0
0
TEXT
8
PART_ATTR
10
0
20
514.5430613333
40
1.778
1
MAX 250
0
TEXT
8
PART_ATTR
10
0
20
511.4950613333
40
1.778
1
INHERITANCE  PCB
0
TEXT
8
PART_ATTR
10
0
20
508.4470613333
40
1.778
1
ECO_REGISTRATION N
0
TEXT
8
PART_ATTR
10
0
20
505.3990613333
40
1.778
1
READONLY Y
0
TEXT
8
PART_ATTR
10
0
20
502.3510613333
40
1.778
1
SYSTEM Y
0
TEXT
8
PART_ATTR
10
0
20
499.3030613333
40
1.778
1
HIDDEN Y
0
TEXT
8
PART_ATTR
10
0
20
496.2550613333
40
1.778
1
ATTRIBUTE AutoDimensioning.Line_Layer
0
TEXT
8
PART_ATTR
10
0
20
493.2070613333
40
1.778
1
TYPE INTEGER
0
TEXT
8
PART_ATTR
10
0
20
490.1590613333
40
1.778
1
MIN 0
0
TEXT
8
PART_ATTR
10
0
20
487.1110613333
40
1.778
1
MAX 250
0
TEXT
8
PART_ATTR
10
0
20
484.0630613333
40
1.778
1
INHERITANCE  PCB
0
TEXT
8
PART_ATTR
10
0
20
481.0150613333
40
1.778
1
ECO_REGISTRATION N
0
TEXT
8
PART_ATTR
10
0
20
477.9670613333
40
1.778
1
READONLY Y
0
TEXT
8
PART_ATTR
10
0
20
474.9190613333
40
1.778
1
SYSTEM Y
0
TEXT
8
PART_ATTR
10
0
20
471.8710613333
40
1.778
1
HIDDEN Y
0
TEXT
8
PART_ATTR
10
0
20
468.8230613333
40
1.778
1
ATTRIBUTE AutoDimensioning.Preview_Type
0
TEXT
8
PART_ATTR
10
0
20
465.7750613333
40
1.778
1
TYPE INTEGER
0
TEXT
8
PART_ATTR
10
0
20
462.7270613333
40
1.778
1
MIN 1
0
TEXT
8
PART_ATTR
10
0
20
459.6790613333
40
1.778
1
MAX 5
0
TEXT
8
PART_ATTR
10
0
20
456.6310613333
40
1.778
1
INHERITANCE  PCB
0
TEXT
8
PART_ATTR
10
0
20
453.5830613333
40
1.778
1
ECO_REGISTRATION N
0
TEXT
8
PART_ATTR
10
0
20
450.5350613333
40
1.778
1
READONLY Y
0
TEXT
8
PART_ATTR
10
0
20
447.4870613333
40
1.778
1
SYSTEM Y
0
TEXT
8
PART_ATTR
10
0
20
444.4390613333
40
1.778
1
HIDDEN Y
0
TEXT
8
PART_ATTR
10
0
20
441.3910613333
40
1.778
1
ATTRIBUTE AutoDimensioning.Text_DisplacementValue
0
TEXT
8
PART_ATTR
10
0
20
438.3430613333
40
1.778
1
TYPE INTEGER
0
TEXT
8
PART_ATTR
10
0
20
435.2950613333
40
1.778
1
MIN 0
0
TEXT
8
PART_ATTR
10
0
20
432.2470613333
40
1.778
1
MAX 38100000
0
TEXT
8
PART_ATTR
10
0
20
429.1990613333
40
1.778
1
INHERITANCE  PCB
0
TEXT
8
PART_ATTR
10
0
20
426.1510613333
40
1.778
1
ECO_REGISTRATION N
0
TEXT
8
PART_ATTR
10
0
20
423.1030613333
40
1.778
1
READONLY N
0
TEXT
8
PART_ATTR
10
0
20
420.0550613333
40
1.778
1
SYSTEM N
0
TEXT
8
PART_ATTR
10
0
20
417.0070613333
40
1.778
1
HIDDEN N
0
TEXT
8
PART_ATTR
10
0
20
413.9590613333
40
1.778
1
ATTRIBUTE Placement.Grid.Use
0
TEXT
8
PART_ATTR
10
0
20
410.9110613333
40
1.778
1
TYPE BOOLEAN
0
TEXT
8
PART_ATTR
10
0
20
407.8630613333
40
1.778
1
INHERITANCE  PCB
0
TEXT
8
PART_ATTR
10
0
20
404.8150613333
40
1.778
1
ECO_REGISTRATION N
0
TEXT
8
PART_ATTR
10
0
20
401.7670613333
40
1.778
1
READONLY Y
0
TEXT
8
PART_ATTR
10
0
20
398.7190613333
40
1.778
1
SYSTEM Y
0
TEXT
8
PART_ATTR
10
0
20
395.6710613333
40
1.778
1
HIDDEN Y
0
TEXT
8
PART_ATTR
10
0
20
392.6230613333
40
1.778
1
ATTRIBUTE Placement.Grid.X
0
TEXT
8
PART_ATTR
10
0
20
389.5750613333
40
1.778
1
TYPE QUANTITY
0
TEXT
8
PART_ATTR
10
0
20
386.5270613333
40
1.778
1
QUANTITY Size/Dimension
0
TEXT
8
PART_ATTR
10
0
20
383.4790613333
40
1.778
1
ABBR 
0
TEXT
8
PART_ATTR
10
0
20
380.4310613333
40
1.778
1
UNIT 
0
TEXT
8
PART_ATTR
10
0
20
377.3830613333
40
1.778
1
MIN 
0
TEXT
8
PART_ATTR
10
0
20
374.3350613333
40
1.778
1
MAX 50.80000mm
0
TEXT
8
PART_ATTR
10
0
20
371.2870613333
40
1.778
1
INHERITANCE  PCB
0
TEXT
8
PART_ATTR
10
0
20
368.2390613333
40
1.778
1
ECO_REGISTRATION N
0
TEXT
8
PART_ATTR
10
0
20
365.1910613333
40
1.778
1
READONLY Y
0
TEXT
8
PART_ATTR
10
0
20
362.1430613333
40
1.778
1
SYSTEM Y
0
TEXT
8
PART_ATTR
10
0
20
359.0950613333
40
1.778
1
HIDDEN Y
0
TEXT
8
PART_ATTR
10
0
20
356.0470613333
40
1.778
1
ATTRIBUTE Placement.Grid.Y
0
TEXT
8
PART_ATTR
10
0
20
352.9990613333
40
1.778
1
TYPE QUANTITY
0
TEXT
8
PART_ATTR
10
0
20
349.9510613333
40
1.778
1
QUANTITY Size/Dimension
0
TEXT
8
PART_ATTR
10
0
20
346.9030613333
40
1.778
1
ABBR 
0
TEXT
8
PART_ATTR
10
0
20
343.8550613333
40
1.778
1
UNIT 
0
TEXT
8
PART_ATTR
10
0
20
340.8070613333
40
1.778
1
MIN 
0
TEXT
8
PART_ATTR
10
0
20
337.7590613333
40
1.778
1
MAX 50.80000mm
0
TEXT
8
PART_ATTR
10
0
20
334.7110613333
40
1.778
1
INHERITANCE  PCB
0
TEXT
8
PART_ATTR
10
0
20
331.6630613333
40
1.778
1
ECO_REGISTRATION N
0
TEXT
8
PART_ATTR
10
0
20
328.6150613333
40
1.778
1
READONLY Y
0
TEXT
8
PART_ATTR
10
0
20
325.5670613333
40
1.778
1
SYSTEM Y
0
TEXT
8
PART_ATTR
10
0
20
322.5190613333
40
1.778
1
HIDDEN Y
0
TEXT
8
PART_ATTR
10
0
20
319.4710613333
40
1.778
1
ATTRIBUTE Accordion.Amplitude.Min
0
TEXT
8
PART_ATTR
10
0
20
316.4230613333
40
1.778
1
TYPE INTEGER
0
TEXT
8
PART_ATTR
10
0
20
313.3750613333
40
1.778
1
MIN 3
0
TEXT
8
PART_ATTR
10
0
20
310.3270613333
40
1.778
1
MAX 300
0
TEXT
8
PART_ATTR
10
0
20
307.2790613333
40
1.778
1
INHERITANCE  PCB
0
TEXT
8
PART_ATTR
10
0
20
304.2310613333
40
1.778
1
ECO_REGISTRATION N
0
TEXT
8
PART_ATTR
10
0
20
301.1830613333
40
1.778
1
READONLY Y
0
TEXT
8
PART_ATTR
10
0
20
298.1350613333
40
1.778
1
SYSTEM Y
0
TEXT
8
PART_ATTR
10
0
20
295.0870613333
40
1.778
1
HIDDEN Y
0
TEXT
8
PART_ATTR
10
0
20
292.0390613333
40
1.778
1
ATTRIBUTE Accordion.Amplitude.Max
0
TEXT
8
PART_ATTR
10
0
20
288.9910613333
40
1.778
1
TYPE INTEGER
0
TEXT
8
PART_ATTR
10
0
20
285.9430613333
40
1.778
1
MIN 4
0
TEXT
8
PART_ATTR
10
0
20
282.8950613333
40
1.778
1
MAX 300
0
TEXT
8
PART_ATTR
10
0
20
279.8470613333
40
1.778
1
INHERITANCE  PCB
0
TEXT
8
PART_ATTR
10
0
20
276.7990613333
40
1.778
1
ECO_REGISTRATION N
0
TEXT
8
PART_ATTR
10
0
20
273.7510613333
40
1.778
1
READONLY Y
0
TEXT
8
PART_ATTR
10
0
20
270.7030613333
40
1.778
1
SYSTEM Y
0
TEXT
8
PART_ATTR
10
0
20
267.6550613333
40
1.778
1
HIDDEN Y
0
TEXT
8
PART_ATTR
10
0
20
264.6070613333
40
1.778
1
ATTRIBUTE Accordion.Gap.Min
0
TEXT
8
PART_ATTR
10
0
20
261.5590613333
40
1.778
1
TYPE INTEGER
0
TEXT
8
PART_ATTR
10
0
20
258.5110613333
40
1.778
1
MIN 1
0
TEXT
8
PART_ATTR
10
0
20
255.4630613333
40
1.778
1
MAX 10
0
TEXT
8
PART_ATTR
10
0
20
252.4150613333
40
1.778
1
INHERITANCE  PCB
0
TEXT
8
PART_ATTR
10
0
20
249.3670613333
40
1.778
1
ECO_REGISTRATION N
0
TEXT
8
PART_ATTR
10
0
20
246.3190613333
40
1.778
1
READONLY Y
0
TEXT
8
PART_ATTR
10
0
20
243.2710613333
40
1.778
1
SYSTEM Y
0
TEXT
8
PART_ATTR
10
0
20
240.2230613333
40
1.778
1
HIDDEN Y
0
TEXT
8
PART_ATTR
10
0
20
237.1750613333
40
1.778
1
ATTRIBUTE Accordion.HierarchyLevel
0
TEXT
8
PART_ATTR
10
0
20
234.1270613333
40
1.778
1
TYPE INTEGER
0
TEXT
8
PART_ATTR
10
0
20
231.0790613333
40
1.778
1
MIN 1
0
TEXT
8
PART_ATTR
10
0
20
228.0310613333
40
1.778
1
MAX 8
0
TEXT
8
PART_ATTR
10
0
20
224.9830613333
40
1.778
1
INHERITANCE  PCB
0
TEXT
8
PART_ATTR
10
0
20
221.9350613333
40
1.778
1
ECO_REGISTRATION N
0
TEXT
8
PART_ATTR
10
0
20
218.8870613333
40
1.778
1
READONLY Y
0
TEXT
8
PART_ATTR
10
0
20
215.8390613333
40
1.778
1
SYSTEM Y
0
TEXT
8
PART_ATTR
10
0
20
212.7910613333
40
1.778
1
HIDDEN Y
0
TEXT
8
PART_ATTR
10
0
20
209.7430613333
40
1.778
1
ATTRIBUTE Accordion.Miters.Arcs
0
TEXT
8
PART_ATTR
10
0
20
206.6950613333
40
1.778
1
TYPE BOOLEAN
0
TEXT
8
PART_ATTR
10
0
20
203.6470613333
40
1.778
1
INHERITANCE  PCB
0
TEXT
8
PART_ATTR
10
0
20
200.5990613333
40
1.778
1
ECO_REGISTRATION N
0
TEXT
8
PART_ATTR
10
0
20
197.5510613333
40
1.778
1
READONLY Y
0
TEXT
8
PART_ATTR
10
0
20
194.5030613333
40
1.778
1
SYSTEM Y
0
TEXT
8
PART_ATTR
10
0
20
191.4550613333
40
1.778
1
HIDDEN Y
0
TEXT
8
PART_ATTR
10
0
20
188.4070613333
40
1.778
1
ATTRIBUTE Accordion.Miters.Ratio
0
TEXT
8
PART_ATTR
10
0
20
185.3590613333
40
1.778
1
TYPE FLOAT
0
TEXT
8
PART_ATTR
10
0
20
182.3110613333
40
1.778
1
MIN 0.5
0
TEXT
8
PART_ATTR
10
0
20
179.2630613333
40
1.778
1
MAX 250
0
TEXT
8
PART_ATTR
10
0
20
176.2150613333
40
1.778
1
INHERITANCE  PCB
0
TEXT
8
PART_ATTR
10
0
20
173.1670613333
40
1.778
1
ECO_REGISTRATION N
0
TEXT
8
PART_ATTR
10
0
20
170.1190613333
40
1.778
1
READONLY Y
0
TEXT
8
PART_ATTR
10
0
20
167.0710613333
40
1.778
1
SYSTEM Y
0
TEXT
8
PART_ATTR
10
0
20
164.0230613333
40
1.778
1
HIDDEN Y
0
TEXT
8
PART_ATTR
10
0
20
160.9750613333
40
1.778
1
ATTRIBUTE Routing.MaxChannelWidth
0
TEXT
8
PART_ATTR
10
0
20
157.9270613333
40
1.778
1
TYPE QUANTITY
0
TEXT
8
PART_ATTR
10
0
20
154.8790613333
40
1.778
1
QUANTITY Size/Dimension
0
TEXT
8
PART_ATTR
10
0
20
151.8310613333
40
1.778
1
ABBR 
0
TEXT
8
PART_ATTR
10
0
20
148.7830613333
40
1.778
1
UNIT 
0
TEXT
8
PART_ATTR
10
0
20
145.7350613333
40
1.778
1
MIN 
0
TEXT
8
PART_ATTR
10
0
20
142.6870613333
40
1.778
1
MAX 254.00000mm
0
TEXT
8
PART_ATTR
10
0
20
139.6390613333
40
1.778
1
INHERITANCE  PCB
0
TEXT
8
PART_ATTR
10
0
20
136.5910613333
40
1.778
1
ECO_REGISTRATION N
0
TEXT
8
PART_ATTR
10
0
20
133.5430613333
40
1.778
1
READONLY Y
0
TEXT
8
PART_ATTR
10
0
20
130.4950613333
40
1.778
1
SYSTEM Y
0
TEXT
8
PART_ATTR
10
0
20
127.4470613333
40
1.778
1
HIDDEN Y
0
TEXT
8
PART_ATTR
10
0
20
124.3990613333
40
1.778
1
ATTRIBUTE Routing.SoftLengthRrules
0
TEXT
8
PART_ATTR
10
0
20
121.3510613333
40
1.778
1
TYPE BOOLEAN
0
TEXT
8
PART_ATTR
10
0
20
118.3030613333
40
1.778
1
INHERITANCE  PCB
0
TEXT
8
PART_ATTR
10
0
20
115.2550613333
40
1.778
1
ECO_REGISTRATION N
0
TEXT
8
PART_ATTR
10
0
20
112.2070613333
40
1.778
1
READONLY Y
0
TEXT
8
PART_ATTR
10
0
20
109.1590613333
40
1.778
1
SYSTEM Y
0
TEXT
8
PART_ATTR
10
0
20
106.1110613333
40
1.778
1
HIDDEN Y
0
TEXT
8
PART_ATTR
10
0
20
103.0630613333
40
1.778
1
ATTRIBUTE Routing.MeanderBeforeTune
0
TEXT
8
PART_ATTR
10
0
20
100.0150613333
40
1.778
1
TYPE BOOLEAN
0
TEXT
8
PART_ATTR
10
0
20
96.9670613333
40
1.778
1
INHERITANCE  PCB
0
TEXT
8
PART_ATTR
10
0
20
93.9190613333
40
1.778
1
ECO_REGISTRATION N
0
TEXT
8
PART_ATTR
10
0
20
90.8710613333
40
1.778
1
READONLY Y
0
TEXT
8
PART_ATTR
10
0
20
87.8230613333
40
1.778
1
SYSTEM Y
0
TEXT
8
PART_ATTR
10
0
20
84.7750613333
40
1.778
1
HIDDEN Y
0
TEXT
8
PART_ATTR
10
0
20
81.7270613333
40
1.778
1
ATTRIBUTE Routing.ExtraLengthPercent
0
TEXT
8
PART_ATTR
10
0
20
78.6790613333
40
1.778
1
TYPE INTEGER
0
TEXT
8
PART_ATTR
10
0
20
75.6310613333
40
1.778
1
MIN 0
0
TEXT
8
PART_ATTR
10
0
20
72.5830613333
40
1.778
1
MAX 100
0
TEXT
8
PART_ATTR
10
0
20
69.5350613333
40
1.778
1
INHERITANCE  PCB
0
TEXT
8
PART_ATTR
10
0
20
66.4870613333
40
1.778
1
ECO_REGISTRATION N
0
TEXT
8
PART_ATTR
10
0
20
63.4390613333
40
1.778
1
READONLY Y
0
TEXT
8
PART_ATTR
10
0
20
60.3910613333
40
1.778
1
SYSTEM Y
0
TEXT
8
PART_ATTR
10
0
20
57.3430613333
40
1.778
1
HIDDEN Y
0
TEXT
8
PART_ATTR
10
0
20
54.2950613333
40
1.778
1
ATTRIBUTE MatchLength.Name
0
TEXT
8
PART_ATTR
10
0
20
51.2470613333
40
1.778
1
TYPE FREETEXT
0
TEXT
8
PART_ATTR
10
0
20
48.1990613333
40
1.778
1
INHERITANCE  NET NETCLASS
0
TEXT
8
PART_ATTR
10
0
20
45.1510613333
40
1.778
1
INHERITANCE  PINPAIR GROUP
0
TEXT
8
PART_ATTR
10
0
20
42.1030613333
40
1.778
1
ECO_REGISTRATION N
0
TEXT
8
PART_ATTR
10
0
20
39.0550613333
40
1.778
1
READONLY Y
0
TEXT
8
PART_ATTR
10
0
20
36.0070613333
40
1.778
1
SYSTEM Y
0
TEXT
8
PART_ATTR
10
0
20
32.9590613333
40
1.778
1
HIDDEN Y
0
TEXT
8
PART_ATTR
10
0
20
29.9110613333
40
1.778
1
ATTRIBUTE Planning.Scheduled
0
TEXT
8
PART_ATTR
10
0
20
26.8630613333
40
1.778
1
TYPE BOOLEAN
0
TEXT
8
PART_ATTR
10
0
20
23.8150613333
40
1.778
1
INHERITANCE  NET
0
TEXT
8
PART_ATTR
10
0
20
20.7670613333
40
1.778
1
ECO_REGISTRATION Y
0
TEXT
8
PART_ATTR
10
0
20
17.7190613333
40
1.778
1
READONLY Y
0
TEXT
8
PART_ATTR
10
0
20
14.6710613333
40
1.778
1
SYSTEM Y
0
TEXT
8
PART_ATTR
10
0
20
11.6230613333
40
1.778
1
HIDDEN Y
0
TEXT
8
PART_ATTR
10
0
20
8.5750613333
40
1.778
1
ATTRIBUTE Library.Timestamp
0
TEXT
8
PART_ATTR
10
0
20
5.5270613333
40
1.778
1
TYPE FREETEXT
0
TEXT
8
PART_ATTR
10
0
20
2.4790613333
40
1.778
1
INHERITANCE  DECAL
0
TEXT
8
PART_ATTR
10
0
20
-0.5689386667
40
1.778
1
INHERITANCE  PARTTYPE
0
TEXT
8
PART_ATTR
10
0
20
-3.6169386667
40
1.778
1
ECO_REGISTRATION N
0
TEXT
8
PART_ATTR
10
0
20
-6.6649386667
40
1.778
1
READONLY Y
0
TEXT
8
PART_ATTR
10
0
20
-9.7129386667
40
1.778
1
SYSTEM Y
0
TEXT
8
PART_ATTR
10
0
20
-12.7609386667
40
1.778
1
HIDDEN Y
0
TEXT
8
PART_ATTR
10
0
20
-15.8089386667
40
1.778
1
ATTRIBUTE Design.Timestamp
0
TEXT
8
PART_ATTR
10
0
20
-18.8569386667
40
1.778
1
TYPE FREETEXT
0
TEXT
8
PART_ATTR
10
0
20
-21.9049386667
40
1.778
1
INHERITANCE  DECAL
0
TEXT
8
PART_ATTR
10
0
20
-24.9529386667
40
1.778
1
INHERITANCE  PARTTYPE
0
TEXT
8
PART_ATTR
10
0
20
-28.0009386667
40
1.778
1
ECO_REGISTRATION N
0
TEXT
8
PART_ATTR
10
0
20
-31.0489386667
40
1.778
1
READONLY Y
0
TEXT
8
PART_ATTR
10
0
20
-34.0969386667
40
1.778
1
SYSTEM Y
0
TEXT
8
PART_ATTR
10
0
20
-37.1449386667
40
1.778
1
HIDDEN Y
0
TEXT
8
PART_ATTR
10
0
20
-40.1929386667
40
1.778
1
ATTRIBUTE DiffPair.RestrictPairTuneInGap
0
TEXT
8
PART_ATTR
10
0
20
-43.2409386667
40
1.778
1
TYPE BOOLEAN
0
TEXT
8
PART_ATTR
10
0
20
-46.2889386667
40
1.778
1
INHERITANCE  PCB
0
TEXT
8
PART_ATTR
10
0
20
-49.3369386667
40
1.778
1
ECO_REGISTRATION N
0
TEXT
8
PART_ATTR
10
0
20
-52.3849386667
40
1.778
1
READONLY Y
0
TEXT
8
PART_ATTR
10
0
20
-55.4329386667
40
1.778
1
SYSTEM Y
0
TEXT
8
PART_ATTR
10
0
20
-58.4809386667
40
1.778
1
HIDDEN Y
0
TEXT
8
PART_ATTR
10
0
20
-61.5289386667
40
1.778
1
ATTRIBUTE DiffPair.RestrictSmallAccordionsInPairs
0
TEXT
8
PART_ATTR
10
0
20
-64.5769386667
40
1.778
1
TYPE BOOLEAN
0
TEXT
8
PART_ATTR
10
0
20
-67.6249386667
40
1.778
1
INHERITANCE  PCB
0
TEXT
8
PART_ATTR
10
0
20
-70.6729386667
40
1.778
1
ECO_REGISTRATION N
0
TEXT
8
PART_ATTR
10
0
20
-73.7209386667
40
1.778
1
READONLY Y
0
TEXT
8
PART_ATTR
10
0
20
-76.7689386667
40
1.778
1
SYSTEM Y
0
TEXT
8
PART_ATTR
10
0
20
-79.8169386667
40
1.778
1
HIDDEN Y
0
TEXT
8
PART_ATTR
10
0
20
-82.8649386667
40
1.778
1
ATTRIBUTE DiffPair.TunePairsToZeroTolerance
0
TEXT
8
PART_ATTR
10
0
20
-85.9129386667
40
1.778
1
TYPE BOOLEAN
0
TEXT
8
PART_ATTR
10
0
20
-88.9609386667
40
1.778
1
INHERITANCE  PCB
0
TEXT
8
PART_ATTR
10
0
20
-92.0089386667
40
1.778
1
ECO_REGISTRATION N
0
TEXT
8
PART_ATTR
10
0
20
-95.0569386667
40
1.778
1
READONLY Y
0
TEXT
8
PART_ATTR
10
0
20
-98.1049386667
40
1.778
1
SYSTEM Y
0
TEXT
8
PART_ATTR
10
0
20
-101.1529386667
40
1.778
1
HIDDEN Y
0
TEXT
8
PART_ATTR
10
0
20
-104.2009386667
40
1.778
1
ATTRIBUTE CAM.Solder mask.Adjust
0
TEXT
8
PART_ATTR
10
0
20
-107.2489386667
40
1.778
1
TYPE QUANTITY
0
TEXT
8
PART_ATTR
10
0
20
-110.2969386667
40
1.778
1
QUANTITY Size/Dimension
0
TEXT
8
PART_ATTR
10
0
20
-113.3449386667
40
1.778
1
ABBR 
0
TEXT
8
PART_ATTR
10
0
20
-116.3929386667
40
1.778
1
UNIT 
0
TEXT
8
PART_ATTR
10
0
20
-119.4409386667
40
1.778
1
MIN 
0
TEXT
8
PART_ATTR
10
0
20
-122.4889386667
40
1.778
1
MAX 6.35000mm
0
TEXT
8
PART_ATTR
10
0
20
-125.5369386667
40
1.778
1
INHERITANCE  PCB
0
TEXT
8
PART_ATTR
10
0
20
-128.5849386667
40
1.778
1
INHERITANCE  PART DECAL
0
TEXT
8
PART_ATTR
10
0
20
-131.6329386667
40
1.778
1
INHERITANCE  VIA
0
TEXT
8
PART_ATTR
10
0
20
-134.6809386667
40
1.778
1
ECO_REGISTRATION N
0
TEXT
8
PART_ATTR
10
0
20
-137.7289386667
40
1.778
1
READONLY N
0
TEXT
8
PART_ATTR
10
0
20
-140.7769386667
40
1.778
1
SYSTEM Y
0
TEXT
8
PART_ATTR
10
0
20
-143.8249386667
40
1.778
1
HIDDEN N
0
TEXT
8
PART_ATTR
10
0
20
-146.8729386667
40
1.778
1
ATTRIBUTE CAM.Paste mask.Adjust
0
TEXT
8
PART_ATTR
10
0
20
-149.9209386667
40
1.778
1
TYPE QUANTITY
0
TEXT
8
PART_ATTR
10
0
20
-152.9689386667
40
1.778
1
QUANTITY Size/Dimension
0
TEXT
8
PART_ATTR
10
0
20
-156.0169386667
40
1.778
1
ABBR 
0
TEXT
8
PART_ATTR
10
0
20
-159.0649386667
40
1.778
1
UNIT 
0
TEXT
8
PART_ATTR
10
0
20
-162.1129386667
40
1.778
1
MIN 
0
TEXT
8
PART_ATTR
10
0
20
-165.1609386667
40
1.778
1
MAX 6.35000mm
0
TEXT
8
PART_ATTR
10
0
20
-168.2089386667
40
1.778
1
INHERITANCE  PCB
0
TEXT
8
PART_ATTR
10
0
20
-171.2569386667
40
1.778
1
INHERITANCE  PART DECAL
0
TEXT
8
PART_ATTR
10
0
20
-174.3049386667
40
1.778
1
INHERITANCE  VIA
0
TEXT
8
PART_ATTR
10
0
20
-177.3529386667
40
1.778
1
ECO_REGISTRATION N
0
TEXT
8
PART_ATTR
10
0
20
-180.4009386667
40
1.778
1
READONLY N
0
TEXT
8
PART_ATTR
10
0
20
-183.4489386667
40
1.778
1
SYSTEM Y
0
TEXT
8
PART_ATTR
10
0
20
-186.4969386667
40
1.778
1
HIDDEN N
0
TEXT
8
PART_ATTR
10
0
20
-189.5449386667
40
1.778
1
ATTRIBUTE CAM.Apply Oversize To All Pads
0
TEXT
8
PART_ATTR
10
0
20
-192.5929386667
40
1.778
1
TYPE BOOLEAN
0
TEXT
8
PART_ATTR
10
0
20
-195.6409386667
40
1.778
1
INHERITANCE  PCB
0
TEXT
8
PART_ATTR
10
0
20
-198.6889386667
40
1.778
1
ECO_REGISTRATION N
0
TEXT
8
PART_ATTR
10
0
20
-201.7369386667
40
1.778
1
READONLY N
0
TEXT
8
PART_ATTR
10
0
20
-204.7849386667
40
1.778
1
SYSTEM Y
0
TEXT
8
PART_ATTR
10
0
20
-207.8329386667
40
1.778
1
HIDDEN N
0
TEXT
8
PART_ATTR
10
0
20
-210.8809386667
40
1.778
1
ATTRIBUTE CHK.Use Visible Workspace Box for Latium Checking
0
TEXT
8
PART_ATTR
10
0
20
-213.9289386667
40
1.778
1
TYPE BOOLEAN
0
TEXT
8
PART_ATTR
10
0
20
-216.9769386667
40
1.778
1
INHERITANCE  PCB
0
TEXT
8
PART_ATTR
10
0
20
-220.0249386667
40
1.778
1
ECO_REGISTRATION N
0
TEXT
8
PART_ATTR
10
0
20
-223.0729386667
40
1.778
1
READONLY N
0
TEXT
8
PART_ATTR
10
0
20
-226.1209386667
40
1.778
1
SYSTEM Y
0
TEXT
8
PART_ATTR
10
0
20
-229.1689386667
40
1.778
1
HIDDEN Y
0
TEXT
8
PART_ATTR
10
0
20
-232.2169386667
40
1.778
1
ATTRIBUTE Single Sided Board
0
TEXT
8
PART_ATTR
10
0
20
-235.2649386667
40
1.778
1
TYPE BOOLEAN
0
TEXT
8
PART_ATTR
10
0
20
-238.3129386667
40
1.778
1
INHERITANCE  PCB
0
TEXT
8
PART_ATTR
10
0
20
-241.3609386667
40
1.778
1
ECO_REGISTRATION N
0
TEXT
8
PART_ATTR
10
0
20
-244.4089386667
40
1.778
1
READONLY N
0
TEXT
8
PART_ATTR
10
0
20
-247.4569386667
40
1.778
1
SYSTEM Y
0
TEXT
8
PART_ATTR
10
0
20
-250.5049386667
40
1.778
1
HIDDEN Y
0
TEXT
8
PART_ATTR
10
0
20
-253.5529386667
40
1.778
1
ATTRIBUTE DxDesigner.ProjectFilePath
0
TEXT
8
PART_ATTR
10
0
20
-256.6009386667
40
1.778
1
TYPE FREETEXT
0
TEXT
8
PART_ATTR
10
0
20
-259.6489386667
40
1.778
1
INHERITANCE  PCB
0
TEXT
8
PART_ATTR
10
0
20
-262.6969386667
40
1.778
1
ECO_REGISTRATION N
0
TEXT
8
PART_ATTR
10
0
20
-265.7449386667
40
1.778
1
READONLY Y
0
TEXT
8
PART_ATTR
10
0
20
-268.7929386667
40
1.778
1
SYSTEM Y
0
TEXT
8
PART_ATTR
10
0
20
-271.8409386667
40
1.778
1
HIDDEN Y
0
TEXT
8
PART_ATTR
10
0
20
-274.8889386667
40
1.778
1
ATTRIBUTE iCDB.DesignName
0
TEXT
8
PART_ATTR
10
0
20
-277.9369386667
40
1.778
1
TYPE FREETEXT
0
TEXT
8
PART_ATTR
10
0
20
-280.9849386667
40
1.778
1
INHERITANCE  PCB
0
TEXT
8
PART_ATTR
10
0
20
-284.0329386667
40
1.778
1
ECO_REGISTRATION N
0
TEXT
8
PART_ATTR
10
0
20
-287.0809386667
40
1.778
1
READONLY Y
0
TEXT
8
PART_ATTR
10
0
20
-290.1289386667
40
1.778
1
SYSTEM Y
0
TEXT
8
PART_ATTR
10
0
20
-293.1769386667
40
1.778
1
HIDDEN Y
0
TEXT
8
PART_ATTR
10
0
20
-296.2249386667
40
1.778
1
ATTRIBUTE iCDB.RootBlock
0
TEXT
8
PART_ATTR
10
0
20
-299.2729386667
40
1.778
1
TYPE FREETEXT
0
TEXT
8
PART_ATTR
10
0
20
-302.3209386667
40
1.778
1
INHERITANCE  PCB
0
TEXT
8
PART_ATTR
10
0
20
-305.3689386667
40
1.778
1
ECO_REGISTRATION N
0
TEXT
8
PART_ATTR
10
0
20
-308.4169386667
40
1.778
1
READONLY Y
0
TEXT
8
PART_ATTR
10
0
20
-311.4649386667
40
1.778
1
SYSTEM Y
0
TEXT
8
PART_ATTR
10
0
20
-314.5129386667
40
1.778
1
HIDDEN Y
0
TEXT
8
PART_ATTR
10
0
20
-317.5609386667
40
1.778
1
ATTRIBUTE iCDB.MainSnapshotName
0
TEXT
8
PART_ATTR
10
0
20
-320.6089386667
40
1.778
1
TYPE FREETEXT
0
TEXT
8
PART_ATTR
10
0
20
-323.6569386667
40
1.778
1
INHERITANCE  PCB
0
TEXT
8
PART_ATTR
10
0
20
-326.7049386667
40
1.778
1
ECO_REGISTRATION N
0
TEXT
8
PART_ATTR
10
0
20
-329.7529386667
40
1.778
1
READONLY Y
0
TEXT
8
PART_ATTR
10
0
20
-332.8009386667
40
1.778
1
SYSTEM Y
0
TEXT
8
PART_ATTR
10
0
20
-335.8489386667
40
1.778
1
HIDDEN Y
0
TEXT
8
PART_ATTR
10
0
20
-338.8969386667
40
1.778
1
ATTRIBUTE iCDB.TempSnapshotName
0
TEXT
8
PART_ATTR
10
0
20
-341.9449386667
40
1.778
1
TYPE FREETEXT
0
TEXT
8
PART_ATTR
10
0
20
-344.9929386667
40
1.778
1
INHERITANCE  PCB
0
TEXT
8
PART_ATTR
10
0
20
-348.0409386667
40
1.778
1
ECO_REGISTRATION N
0
TEXT
8
PART_ATTR
10
0
20
-351.0889386667
40
1.778
1
READONLY Y
0
TEXT
8
PART_ATTR
10
0
20
-354.1369386667
40
1.778
1
SYSTEM Y
0
TEXT
8
PART_ATTR
10
0
20
-357.1849386667
40
1.778
1
HIDDEN Y
0
TEXT
8
PART_ATTR
10
0
20
-360.2329386667
40
1.778
1
ATTRIBUTE Bridges
0
TEXT
8
PART_ATTR
10
0
20
-363.2809386667
40
1.778
1
TYPE FREETEXT
0
TEXT
8
PART_ATTR
10
0
20
-366.3289386667
40
1.778
1
INHERITANCE  NET
0
TEXT
8
PART_ATTR
10
0
20
-369.3769386667
40
1.778
1
ECO_REGISTRATION N
0
TEXT
8
PART_ATTR
10
0
20
-372.4249386667
40
1.778
1
READONLY Y
0
TEXT
8
PART_ATTR
10
0
20
-375.4729386667
40
1.778
1
SYSTEM Y
0
TEXT
8
PART_ATTR
10
0
20
-378.5209386667
40
1.778
1
HIDDEN Y
0
TEXT
8
PART_ATTR
10
0
20
-381.5689386667
40
1.778
1
ATTRIBUTE AssociatedNetAssociateNets
0
TEXT
8
PART_ATTR
10
0
20
-384.6169386667
40
1.778
1
TYPE BOOLEAN
0
TEXT
8
PART_ATTR
10
0
20
-387.6649386667
40
1.778
1
INHERITANCE  NET
0
TEXT
8
PART_ATTR
10
0
20
-390.7129386667
40
1.778
1
INHERITANCE  PART
0
TEXT
8
PART_ATTR
10
0
20
-393.7609386667
40
1.778
1
ECO_REGISTRATION N
0
TEXT
8
PART_ATTR
10
0
20
-396.8089386667
40
1.778
1
READONLY Y
0
TEXT
8
PART_ATTR
10
0
20
-399.8569386667
40
1.778
1
SYSTEM Y
0
TEXT
8
PART_ATTR
10
0
20
-402.9049386667
40
1.778
1
HIDDEN Y
0
TEXT
8
PART_ATTR
10
0
20
-405.9529386667
40
1.778
1
ATTRIBUTE AssociatedNetAllowPrefix
0
TEXT
8
PART_ATTR
10
0
20
-409.0009386667
40
1.778
1
TYPE BOOLEAN
0
TEXT
8
PART_ATTR
10
0
20
-412.0489386667
40
1.778
1
INHERITANCE  NET
0
TEXT
8
PART_ATTR
10
0
20
-415.0969386667
40
1.778
1
INHERITANCE  PART
0
TEXT
8
PART_ATTR
10
0
20
-418.1449386667
40
1.778
1
ECO_REGISTRATION N
0
TEXT
8
PART_ATTR
10
0
20
-421.1929386667
40
1.778
1
READONLY Y
0
TEXT
8
PART_ATTR
10
0
20
-424.2409386667
40
1.778
1
SYSTEM Y
0
TEXT
8
PART_ATTR
10
0
20
-427.2889386667
40
1.778
1
HIDDEN Y
0
TEXT
8
PART_ATTR
10
0
20
-430.3369386667
40
1.778
1
ATTRIBUTE AssociatedNetDiscreteLength
0
TEXT
8
PART_ATTR
10
0
20
-433.3849386667
40
1.778
1
TYPE FLOAT
0
TEXT
8
PART_ATTR
10
0
20
-436.4329386667
40
1.778
1
MIN -1.79769e+308
0
TEXT
8
PART_ATTR
10
0
20
-439.4809386667
40
1.778
1
MAX 1.79769e+308
0
TEXT
8
PART_ATTR
10
0
20
-442.5289386667
40
1.778
1
INHERITANCE  PCB
0
TEXT
8
PART_ATTR
10
0
20
-445.5769386667
40
1.778
1
INHERITANCE  PART
0
TEXT
8
PART_ATTR
10
0
20
-448.6249386667
40
1.778
1
ECO_REGISTRATION N
0
TEXT
8
PART_ATTR
10
0
20
-451.6729386667
40
1.778
1
READONLY Y
0
TEXT
8
PART_ATTR
10
0
20
-454.7209386667
40
1.778
1
SYSTEM Y
0
TEXT
8
PART_ATTR
10
0
20
-457.7689386667
40
1.778
1
HIDDEN Y
0
TEXT
8
PART_ATTR
10
0
20
-460.8169386667
40
1.778
1
ATTRIBUTE LaserDrillOversize
0
TEXT
8
PART_ATTR
10
0
20
-463.8649386667
40
1.778
1
TYPE FLOAT
0
TEXT
8
PART_ATTR
10
0
20
-466.9129386667
40
1.778
1
MIN -1.79769e+308
0
TEXT
8
PART_ATTR
10
0
20
-469.9609386667
40
1.778
1
MAX 1.79769e+308
0
TEXT
8
PART_ATTR
10
0
20
-473.0089386667
40
1.778
1
INHERITANCE  PCB
0
TEXT
8
PART_ATTR
10
0
20
-476.0569386667
40
1.778
1
ECO_REGISTRATION N
0
TEXT
8
PART_ATTR
10
0
20
-479.1049386667
40
1.778
1
READONLY Y
0
TEXT
8
PART_ATTR
10
0
20
-482.1529386667
40
1.778
1
SYSTEM Y
0
TEXT
8
PART_ATTR
10
0
20
-485.2009386667
40
1.778
1
HIDDEN Y
0
TEXT
8
PART_ATTR
10
0
20
-488.2489386667
40
1.778
1
ATTRIBUTE ViaLaserData
0
TEXT
8
PART_ATTR
10
0
20
-491.2969386667
40
1.778
1
TYPE FREETEXT
0
TEXT
8
PART_ATTR
10
0
20
-494.3449386667
40
1.778
1
INHERITANCE  PCB
0
TEXT
8
PART_ATTR
10
0
20
-497.3929386667
40
1.778
1
ECO_REGISTRATION N
0
TEXT
8
PART_ATTR
10
0
20
-500.4409386667
40
1.778
1
READONLY Y
0
TEXT
8
PART_ATTR
10
0
20
-503.4889386667
40
1.778
1
SYSTEM Y
0
TEXT
8
PART_ATTR
10
0
20
-506.5369386667
40
1.778
1
HIDDEN Y
0
TEXT
8
PART_ATTR
10
0
20
-509.5849386667
40
1.778
1
ATTRIBUTE Guard.BandColor
0
TEXT
8
PART_ATTR
10
0
20
-512.6329386667
40
1.778
1
TYPE INTEGER
0
TEXT
8
PART_ATTR
10
0
20
-515.6809386667
40
1.778
1
MIN 0
0
TEXT
8
PART_ATTR
10
0
20
-518.7289386667
40
1.778
1
MAX 2147483647
0
TEXT
8
PART_ATTR
10
0
20
-521.7769386667
40
1.778
1
INHERITANCE  PCB
0
TEXT
8
PART_ATTR
10
0
20
-524.8249386667
40
1.778
1
ECO_REGISTRATION N
0
TEXT
8
PART_ATTR
10
0
20
-527.8729386667
40
1.778
1
READONLY N
0
TEXT
8
PART_ATTR
10
0
20
-530.9209386667
40
1.778
1
SYSTEM N
0
TEXT
8
PART_ATTR
10
0
20
-533.9689386667
40
1.778
1
HIDDEN N
0
TEXT
8
PART_ATTR
10
0
20
-537.0169386667
40
1.778
1
ATTRIBUTE Blaze.Thermal.Color
0
TEXT
8
PART_ATTR
10
0
20
-540.0649386667
40
1.778
1
TYPE INTEGER
0
TEXT
8
PART_ATTR
10
0
20
-543.1129386667
40
1.778
1
MIN 0
0
TEXT
8
PART_ATTR
10
0
20
-546.1609386667
40
1.778
1
MAX 2147483647
0
TEXT
8
PART_ATTR
10
0
20
-549.2089386667
40
1.778
1
INHERITANCE  PCB
0
TEXT
8
PART_ATTR
10
0
20
-552.2569386667
40
1.778
1
ECO_REGISTRATION N
0
TEXT
8
PART_ATTR
10
0
20
-555.3049386667
40
1.778
1
READONLY N
0
TEXT
8
PART_ATTR
10
0
20
-558.3529386667
40
1.778
1
SYSTEM N
0
TEXT
8
PART_ATTR
10
0
20
-561.4009386667
40
1.778
1
HIDDEN N
0
TEXT
8
PART_ATTR
10
0
20
-564.4489386667
40
1.778
1
ATTRIBUTE Blaze.TestPoint.Color
0
TEXT
8
PART_ATTR
10
0
20
-567.4969386667
40
1.778
1
TYPE INTEGER
0
TEXT
8
PART_ATTR
10
0
20
-570.5449386667
40
1.778
1
MIN 0
0
TEXT
8
PART_ATTR
10
0
20
-573.5929386667
40
1.778
1
MAX 2147483647
0
TEXT
8
PART_ATTR
10
0
20
-576.6409386667
40
1.778
1
INHERITANCE  PCB
0
TEXT
8
PART_ATTR
10
0
20
-579.6889386667
40
1.778
1
ECO_REGISTRATION N
0
TEXT
8
PART_ATTR
10
0
20
-582.7369386667
40
1.778
1
READONLY N
0
TEXT
8
PART_ATTR
10
0
20
-585.7849386667
40
1.778
1
SYSTEM N
0
TEXT
8
PART_ATTR
10
0
20
-588.8329386667
40
1.778
1
HIDDEN N
0
TEXT
8
PART_ATTR
10
0
20
-591.8809386667
40
1.778
1
ATTRIBUTE LatestRevisionDate
0
TEXT
8
PART_ATTR
10
0
20
-594.9289386667
40
1.778
1
TYPE FREETEXT
0
TEXT
8
PART_ATTR
10
0
20
-597.9769386667
40
1.778
1
INHERITANCE  PART PARTTYPE
0
TEXT
8
PART_ATTR
10
0
20
-601.0249386667
40
1.778
1
ECO_REGISTRATION N
0
TEXT
8
PART_ATTR
10
0
20
-604.0729386667
40
1.778
1
READONLY N
0
TEXT
8
PART_ATTR
10
0
20
-607.1209386667
40
1.778
1
SYSTEM N
0
TEXT
8
PART_ATTR
10
0
20
-610.1689386667
40
1.778
1
HIDDEN N
0
TEXT
8
PART_ATTR
10
0
20
-613.2169386667
40
1.778
1
ATTRIBUTE LatestRevisionNote
0
TEXT
8
PART_ATTR
10
0
20
-616.2649386667
40
1.778
1
TYPE FREETEXT
0
TEXT
8
PART_ATTR
10
0
20
-619.3129386667
40
1.778
1
INHERITANCE  PART PARTTYPE
0
TEXT
8
PART_ATTR
10
0
20
-622.3609386667
40
1.778
1
ECO_REGISTRATION N
0
TEXT
8
PART_ATTR
10
0
20
-625.4089386667
40
1.778
1
READONLY N
0
TEXT
8
PART_ATTR
10
0
20
-628.4569386667
40
1.778
1
SYSTEM N
0
TEXT
8
PART_ATTR
10
0
20
-631.5049386667
40
1.778
1
HIDDEN N
0
TEXT
8
PART_ATTR
10
0
20
-634.5529386667
40
1.778
1
ATTRIBUTE Publisher
0
TEXT
8
PART_ATTR
10
0
20
-637.6009386667
40
1.778
1
TYPE FREETEXT
0
TEXT
8
PART_ATTR
10
0
20
-640.6489386667
40
1.778
1
INHERITANCE  PART PARTTYPE
0
TEXT
8
PART_ATTR
10
0
20
-643.6969386667
40
1.778
1
ECO_REGISTRATION N
0
TEXT
8
PART_ATTR
10
0
20
-646.7449386667
40
1.778
1
READONLY N
0
TEXT
8
PART_ATTR
10
0
20
-649.7929386667
40
1.778
1
SYSTEM N
0
TEXT
8
PART_ATTR
10
0
20
-652.8409386667
40
1.778
1
HIDDEN N
0
TEXT
8
PART_ATTR
10
0
20
-655.8889386667
40
1.778
1
ATTRIBUTE Comment
0
TEXT
8
PART_ATTR
10
0
20
-658.9369386667
40
1.778
1
TYPE FREETEXT
0
TEXT
8
PART_ATTR
10
0
20
-661.9849386667
40
1.778
1
INHERITANCE  PART PARTTYPE
0
TEXT
8
PART_ATTR
10
0
20
-665.0329386667
40
1.778
1
ECO_REGISTRATION N
0
TEXT
8
PART_ATTR
10
0
20
-668.0809386667
40
1.778
1
READONLY N
0
TEXT
8
PART_ATTR
10
0
20
-671.1289386667
40
1.778
1
SYSTEM N
0
TEXT
8
PART_ATTR
10
0
20
-674.1769386667
40
1.778
1
HIDDEN N
0
TEXT
8
PART_ATTR
10
0
20
-677.2249386667
40
1.778
1
ATTRIBUTE PADS3D.Objects.Silkscreen.Refresh
0
TEXT
8
PART_ATTR
10
0
20
-680.2729386667
40
1.778
1
TYPE FREETEXT
0
TEXT
8
PART_ATTR
10
0
20
-683.3209386667
40
1.778
1
INHERITANCE  PCB
0
TEXT
8
PART_ATTR
10
0
20
-686.3689386667
40
1.778
1
ECO_REGISTRATION N
0
TEXT
8
PART_ATTR
10
0
20
-689.4169386667
40
1.778
1
READONLY N
0
TEXT
8
PART_ATTR
10
0
20
-692.4649386667
40
1.778
1
SYSTEM Y
0
TEXT
8
PART_ATTR
10
0
20
-695.5129386667
40
1.778
1
HIDDEN Y
0
TEXT
8
PART_ATTR
10
0
20
-698.5609386667
40
1.778
1
ATTRIBUTE PADS3D.Objects.SolderMask.Refresh
0
TEXT
8
PART_ATTR
10
0
20
-701.6089386667
40
1.778
1
TYPE FREETEXT
0
TEXT
8
PART_ATTR
10
0
20
-704.6569386667
40
1.778
1
INHERITANCE  PCB
0
TEXT
8
PART_ATTR
10
0
20
-707.7049386667
40
1.778
1
ECO_REGISTRATION N
0
TEXT
8
PART_ATTR
10
0
20
-710.7529386667
40
1.778
1
READONLY N
0
TEXT
8
PART_ATTR
10
0
20
-713.8009386667
40
1.778
1
SYSTEM Y
0
TEXT
8
PART_ATTR
10
0
20
-716.8489386667
40
1.778
1
HIDDEN Y
0
TEXT
8
PART_ATTR
10
0
20
-719.8969386667
40
1.778
1
ATTRIBUTE VALUES
0
TEXT
8
PART_ATTR
10
0
20
-722.9449386667
40
1.778
1
DECAL HDR-TH_12P-P2.54-V-M
0
TEXT
8
PART_ATTR
10
0
20
-725.9929386667
40
1.778
1
Design.Timestamp 2023.10.30.03.07.20
0
TEXT
8
PART_ATTR
10
0
20
-729.0409386667
40
1.778
1
PARTTYPE HEADER_12
0
TEXT
8
PART_ATTR
10
0
20
-732.0889386667
40
1.778
1
Description Header, 12-Pin
0
TEXT
8
PART_ATTR
10
0
20
-735.1369386667
40
1.778
1
Design.Timestamp 2023.06.16.01.10.07
0
TEXT
8
PART_ATTR
10
0
20
-738.1849386667
40
1.778
1
LatestRevisionDate 17-Jul-2002
0
TEXT
8
PART_ATTR
10
0
20
-741.2329386667
40
1.778
1
LatestRevisionNote Re-released for DXP Platform.
0
TEXT
8
PART_ATTR
10
0
20
-744.2809386667
40
1.778
1
Publisher Altium Limited
0
TEXT
8
PART_ATTR
10
0
20
-747.3289386667
40
1.778
1
Comment Header 12
0
TEXT
8
PART_ATTR
10
0
20
-750.3769386667
40
1.778
1
PCB DEFAULT
0
TEXT
8
PART_ATTR
10
0
20
-753.4249386667
40
1.778
1
Accordion.Amplitude.Min 3
0
TEXT
8
PART_ATTR
10
0
20
-756.4729386667
40
1.778
1
Accordion.Amplitude.Max 30
0
TEXT
8
PART_ATTR
10
0
20
-759.5209386667
40
1.778
1
Accordion.Gap.Min 1
0
TEXT
8
PART_ATTR
10
0
20
-762.5689386667
40
1.778
1
Accordion.HierarchyLevel 8
0
TEXT
8
PART_ATTR
10
0
20
-765.6169386667
40
1.778
1
Accordion.Miters.Ratio 1.5
0
TEXT
8
PART_ATTR
10
0
20
-768.6649386667
40
1.778
1
Accordion.Miters.Arcs No
0
TEXT
8
PART_ATTR
10
0
20
-771.7129386667
40
1.778
1
AutoDimensioning.Line_Layer 0
0
TEXT
8
PART_ATTR
10
0
20
-774.7609386667
40
1.778
1
AutoDimensioning.Marker_Shape YYNNNY
0
TEXT
8
PART_ATTR
10
0
20
-777.8089386667
40
1.778
1
AutoDimensioning.Preview_Type 1
0
TEXT
8
PART_ATTR
10
0
20
-780.8569386667
40
1.778
1
AutoDimensioning.Text_AngularPrecision 0 0 0
0
TEXT
8
PART_ATTR
10
0
20
-783.9049386667
40
1.778
1
AutoDimensioning.Text_Layer 0
0
TEXT
8
PART_ATTR
10
0
20
-786.9529386667
40
1.778
1
AutoDimensioning.Text_NumberPrecision 3 1 2
0
TEXT
8
PART_ATTR
10
0
20
-790.0009386667
40
1.778
1
AutoDimensioning.Text_Suffix mil##mm##"
0
TEXT
8
PART_ATTR
10
0
20
-793.0489386667
40
1.778
1
AutoDimensioning.Text_DisplacementValue 0
0
TEXT
8
PART_ATTR
10
0
20
-796.0969386667
40
1.778
1
DFT."Allow Stubs" Yes
0
TEXT
8
PART_ATTR
10
0
20
-799.1449386667
40
1.778
1
DFT."Generate Test Points" No
0
TEXT
8
PART_ATTR
10
0
20
-802.1929386667
40
1.778
1
DFT."Grid X-Coordinate" 0.63500mm
0
TEXT
8
PART_ATTR
10
0
20
-805.2409386667
40
1.778
1
DFT."Grid Y-Coordinate" 0.63500mm
0
TEXT
8
PART_ATTR
10
0
20
-808.2889386667
40
1.778
1
DFT."Insert Test Point Vias" No
0
TEXT
8
PART_ATTR
10
0
20
-811.3369386667
40
1.778
1
DFT."Preserve Test Points" No
0
TEXT
8
PART_ATTR
10
0
20
-814.3849386667
40
1.778
1
DFT."Probe Pins" Yes
0
TEXT
8
PART_ATTR
10
0
20
-817.4329386667
40
1.778
1
DFT."Probe to Pad Clearance" 0.15240mm
0
TEXT
8
PART_ATTR
10
0
20
-820.4809386667
40
1.778
1
DFT."Probe to Trace Clearance" 0.15240mm
0
TEXT
8
PART_ATTR
10
0
20
-823.5289386667
40
1.778
1
DFT."Stub Length" 12.70000mm
0
TEXT
8
PART_ATTR
10
0
20
-826.5769386667
40
1.778
1
DFT."Use Via Grid" Yes
0
TEXT
8
PART_ATTR
10
0
20
-829.6249386667
40
1.778
1
Placement.Grid.Use No
0
TEXT
8
PART_ATTR
10
0
20
-832.6729386667
40
1.778
1
Placement.Grid.X 2.54000mm
0
TEXT
8
PART_ATTR
10
0
20
-835.7209386667
40
1.778
1
Placement.Grid.Y 2.54000mm
0
TEXT
8
PART_ATTR
10
0
20
-838.7689386667
40
1.778
1
Routing.MaxChannelWidth 2.54000mm
0
TEXT
8
PART_ATTR
10
0
20
-841.8169386667
40
1.778
1
Routing.MeanderBeforeTune No
0
TEXT
8
PART_ATTR
10
0
20
-844.8649386667
40
1.778
1
Routing.SoftLengthRrules Yes
0
TEXT
8
PART_ATTR
10
0
20
-847.9129386667
40
1.778
1
Routing.ExtraLengthPercent 100
0
TEXT
8
PART_ATTR
10
0
20
-850.9609386667
40
1.778
1
CAM."Apply Oversize To All Pads" Yes
0
TEXT
8
PART_ATTR
10
0
20
-854.0089386667
40
1.778
1
LaserDrillOversize 114300
0
TEXT
8
PART_ATTR
10
0
20
-857.0569386667
40
1.778
1
DiffPair.RestrictPairTuneInGap No
0
TEXT
8
PART_ATTR
10
0
20
-860.1049386667
40
1.778
1
DiffPair.RestrictSmallAccordionsInPairs No
0
TEXT
8
PART_ATTR
10
0
20
-863.1529386667
40
1.778
1
DiffPair.TunePairsToZeroTolerance Yes
0
TEXT
8
PART_ATTR
10
0
20
-866.2009386667
40
1.778
1
Guard.BandColor 0
0
TEXT
8
PART_ATTR
10
0
20
-869.2489386667
40
1.778
1
Blaze.Thermal.Color 8
0
TEXT
8
PART_ATTR
10
0
20
-872.2969386667
40
1.778
1
Blaze.TestPoint.Color 8
0
TEXT
8
PART_ATTR
10
0
20
-875.3449386667
40
1.778
1
"Single Sided Board" No
0
TEXT
8
PART_ATTR
10
0
20
-878.3929386667
40
1.778
1
PADS3D.Objects.Silkscreen.Refresh 3
0
TEXT
8
PART_ATTR
10
0
20
-881.4409386667
40
1.778
1
PADS3D.Objects.SolderMask.Refresh 3
0
ENDBLK
999
*** POWERPCB  2DLINE ***
999
*** POWERPCB  COMPONENT ***
0
BLOCK
2
PART_TOP_0
8
0
10
0
20
0
3
PART_TOP_0
70
64
0
INSERT
2
SYM_TOP_1
8
0
10
0
20
0
0
INSERT
2
PKG_0
8
0
10
0
20
0
0
TEXT
8
PART_NAME_TOP
10
0
20
0
40
1.778
1
P10
73
4
11
0
21
0
41
0.75
7
W0$254
0
TEXT
8
PART_TYPE_TOP
10
0
20
-2.54
40
1.778
1
HEADER_12
73
4
11
0
21
-2.54
41
0.75
7
W0$254
0
TEXT
8
PART_INFO
10
0
20
-5.08
40
1.778
1
000000
73
4
11
0
21
-5.08
41
0.75
7
W0$254
0
TEXT
8
PART_PTS
10
0
20
-7.62
40
1.778
1
1 2 3 4 5 6 7 8 9 10 11 12 13 
73
4
11
0
21
-7.62
41
0.75
7
W0$254
0
ENDBLK
0
BLOCK
2
PART_TOP_1
8
0
10
0
20
0
3
PART_TOP_1
70
64
0
INSERT
2
SYM_TOP_1
8
0
10
0
20
0
0
INSERT
2
PKG_0
8
0
10
0
20
0
0
TEXT
8
PART_NAME_TOP
10
0
20
0
40
1.778
1
P1
73
4
11
0
21
0
41
0.75
7
W0$254
0
TEXT
8
PART_TYPE_TOP
10
0
20
-2.54
40
1.778
1
HEADER_12
73
4
11
0
21
-2.54
41
0.75
7
W0$254
0
TEXT
8
PART_INFO
10
0
20
-5.08
40
1.778
1
000000
73
4
11
0
21
-5.08
41
0.75
7
W0$254
0
TEXT
8
PART_PTS
10
0
20
-7.62
40
1.778
1
1 2 3 4 5 6 7 8 9 10 11 12 13 
73
4
11
0
21
-7.62
41
0.75
7
W0$254
0
ENDBLK
0
BLOCK
2
PART_TOP_2
8
0
10
0
20
0
3
PART_TOP_2
70
64
0
INSERT
2
SYM_TOP_1
8
0
10
0
20
0
0
INSERT
2
PKG_0
8
0
10
0
20
0
0
TEXT
8
PART_NAME_TOP
10
0
20
0
40
1.778
1
P2
73
4
11
0
21
0
41
0.75
7
W0$254
0
TEXT
8
PART_TYPE_TOP
10
0
20
-2.54
40
1.778
1
HEADER_12
73
4
11
0
21
-2.54
41
0.75
7
W0$254
0
TEXT
8
PART_INFO
10
0
20
-5.08
40
1.778
1
000000
73
4
11
0
21
-5.08
41
0.75
7
W0$254
0
TEXT
8
PART_PTS
10
0
20
-7.62
40
1.778
1
1 2 3 4 5 6 7 8 9 10 11 12 13 
73
4
11
0
21
-7.62
41
0.75
7
W0$254
0
ENDBLK
0
BLOCK
2
PART_TOP_3
8
0
10
0
20
0
3
PART_TOP_3
70
64
0
INSERT
2
SYM_TOP_1
8
0
10
0
20
0
0
INSERT
2
PKG_0
8
0
10
0
20
0
0
TEXT
8
PART_NAME_TOP
10
0
20
0
40
1.778
1
P3
73
4
11
0
21
0
41
0.75
7
W0$254
0
TEXT
8
PART_TYPE_TOP
10
0
20
-2.54
40
1.778
1
HEADER_12
73
4
11
0
21
-2.54
41
0.75
7
W0$254
0
TEXT
8
PART_INFO
10
0
20
-5.08
40
1.778
1
000000
73
4
11
0
21
-5.08
41
0.75
7
W0$254
0
TEXT
8
PART_PTS
10
0
20
-7.62
40
1.778
1
1 2 3 4 5 6 7 8 9 10 11 12 13 
73
4
11
0
21
-7.62
41
0.75
7
W0$254
0
ENDBLK
0
BLOCK
2
PART_TOP_4
8
0
10
0
20
0
3
PART_TOP_4
70
64
0
INSERT
2
SYM_TOP_1
8
0
10
0
20
0
0
INSERT
2
PKG_0
8
0
10
0
20
0
0
TEXT
8
PART_NAME_TOP
10
0
20
0
40
1.778
1
P4
73
4
11
0
21
0
41
0.75
7
W0$254
0
TEXT
8
PART_TYPE_TOP
10
0
20
-2.54
40
1.778
1
HEADER_12
73
4
11
0
21
-2.54
41
0.75
7
W0$254
0
TEXT
8
PART_INFO
10
0
20
-5.08
40
1.778
1
000000
73
4
11
0
21
-5.08
41
0.75
7
W0$254
0
TEXT
8
PART_PTS
10
0
20
-7.62
40
1.778
1
1 2 3 4 5 6 7 8 9 10 11 12 13 
73
4
11
0
21
-7.62
41
0.75
7
W0$254
0
ENDBLK
0
BLOCK
2
PART_TOP_5
8
0
10
0
20
0
3
PART_TOP_5
70
64
0
INSERT
2
SYM_TOP_1
8
0
10
0
20
0
0
INSERT
2
PKG_0
8
0
10
0
20
0
0
TEXT
8
PART_NAME_TOP
10
0
20
0
40
1.778
1
P5
73
4
11
0
21
0
41
0.75
7
W0$254
0
TEXT
8
PART_TYPE_TOP
10
0
20
-2.54
40
1.778
1
HEADER_12
73
4
11
0
21
-2.54
41
0.75
7
W0$254
0
TEXT
8
PART_INFO
10
0
20
-5.08
40
1.778
1
000000
73
4
11
0
21
-5.08
41
0.75
7
W0$254
0
TEXT
8
PART_PTS
10
0
20
-7.62
40
1.778
1
1 2 3 4 5 6 7 8 9 10 11 12 13 
73
4
11
0
21
-7.62
41
0.75
7
W0$254
0
ENDBLK
0
BLOCK
2
PART_TOP_6
8
0
10
0
20
0
3
PART_TOP_6
70
64
0
INSERT
2
SYM_TOP_1
8
0
10
0
20
0
0
INSERT
2
PKG_0
8
0
10
0
20
0
0
TEXT
8
PART_NAME_TOP
10
0
20
0
40
1.778
1
P6
73
4
11
0
21
0
41
0.75
7
W0$254
0
TEXT
8
PART_TYPE_TOP
10
0
20
-2.54
40
1.778
1
HEADER_12
73
4
11
0
21
-2.54
41
0.75
7
W0$254
0
TEXT
8
PART_INFO
10
0
20
-5.08
40
1.778
1
000000
73
4
11
0
21
-5.08
41
0.75
7
W0$254
0
TEXT
8
PART_PTS
10
0
20
-7.62
40
1.778
1
1 2 3 4 5 6 7 8 9 10 11 12 13 
73
4
11
0
21
-7.62
41
0.75
7
W0$254
0
ENDBLK
0
BLOCK
2
PART_TOP_7
8
0
10
0
20
0
3
PART_TOP_7
70
64
0
INSERT
2
SYM_TOP_1
8
0
10
0
20
0
0
INSERT
2
PKG_0
8
0
10
0
20
0
0
TEXT
8
PART_NAME_TOP
10
0
20
0
40
1.778
1
P7
73
4
11
0
21
0
41
0.75
7
W0$254
0
TEXT
8
PART_TYPE_TOP
10
0
20
-2.54
40
1.778
1
HEADER_12
73
4
11
0
21
-2.54
41
0.75
7
W0$254
0
TEXT
8
PART_INFO
10
0
20
-5.08
40
1.778
1
000000
73
4
11
0
21
-5.08
41
0.75
7
W0$254
0
TEXT
8
PART_PTS
10
0
20
-7.62
40
1.778
1
1 2 3 4 5 6 7 8 9 10 11 12 13 
73
4
11
0
21
-7.62
41
0.75
7
W0$254
0
ENDBLK
0
BLOCK
2
PART_TOP_8
8
0
10
0
20
0
3
PART_TOP_8
70
64
0
INSERT
2
SYM_TOP_1
8
0
10
0
20
0
0
INSERT
2
PKG_0
8
0
10
0
20
0
0
TEXT
8
PART_NAME_TOP
10
0
20
0
40
1.778
1
P8
73
4
11
0
21
0
41
0.75
7
W0$254
0
TEXT
8
PART_TYPE_TOP
10
0
20
-2.54
40
1.778
1
HEADER_12
73
4
11
0
21
-2.54
41
0.75
7
W0$254
0
TEXT
8
PART_INFO
10
0
20
-5.08
40
1.778
1
000000
73
4
11
0
21
-5.08
41
0.75
7
W0$254
0
TEXT
8
PART_PTS
10
0
20
-7.62
40
1.778
1
1 2 3 4 5 6 7 8 9 10 11 12 13 
73
4
11
0
21
-7.62
41
0.75
7
W0$254
0
ENDBLK
0
BLOCK
2
PART_TOP_9
8
0
10
0
20
0
3
PART_TOP_9
70
64
0
INSERT
2
SYM_TOP_1
8
0
10
0
20
0
0
INSERT
2
PKG_0
8
0
10
0
20
0
0
TEXT
8
PART_NAME_TOP
10
0
20
0
40
1.778
1
P9
73
4
11
0
21
0
41
0.75
7
W0$254
0
TEXT
8
PART_TYPE_TOP
10
0
20
-2.54
40
1.778
1
HEADER_12
73
4
11
0
21
-2.54
41
0.75
7
W0$254
0
TEXT
8
PART_INFO
10
0
20
-5.08
40
1.778
1
000000
73
4
11
0
21
-5.08
41
0.75
7
W0$254
0
TEXT
8
PART_PTS
10
0
20
-7.62
40
1.778
1
1 2 3 4 5 6 7 8 9 10 11 12 13 
73
4
11
0
21
-7.62
41
0.75
7
W0$254
0
ENDBLK
0
BLOCK
2
PART_TOP_10
8
0
10
0
20
0
3
PART_TOP_10
70
64
0
INSERT
2
SYM_TOP_1
8
0
10
0
20
0
0
INSERT
2
PKG_0
8
0
10
0
20
0
0
TEXT
8
PART_NAME_TOP
10
0
20
0
40
1.778
1
P11
73
4
11
0
21
0
41
0.75
7
W0$254
0
TEXT
8
PART_TYPE_TOP
10
0
20
-2.54
40
1.778
1
HEADER_12
73
4
11
0
21
-2.54
41
0.75
7
W0$254
0
TEXT
8
PART_INFO
10
0
20
-5.08
40
1.778
1
000000
73
4
11
0
21
-5.08
41
0.75
7
W0$254
0
TEXT
8
PART_PTS
10
0
20
-7.62
40
1.778
1
1 2 3 4 5 6 7 8 9 10 11 12 13 
73
4
11
0
21
-7.62
41
0.75
7
W0$254
0
ENDBLK
0
BLOCK
2
PART_TOP_11
8
0
10
0
20
0
3
PART_TOP_11
70
64
0
INSERT
2
SYM_TOP_1
8
0
10
0
20
0
0
INSERT
2
PKG_0
8
0
10
0
20
0
0
TEXT
8
PART_NAME_TOP
10
0
20
0
40
1.778
1
P12
73
4
11
0
21
0
41
0.75
7
W0$254
0
TEXT
8
PART_TYPE_TOP
10
0
20
-2.54
40
1.778
1
HEADER_12
73
4
11
0
21
-2.54
41
0.75
7
W0$254
0
TEXT
8
PART_INFO
10
0
20
-5.08
40
1.778
1
000000
73
4
11
0
21
-5.08
41
0.75
7
W0$254
0
TEXT
8
PART_PTS
10
0
20
-7.62
40
1.778
1
1 2 3 4 5 6 7 8 9 10 11 12 13 
73
4
11
0
21
-7.62
41
0.75
7
W0$254
0
ENDBLK
0
BLOCK
2
SYM_TOP_1
8
0
10
0
20
0
3
SYM_TOP_1
70
64
0
TEXT
8
SYM_NAME
10
0
20
0
40
1.778
1
HDR-TH_12P-P2.54-V-M
41
0.75
0
TEXT
8
SYM_ATTRIBUTE_126
10
-15.367
20
1.6002
40
0.889
1
Comment
41
0.75
7
W0$127R0
0
TEXT
8
SYM_PART_NAME_126
10
-15.367
20
2.8702
40
0.889
1
 
41
0.75
7
W0$127R0
0
INSERT
2
PART_BODY_TOP_1
8
0
10
0
20
0
0
INSERT
2
STK_TOP_7
8
0
10
-13.97
20
0
0
TEXT
8
SYM_TERMINAL
10
0
20
-3.048
40
1.778
1
1
0
INSERT
2
STK_TOP_6
8
0
10
-11.43
20
0
0
TEXT
8
SYM_TERMINAL
10
0
20
-6.096
40
1.778
1
2
0
INSERT
2
STK_TOP_6
8
0
10
-8.89
20
0
0
TEXT
8
SYM_TERMINAL
10
0
20
-9.144
40
1.778
1
3
0
INSERT
2
STK_TOP_6
8
0
10
-6.35
20
0
0
TEXT
8
SYM_TERMINAL
10
0
20
-12.192
40
1.778
1
4
0
INSERT
2
STK_TOP_6
8
0
10
-3.81
20
0
0
TEXT
8
SYM_TERMINAL
10
0
20
-15.24
40
1.778
1
5
0
INSERT
2
STK_TOP_6
8
0
10
-1.27
20
0
0
TEXT
8
SYM_TERMINAL
10
0
20
-18.288
40
1.778
1
6
0
INSERT
2
STK_TOP_6
8
0
10
1.27
20
0
0
TEXT
8
SYM_TERMINAL
10
0
20
-21.336
40
1.778
1
7
0
INSERT
2
STK_TOP_6
8
0
10
3.81
20
0
0
TEXT
8
SYM_TERMINAL
10
0
20
-24.384
40
1.778
1
8
0
INSERT
2
STK_TOP_6
8
0
10
6.35
20
0
0
TEXT
8
SYM_TERMINAL
10
0
20
-27.432
40
1.778
1
9
0
INSERT
2
STK_TOP_6
8
0
10
8.89
20
0
0
TEXT
8
SYM_TERMINAL
10
0
20
-30.48
40
1.778
1
10
0
INSERT
2
STK_TOP_6
8
0
10
11.43
20
0
0
TEXT
8
SYM_TERMINAL
10
0
20
-33.528
40
1.778
1
11
0
INSERT
2
STK_TOP_6
8
0
10
13.97
20
0
0
TEXT
8
SYM_TERMINAL
10
0
20
-36.576
40
1.778
1
12
0
INSERT
2
STK_TOP_15
8
0
10
16.51
20
0
0
TEXT
8
SYM_TERMINAL
10
0
20
-39.624
40
1.778
1
13
0
ENDBLK
0
BLOCK
2
PKG_0
8
0
10
0
20
0
3
PKG_0
70
64
0
TEXT
8
PKG_INFO
10
0
20
0
40
1.778
1
*SYM:= 1
0
TEXT
8
PKG_INFO
10
0
20
-3.048
40
1.778
1
*PKG:= 0 HEADER_12 POT
0
TEXT
8
PKG_INFO
10
0
20
-6.096
40
1.778
1
*GATE:=0
0
TEXT
8
PKG_INFO
10
0
20
-9.144
40
1.778
1
*GATEPIN:= 0 5 1 1
0
TEXT
8
PKG_INFO
10
0
20
-12.192
40
1.778
1
*GATEPIN:= 0 5 2 2
0
TEXT
8
PKG_INFO
10
0
20
-15.24
40
1.778
1
*GATEPIN:= 0 5 3 3
0
TEXT
8
PKG_INFO
10
0
20
-18.288
40
1.778
1
*GATEPIN:= 0 5 4 4
0
TEXT
8
PKG_INFO
10
0
20
-21.336
40
1.778
1
*GATEPIN:= 0 5 5 5
0
TEXT
8
PKG_INFO
10
0
20
-24.384
40
1.778
1
*GATEPIN:= 0 5 6 6
0
TEXT
8
PKG_INFO
10
0
20
-27.432
40
1.778
1
*GATEPIN:= 0 5 7 7
0
TEXT
8
PKG_INFO
10
0
20
-30.48
40
1.778
1
*GATEPIN:= 0 5 8 8
0
TEXT
8
PKG_INFO
10
0
20
-33.528
40
1.778
1
*GATEPIN:= 0 5 9 9
0
TEXT
8
PKG_INFO
10
0
20
-36.576
40
1.778
1
*GATEPIN:= 0 5 10 10
0
TEXT
8
PKG_INFO
10
0
20
-39.624
40
1.778
1
*GATEPIN:= 0 5 11 11
0
TEXT
8
PKG_INFO
10
0
20
-42.672
40
1.778
1
*GATEPIN:= 0 5 12 12
0
ENDBLK
0
BLOCK
2
PART_BODY_TOP_1
8
0
10
0
20
0
3
PART_BODY_TOP_1
70
64
0
POLYLINE
8
PART_TOP_2DLINE_126
66
1
40
0.254
41
0.254
0
VERTEX
8
PART_TOP_2DLINE_126
10
-15.24
20
-1.27
0
VERTEX
8
PART_TOP_2DLINE_126
10
17.78
20
-1.27
0
VERTEX
8
PART_TOP_2DLINE_126
10
17.78
20
1.27
0
VERTEX
8
PART_TOP_2DLINE_126
10
-15.24
20
1.27
0
VERTEX
8
PART_TOP_2DLINE_126
10
-15.24
20
-1.27
0
SEQEND
0
INSERT
2
SMOOTH_0$254
8
PART_TOP_2DLINE_126
10
-15.24
20
-1.27
0
INSERT
2
SMOOTH_0$254
8
PART_TOP_2DLINE_126
10
17.78
20
-1.27
0
INSERT
2
SMOOTH_0$254
8
PART_TOP_2DLINE_126
10
17.78
20
1.27
0
INSERT
2
SMOOTH_0$254
8
PART_TOP_2DLINE_126
10
-15.24
20
1.27
0
INSERT
2
SMOOTH_0$254
8
PART_TOP_2DLINE_126
10
-15.24
20
-1.27
0
ENDBLK
0
BLOCK
2
STK_TOP_7
8
0
10
0
20
0
3
STK_TOP_7
70
64
0
INSERT
2
DRIL_HOLE_1$0499846667
8
DRIL_PLTE_THRU_01
10
0
20
0
0
INSERT
2
DRIL_HOLE_1$0499846667
8
DRIL_PLTE_THRU_02
10
0
20
0
0
INSERT
2
PAD_0
8
PADS_INNER
10
0
20
0
0
INSERT
2
PAD_0
8
PADS_BOT
10
0
20
0
0
INSERT
2
PAD_1
8
PADS_XR_121
10
0
20
0
0
INSERT
2
PAD_1
8
PADS_XR_128
10
0
20
0
0
INSERT
2
PAD_0
8
PADS_TOP
10
0
20
0
0
ENDBLK
0
BLOCK
2
STK_TOP_6
8
0
10
0
20
0
3
STK_TOP_6
70
64
0
INSERT
2
DRIL_HOLE_1$0499846667
8
DRIL_PLTE_THRU_01
10
0
20
0
0
INSERT
2
DRIL_HOLE_1$0499846667
8
DRIL_PLTE_THRU_02
10
0
20
0
0
INSERT
2
PAD_2
8
PADS_INNER
10
0
20
0
0
INSERT
2
PAD_2
8
PADS_BOT
10
0
20
0
0
INSERT
2
PAD_3
8
PADS_XR_121
10
0
20
0
0
INSERT
2
PAD_3
8
PADS_XR_128
10
0
20
0
0
INSERT
2
PAD_2
8
PADS_TOP
10
0
20
0
0
ENDBLK
0
BLOCK
2
STK_TOP_15
8
0
10
0
20
0
3
STK_TOP_15
70
64
0
INSERT
2
DRIL_HOLE_0$889
8
DRIL_PLTE_THRU_01
10
0
20
0
0
INSERT
2
DRIL_HOLE_0$889
8
DRIL_PLTE_THRU_02
10
0
20
0
0
INSERT
2
PAD_4
8
PADS_INNER
10
0
20
0
0
INSERT
2
PAD_4
8
PADS_BOT
10
0
20
0
0
INSERT
2
PAD_4
8
PADS_TOP
10
0
20
0
0
ENDBLK
999
*** POWERPCB  PCB PARAMETER ***
0
BLOCK
2
PCB_PARAMS
8
0
10
0
20
0
3
PCB_PARAMS
70
64
999
 *  1.Job name           2.Backupfile name       3.CursorType
999
 *  4.TearDropFlag       5.HighlighNetsFlag      6.HatchDisplayFlag
999
 *  7.PadsFlag           8.TracksFlag            9.ViasFlag
999
 * 10.CopperFlag        11.LinesFlag            12.TextFlag
999
 * 13.TopComponentFlag  14.BottomComponentFlag  16.ObjectSnapFlags
0
TEXT
8
PCB_PARAMS
10
0
20
-3.048
40
1.778
1
A:=T-DISPLAY-S3-2.33-¸±°å.pcb <> 5 0 0 0 1 1 1 1 1 1 1 1 32 502 0
999
 *  1.RefDesHeight       2.RefDesWidth           3.DefaultWidth
999
 *  4.VGX                5.VGY                   6.OVR
999
 *  7.HatchGrid          8.ObjectSnapRadius
0
TEXT
8
PCB_PARAMS
10
0
20
-6.096
40
1.778
1
B:=2.54 0.254 0.2 0.01 0.01 0.0762 0.254 2.54
999
 *  1.ScaleFactor        2.NetAttributeFlags     3.BackupInterval
999
 *  4.WorkingLevel       5.HatchMode             6.HatchDirection
999
 *  7.ConnectionColor    8.BackgroundColor       9.ForegroundColor
999
 * 10.BoardOutlineColor
0
TEXT
8
PCB_PARAMS
10
0
20
-9.144
40
1.778
1
C:=23.0873603821 10002 20 0 0 0 0 0 8 8
999
 * MitreAngle0 - MitreAngle6
0
TEXT
8
PCB_PARAMS
10
0
20
-12.192
40
1.778
1
D:=324000000 324000000 324000000 324000000 324000000 324000000 162000000
999
 * Hatch & Keepout Parameters
0
TEXT
8
PCB_PARAMS
10
0
20
-15.24
40
1.778
1
E:=0.5 0 0 2.54 0 1
999
 * Fanout Parameters
0
TEXT
8
PCB_PARAMS
10
0
20
-18.288
40
1.778
1
F:=0.635 0.635 6.35 1 2 0 1 1 0 0 1 1 1 1
999
 * Pad Entry Parameters
0
TEXT
8
PCB_PARAMS
10
0
20
-21.336
40
1.778
1
P:= 1 1 1 1
999
 * DFF Parameters
0
TEXT
8
PCB_PARAMS
10
0
20
-24.384
40
1.778
1
Q:=89.9999 3967 114300 114300 114300 5 4 114300 114300 114300 114300 1 114300 1 114300 1 114300 0
0
ENDBLK
0
BLOCK
2
DRIL_SYMBOL_1$0499846667
8
0
10
0
20
0
3
DRIL_SYMBOL_1$0499846667
70
64
0
POLYLINE
8
DRIL_SYMBOL
66
1
40
0.0508
41
0.0508
0
VERTEX
8
DRIL_SYMBOL
10
0
20
-0.254
0
VERTEX
8
DRIL_SYMBOL
10
0
20
0.254
0
SEQEND
0
POLYLINE
8
DRIL_SYMBOL
66
1
40
0.0508
41
0.0508
0
VERTEX
8
DRIL_SYMBOL
10
-0.254
20
0
0
VERTEX
8
DRIL_SYMBOL
10
0.254
20
0
0
SEQEND
0
ENDBLK
0
BLOCK
2
DRIL_SYMBOL_0$889
8
0
10
0
20
0
3
DRIL_SYMBOL_0$889
70
64
0
POLYLINE
8
DRIL_SYMBOL
66
1
40
0.0508
41
0.0508
0
VERTEX
8
DRIL_SYMBOL
10
0
20
-0.254
0
VERTEX
8
DRIL_SYMBOL
10
0
20
0.254
0
SEQEND
0
POLYLINE
8
DRIL_SYMBOL
66
1
40
0.0508
41
0.0508
0
VERTEX
8
DRIL_SYMBOL
10
-0.254
20
0
0
VERTEX
8
DRIL_SYMBOL
10
0.254
20
0
0
SEQEND
0
ENDBLK
999
*** POWERPCB  SMOOTH CIRCLE ***
0
BLOCK
2
SMOOTH_0$2
8
0
10
0
20
0
3
SMOOTH_0$2
70
64
0
POLYLINE
8
0
66
1
40
0.1
41
0.1
70
1
0
VERTEX
8
0
10
-0.05
20
0
42
1
0
VERTEX
8
0
10
0.05
20
0
42
1
0
SEQEND
0
ENDBLK
0
BLOCK
2
SMOOTH_0$254
8
0
10
0
20
0
3
SMOOTH_0$254
70
64
0
POLYLINE
8
0
66
1
40
0.127
41
0.127
70
1
0
VERTEX
8
0
10
-0.0635
20
0
42
1
0
VERTEX
8
0
10
0.0635
20
0
42
1
0
SEQEND
0
ENDBLK
0
BLOCK
2
PAD_0
8
0
10
0
20
0
3
PAD_0
70
64
0
POLYLINE
8
0
66
1
40
1.524
41
1.524
0
VERTEX
8
0
10
-0.762
20
0
0
VERTEX
8
0
10
0.762
20
0
0
SEQEND
0
ENDBLK
0
BLOCK
2
PAD_1
8
0
10
0
20
0
3
PAD_1
70
64
0
POLYLINE
8
0
66
1
40
1.6256
41
1.6256
0
VERTEX
8
0
10
-0.8128
20
0
0
VERTEX
8
0
10
0.8128
20
0
0
SEQEND
0
ENDBLK
0
BLOCK
2
PAD_2
8
0
10
0
20
0
3
PAD_2
70
64
0
POLYLINE
8
0
70
1
66
1
40
0.762
41
0.762
0
VERTEX
8
0
10
0
20
-0.381
42
1
0
VERTEX
8
0
10
0
20
0.381
42
1
0
SEQEND
0
ENDBLK
0
BLOCK
2
PAD_3
8
0
10
0
20
0
3
PAD_3
70
64
0
POLYLINE
8
0
70
1
66
1
40
0.8128
41
0.8128
0
VERTEX
8
0
10
0
20
-0.4064
42
1
0
VERTEX
8
0
10
0
20
0.4064
42
1
0
SEQEND
0
ENDBLK
0
BLOCK
2
PAD_4
8
0
10
0
20
0
3
PAD_4
70
64
0
POLYLINE
8
0
70
1
66
1
40
0.762
41
0.762
0
VERTEX
8
0
10
0
20
-0.381
42
1
0
VERTEX
8
0
10
0
20
0.381
42
1
0
SEQEND
0
ENDBLK
999
*** POWERPCB  DRILL HOLE ***
0
BLOCK
2
DRIL_HOLE_1$0499846667
8
0
10
0
20
0
3
DRIL_HOLE_1$0499846667
70
64
0
POLYLINE
8
0
66
1
40
0.524992
41
0.524992
70
1
0
VERTEX
8
0
10
-0.262496
20
0
42
1
0
VERTEX
8
0
10
0.262496
20
0
42
1
0
SEQEND
0
INSERT
2
DRIL_SYMBOL_1$0499846667
8
0
10
0
20
0
0
ENDBLK
0
BLOCK
2
DRIL_HOLE_0$889
8
0
10
0
20
0
3
DRIL_HOLE_0$889
70
64
0
POLYLINE
8
0
66
1
40
0.4445
41
0.4445
70
1
0
VERTEX
8
0
10
-0.22225
20
0
42
1
0
VERTEX
8
0
10
0.22225
20
0
42
1
0
SEQEND
0
INSERT
2
DRIL_SYMBOL_0$889
8
0
10
0
20
0
0
ENDBLK
0
ENDSEC
0
SECTION
2
ENTITIES
999
*** POWERPCB  DBLAYER ***
0
INSERT
2
DBLAYERS
8
0
10
0
20
0
999
*** POWERPCB  BOARD ***
0
INSERT
2
BOARD_2
8
0
10
94.4
20
-94.6
0
INSERT
2
ATTRIBUTES
8
0
10
0
20
0
999
*** POWERPCB  2DLINE ***
999
*** POWERPCB  FREE TEXT ***
999
*** POWERPCB  COMPONENT ***
0
INSERT
2
PART_TOP_0
8
0
10
13.97
20
2.54
0
INSERT
2
PART_TOP_1
8
0
10
13.97
20
5.08
0
INSERT
2
PART_TOP_2
8
0
10
13.97
20
7.62
0
INSERT
2
PART_TOP_3
8
0
10
13.97
20
10.16
0
INSERT
2
PART_TOP_4
8
0
10
13.97
20
12.7
0
INSERT
2
PART_TOP_5
8
0
10
13.97
20
15.24
0
INSERT
2
PART_TOP_6
8
0
10
13.97
20
17.78
0
INSERT
2
PART_TOP_7
8
0
10
13.97
20
20.32
0
INSERT
2
PART_TOP_8
8
0
10
13.97
20
22.86
0
INSERT
2
PART_TOP_9
8
0
10
13.97
20
25.4
0
INSERT
2
PART_TOP_10
8
0
10
13.97
20
0
0
INSERT
2
PART_TOP_11
8
0
10
13.97
20
27.94
999
*** POWERPCB  PCB PARAMETER ***
0
INSERT
2
PCB_PARAMS
8
0
10
0
20
0
0
ENDSEC
0
EOF
